<svg width="20" height="20" viewBox="0 0 20 20" fill="none" xmlns="http://www.w3.org/2000/svg">
<g clip-path="url(#clip0_141_53)">
<path fill-rule="evenodd" clip-rule="evenodd" d="M6.22083 0.909526C7.19833 0.865297 7.50999 0.855469 9.99999 0.855469C12.49 0.855469 12.8017 0.866116 13.7783 0.909526C14.755 0.952936 15.4217 1.1061 16.005 1.32806C16.6158 1.55494 17.17 1.90959 17.6283 2.36826C18.095 2.81791 18.455 3.36176 18.685 3.96295C18.9117 4.53628 19.0667 5.19152 19.1117 6.14981C19.1567 7.1122 19.1667 7.41852 19.1667 9.86503C19.1667 12.3124 19.1558 12.6187 19.1117 13.5794C19.0675 14.5377 18.9117 15.193 18.685 15.7663C18.455 16.3676 18.0944 16.9123 17.6283 17.3626C17.17 17.8213 16.6158 18.1751 16.005 18.4012C15.4217 18.624 14.755 18.7763 13.78 18.8205C12.8017 18.8648 12.49 18.8746 9.99999 18.8746C7.50999 18.8746 7.19833 18.8639 6.22083 18.8205C5.24583 18.7771 4.57916 18.624 3.99583 18.4012C3.3841 18.1751 2.82985 17.8207 2.37166 17.3626C1.90531 16.9127 1.54442 16.3682 1.31416 15.7671C1.08833 15.1938 0.933328 14.5385 0.888328 13.5802C0.843328 12.6179 0.833328 12.3115 0.833328 9.86503C0.833328 7.41771 0.844162 7.11138 0.888328 6.15145C0.932495 5.19152 1.08833 4.53628 1.31416 3.96295C1.54476 3.36183 1.90593 2.81735 2.37249 2.36744C2.83003 1.90918 3.38372 1.55448 3.99499 1.32806C4.57833 1.1061 5.24499 0.953755 6.21999 0.909526H6.22083ZM13.7042 2.53125C12.7375 2.48784 12.4475 2.47883 9.99999 2.47883C7.55249 2.47883 7.26249 2.48784 6.29583 2.53125C5.40166 2.57138 4.91666 2.71799 4.59333 2.84167C4.16583 3.00548 3.85999 3.19959 3.53916 3.51493C3.23503 3.80573 3.00098 4.15975 2.85416 4.55103C2.72833 4.86882 2.57916 5.34551 2.53833 6.22435C2.49416 7.17445 2.48499 7.45948 2.48499 9.86503C2.48499 12.2706 2.49416 12.5556 2.53833 13.5057C2.57916 14.3846 2.72833 14.8612 2.85416 15.179C3.00083 15.5697 3.23499 15.9244 3.53916 16.2151C3.83499 16.5141 4.19583 16.7442 4.59333 16.8884C4.91666 17.0121 5.40166 17.1587 6.29583 17.1988C7.26249 17.2422 7.55166 17.2512 9.99999 17.2512C12.4483 17.2512 12.7375 17.2422 13.7042 17.1988C14.5983 17.1587 15.0833 17.0121 15.4067 16.8884C15.8342 16.7246 16.14 16.5305 16.4608 16.2151C16.765 15.9244 16.9992 15.5697 17.1458 15.179C17.2717 14.8612 17.4208 14.3846 17.4617 13.5057C17.5058 12.5556 17.515 12.2706 17.515 9.86503C17.515 7.45948 17.5058 7.17445 17.4617 6.22435C17.4208 5.34551 17.2717 4.86882 17.1458 4.55103C16.9792 4.13085 16.7817 3.83026 16.4608 3.51493C16.1649 3.21603 15.8047 2.98599 15.4067 2.84167C15.0833 2.71799 14.5983 2.57138 13.7042 2.53125ZM8.82916 12.6424C9.48304 12.91 10.2111 12.9461 10.8891 12.7446C11.5671 12.5431 12.1528 12.1165 12.5463 11.5377C12.9398 10.9589 13.1167 10.2638 13.0467 9.57108C12.9767 8.87835 12.6642 8.231 12.1625 7.73959C11.8427 7.42547 11.456 7.18494 11.0303 7.03533C10.6045 6.88572 10.1504 6.83074 9.70041 6.87436C9.25046 6.91798 8.81595 7.05911 8.42816 7.28758C8.04037 7.51606 7.70895 7.8262 7.45775 8.19568C7.20655 8.56516 7.04182 8.98479 6.97542 9.42435C6.90903 9.86391 6.94262 10.3125 7.07378 10.7377C7.20493 11.163 7.4304 11.5544 7.73393 11.8838C8.03746 12.2131 8.41151 12.4722 8.82916 12.6424ZM6.66833 6.59046C7.10585 6.16044 7.62526 5.81933 8.19691 5.5866C8.76856 5.35388 9.38125 5.23409 9.99999 5.23409C10.6187 5.23409 11.2314 5.35388 11.8031 5.5866C12.3747 5.81933 12.8941 6.16044 13.3317 6.59046C13.7692 7.02049 14.1162 7.531 14.353 8.09285C14.5898 8.6547 14.7117 9.25689 14.7117 9.86503C14.7117 10.4732 14.5898 11.0754 14.353 11.6372C14.1162 12.1991 13.7692 12.7096 13.3317 13.1396C12.448 14.0081 11.2496 14.496 9.99999 14.496C8.75038 14.496 7.55194 14.0081 6.66833 13.1396C5.78471 12.2711 5.28831 11.0932 5.28831 9.86503C5.28831 8.63683 5.78471 7.45893 6.66833 6.59046ZM15.7567 5.92376C15.8651 5.82323 15.9519 5.70235 16.0119 5.56827C16.0719 5.43418 16.104 5.28962 16.1062 5.14314C16.1083 4.99667 16.0806 4.85125 16.0246 4.7155C15.9685 4.57975 15.8854 4.45644 15.78 4.35285C15.6746 4.24926 15.5491 4.16751 15.411 4.11244C15.2729 4.05737 15.1249 4.03009 14.9759 4.03223C14.8269 4.03436 14.6798 4.06587 14.5433 4.12487C14.4069 4.18388 14.2839 4.26919 14.1817 4.37575C13.9828 4.58299 13.8739 4.85827 13.8781 5.14314C13.8823 5.42802 13.9993 5.70006 14.2043 5.90151C14.4093 6.10297 14.686 6.21798 14.9759 6.22214C15.2657 6.22629 15.5458 6.11926 15.7567 5.92376Z" fill="white"/>
</g>
<defs>
<clipPath id="clip0_141_53">
<rect width="20" height="19.6572" fill="white" transform="translate(0 0.0361328)"/>
</clipPath>
</defs>
</svg>
