<svg width="20" height="22" viewBox="0 0 20 22" fill="none" xmlns="http://www.w3.org/2000/svg">
<g clip-path="url(#clip0_54_157)">
<path d="M10 1.25122C5.90625 1.25122 2.4375 4.05944 1.15625 7.93747H18.8438C17.5625 4.05944 14.0938 1.25122 10 1.25122Z" fill="#428BC1"/>
<path d="M10 21.31C14.0938 21.31 17.5625 18.5352 18.8438 14.6237H1.15625C2.4375 18.5352 5.90625 21.31 10 21.31Z" fill="#83BF4F"/>
<path d="M1.15625 7.93744C0.8125 8.97381 0.625 10.1105 0.625 11.2806C0.625 12.4507 0.8125 13.5873 1.15625 14.6237H18.8438C19.1875 13.5873 19.375 12.4507 19.375 11.2806C19.375 10.1105 19.1875 8.97381 18.8438 7.93744H1.15625Z" fill="#ED4C5C"/>
<path d="M9.875 14.0219C8.46875 14.0219 7.3125 12.785 7.3125 11.2806C7.3125 9.77616 8.46875 8.5392 9.875 8.5392C10.2188 8.5392 10.5312 8.60607 10.8125 8.73979C10.3125 8.33862 9.6875 8.07117 9 8.07117C7.34375 8.07117 6.03125 9.50871 6.03125 11.2806C6.03125 13.0524 7.375 14.49 9 14.49C9.6875 14.49 10.3125 14.2559 10.8125 13.8213C10.5312 13.9551 10.2188 14.0219 9.875 14.0219Z" fill="white"/>
<path d="M12.625 11.749L11.9375 12.2505L12.375 11.4815L11.5625 11.2808L12.375 11.0802L11.9062 10.3446L12.625 10.8127L12.8125 9.9433L13 10.8127L13.6875 10.3111L13.25 11.0802L14.0625 11.2808L13.25 11.4815L13.7188 12.2171L13 11.749L12.8125 12.6184L12.625 11.749Z" fill="white"/>
</g>
<defs>
<clipPath id="clip0_54_157">
<rect width="20" height="21.396" fill="white" transform="translate(0 0.582581)"/>
</clipPath>
</defs>
</svg>
