<svg width="273" height="162" viewBox="0 0 273 162" fill="none" xmlns="http://www.w3.org/2000/svg">
<path d="M222.196 62.7343C219.129 66.5595 213.761 69.0459 207.817 70.0023C200.724 71.1498 192.864 70.0023 186.537 66.177C186.346 66.177 185.962 66.177 185.77 66.177C184.428 67.5158 183.086 68.6634 181.553 69.6197C178.869 71.3411 175.993 72.4887 172.926 73.2537C166.407 74.5926 159.697 73.445 153.371 69.811C144.935 81.8606 125.381 83.7732 111.194 78.2266C105.442 86.4509 97.7739 92.9539 87.2296 93.5276C82.4368 93.7189 77.8357 92.7626 74.7682 89.8936C74.0014 89.8936 73.4263 89.8936 72.6594 89.8936C68.25 89.1286 64.4157 83.9645 68.25 79.7567C71.8925 75.7402 76.1102 71.9149 80.7114 68.2809C80.7114 67.8984 80.7114 67.7071 80.9031 67.3246C83.5871 57.9527 93.7479 52.9798 103.334 50.8759C104.1 49.1546 105.442 47.8157 107.36 47.2419C114.836 38.4438 130.749 36.9137 141.485 42.2691C144.169 41.6953 146.661 41.3128 149.345 40.5477C161.998 37.105 174.651 32.8972 188.071 33.6622C190.371 33.8535 192.864 34.0448 195.548 34.4273C199.19 45.138 208.584 56.04 217.02 61.5867C218.745 62.543 220.471 62.9255 222.196 62.7343Z" fill="#FF7200"/>
<path d="M246.352 64.4557C246.352 58.5265 242.326 53.1712 236.958 49.1546C235.041 43.4167 231.59 38.4439 225.072 36.34C222.004 35.3837 218.937 35.3837 216.061 35.5749C210.885 25.2467 204.175 18.5525 189.796 15.8748C179.252 13.9622 170.817 16.2573 164.298 21.9952C159.506 18.3612 154.138 15.8748 146.853 16.2573C137.65 16.8311 130.749 21.4214 125.572 27.7331C119.629 24.0991 113.303 22.1865 105.826 25.438C100.266 27.9244 95.8568 32.5147 92.9811 37.8701C84.1622 37.2963 76.4937 43.2255 69.4003 51.8323C69.2086 52.0236 69.2086 52.2148 69.0169 52.4061C66.1412 54.3187 64.224 56.8052 63.4572 60.4392C55.7886 61.2042 49.6538 69.046 50.0372 77.6529C40.835 82.817 35.6587 96.5879 39.6847 105.96C42.177 111.698 50.9958 122.791 59.6229 125.086C60.5815 127.955 61.9235 130.633 63.8406 132.928C73.618 144.786 88.9551 142.491 99.8827 134.649C111.002 151.48 136.117 146.316 150.303 131.207C157.78 139.622 170.433 139.431 183.278 134.267C190.947 131.207 198.615 125.66 202.449 118.583C215.486 121.261 234.082 109.403 234.849 93.719C242.901 91.0413 250.761 87.5986 251.72 77.8441C251.912 72.4888 249.803 67.8984 246.352 64.4557ZM219.32 71.3412C219.512 74.2101 219.32 76.8878 218.745 79.3742C217.978 80.5218 217.403 82.0519 217.403 83.3908C214.336 90.6588 208.201 96.2054 200.724 100.222C197.081 97.1617 190.372 99.6481 190.18 104.812C182.511 107.49 174.459 109.211 167.558 110.168C140.718 113.61 101.416 117.818 78.2191 99.8394C77.8357 95.4404 72.276 91.6151 67.6749 95.2491C66.3329 96.2054 65.1826 97.353 64.0323 98.6918C60.7732 95.4403 61.3483 91.0413 64.4157 86.0684C66.7163 82.4344 65.1826 78.4179 61.9235 76.6965C61.54 74.4014 63.0738 73.8276 66.5246 74.7839C69.2086 77.0791 73.618 75.7402 75.5351 73.0625C74.5766 71.3412 74.1931 69.4285 74.5766 67.5159C78.4108 68.6635 82.8202 67.8984 86.0794 64.0732C88.7634 60.8217 88.9551 57.3789 92.7893 60.2479C99.3076 65.0295 108.51 60.4392 109.277 52.7886C110.235 43.608 117.329 47.8158 121.738 51.0673C125.956 54.1275 133.816 53.5537 136.5 48.5808C142.251 38.0614 148.195 35.0011 157.013 43.9905C162.956 49.9197 171.2 48.1983 174.843 40.9303C179.252 32.3235 189.221 36.1487 194.014 40.9303C195.164 41.8866 195.931 43.0342 196.698 44.1818C195.931 45.9031 195.74 47.8158 196.123 49.7284C196.698 53.3624 199.382 56.4226 202.641 57.7615C206.284 62.7343 213.185 61.9693 217.403 58.144C217.403 58.7178 217.595 59.2916 217.595 59.6741C217.978 62.5431 219.32 64.4557 221.046 65.7945C220.087 67.5159 219.32 69.4285 219.32 71.3412Z" fill="#FF6196"/>
<path d="M204.175 67.5159C197.657 65.6033 192.289 61.778 187.688 56.9965C178.102 64.647 165.065 66.3684 155.096 59.1004C151.262 64.4557 146.277 68.4723 138.992 70.3849C126.914 73.6364 114.07 70.5762 101.8 67.7072C102.567 73.2538 102.183 78.6092 97.1987 82.6257C92.0225 86.8335 83.7788 89.32 75.5351 90.2763C78.4108 92.7627 82.6285 93.5277 87.2296 93.3365C97.9656 92.5714 105.442 86.0685 111.194 78.0354C125.381 83.5821 144.744 81.6694 153.371 69.6198C159.506 73.2538 166.407 74.4014 172.926 73.0626C175.418 71.915 178.102 70.5762 180.594 68.6635C180.786 69.046 181.169 69.2373 181.553 69.4286C183.086 68.4723 184.428 67.3247 185.77 65.9858C185.962 65.9858 186.346 65.9858 186.537 65.9858C192.672 69.8111 200.724 70.9587 207.817 69.8111C207.051 68.8548 205.9 67.8985 204.175 67.5159Z" fill="#FF4C00"/>
<path d="M230.248 60.8216C229.673 50.6847 220.662 40.5477 210.885 41.504C199.957 27.9243 171.392 19.3175 159.122 32.7059C148.578 28.3069 131.515 27.7331 125.381 34.4273C117.904 31.5583 109.468 32.7059 103.142 39.9739C100.65 42.8429 99.1159 45.9031 98.7325 48.772C88.3799 51.0672 77.4523 57.5701 74.3848 64.2644C73.8097 64.0731 73.2346 63.8818 72.4677 63.8818C68.8251 63.6906 65.3743 65.6032 63.2655 68.4722C60.9649 71.5324 59.8146 75.3576 60.0063 79.3742C52.5295 83.0082 49.2704 93.3364 50.9958 101.369C52.9129 110.168 58.856 112.845 65.3743 112.08C65.1826 118.583 66.7163 124.704 72.276 129.294C75.9185 132.354 80.7114 134.458 85.5042 133.884C88.9551 133.502 91.6391 131.78 94.5148 130.059C97.5822 129.676 100.458 128.911 103.334 127.573C109.468 134.075 118.287 136.371 126.914 135.414C129.79 135.032 150.303 126.425 150.495 126.425C158.93 131.78 170.433 131.015 179.636 127.573C187.496 124.704 192.097 119.348 194.781 112.654C206.475 113.419 218.553 109.02 224.113 97.5442C224.88 96.0141 225.455 94.2927 225.839 92.5713C240.409 92.1888 244.626 65.2207 230.248 60.8216Z" fill="white"/>
<path d="M171.967 131.78C163.915 133.119 156.438 131.972 150.495 128.529C149.537 128.911 147.619 129.676 145.702 130.441C136.692 134.075 129.215 137.136 127.106 137.327C117.712 138.283 108.893 135.606 102.95 129.676C100.458 130.824 97.7739 131.398 94.8982 131.78L94.1313 132.354C91.639 133.884 88.9551 135.414 85.5042 135.606C80.5197 135.988 75.3434 134.267 71.1257 130.633C66.3329 126.425 63.8406 120.878 63.6489 113.802C56.1721 113.993 51.1875 109.785 49.4621 101.752C47.7367 93.7189 50.6124 83.0082 58.4726 78.4179C58.6643 74.4013 59.8146 70.5761 62.1152 67.5159C64.7992 64.0731 68.6334 62.1605 72.4677 62.3518C72.8511 62.3518 73.2346 62.3518 73.4263 62.543C76.8771 56.2313 86.8462 50.1109 97.1987 47.4332C97.7739 44.5643 99.3076 41.6953 101.8 39.0176C107.743 32.3234 116.178 30.0283 124.805 32.706C131.707 26.3943 147.619 26.7768 158.547 30.9846C162.956 26.5855 169.666 24.2904 177.527 24.4816C189.988 24.8642 203.983 31.3671 211.268 39.974C215.294 39.7827 219.512 41.3128 223.154 44.373C227.756 48.1983 230.823 53.9362 231.398 59.6741C237.725 62.1605 241.176 69.046 240.217 77.8441C239.45 85.1121 235.041 92.9539 227.372 94.2927C227.18 94.2927 227.18 94.2927 226.989 94.2927C226.605 95.8228 226.03 97.3529 225.263 98.6918C219.895 109.211 208.968 115.14 195.548 114.567C192.48 121.643 187.112 126.616 180.019 129.294C177.527 130.441 174.651 131.207 171.967 131.78ZM150.495 125.469C150.879 125.469 151.07 125.469 151.454 125.66C159.889 131.015 171.392 129.676 179.252 126.807C186.154 124.13 190.755 119.539 193.631 112.654L194.014 111.698H195.164C207.817 112.463 218.362 107.107 223.154 97.3529C223.921 96.0141 224.305 94.484 224.88 92.5714L225.072 91.4238H226.222C232.932 91.0412 236.958 83.9645 237.725 77.4616C238.492 71.7237 236.766 64.2644 230.056 62.3518L229.098 61.9692V61.0129C228.714 55.6575 226.03 50.3022 221.812 46.6682C218.553 43.9905 214.911 42.6516 211.46 43.0342H210.693L210.118 42.4604C203.408 34.2361 189.988 27.9244 178.102 27.5418C172.926 27.3506 165.64 28.3069 160.656 33.6623L159.889 34.4273L158.93 34.0448C148.578 29.6457 132.474 29.4545 126.914 35.3836L125.764 36.34L124.805 35.9574C116.945 33.0885 109.468 35.0011 104.292 41.1215C101.992 43.7992 100.65 46.4769 100.266 49.1546L100.074 50.1109L99.1159 50.3022C88.7633 52.5973 78.6025 59.1003 75.9185 65.0294L75.3434 66.177L74.1931 65.9858C73.618 65.7945 73.0428 65.7945 72.6594 65.7945C69.592 65.6032 66.7163 67.1333 64.7992 69.811C62.6903 72.4887 61.7318 76.1227 61.7318 79.7567V80.713L60.7732 81.0956C53.6798 84.5383 50.9958 94.2927 52.5295 101.369C54.4466 110.741 61.3483 111.315 65.1826 110.933L66.908 110.741V112.463C66.5246 119.348 68.6334 124.704 73.2346 128.529C76.8771 131.589 81.2865 133.119 85.3125 132.737C87.9965 132.545 90.2971 131.207 92.5976 129.868L93.9396 129.103H94.323C97.1987 128.72 100.074 127.955 102.758 126.807L103.717 126.425L104.484 127.19C109.852 132.737 117.904 135.606 126.914 134.649C128.64 134.458 139.376 130.059 144.552 127.955C148.386 126.042 149.728 125.469 150.495 125.469Z" fill="#231F20"/>
<path d="M78.986 99.4569C75.1517 104.047 76.8771 110.741 81.0948 114.375C85.6959 118.392 92.4059 117.627 96.0485 112.654C96.2402 112.463 96.2402 112.272 96.4319 111.889C89.1468 110.933 82.0534 105.96 78.986 99.4569Z" fill="white"/>
<path d="M224.497 73.2538C224.305 74.9752 223.73 76.5053 222.771 78.0354C220.662 81.0956 217.211 83.0082 213.761 83.9645C214.527 85.3034 216.061 85.8772 217.595 85.6859C219.895 85.4946 222.196 84.7296 224.113 83.1995C226.414 81.4781 227.181 78.6092 226.797 75.7402C226.414 74.7839 225.647 73.6363 224.497 73.2538Z" fill="white"/>
<path d="M270.124 58.144C270.508 59.2916 270.508 60.4392 270.316 61.3955C269.357 65.7945 263.798 69.4285 258.622 69.2373C250.761 69.046 247.502 62.7343 248.269 56.4226C247.119 55.4663 246.16 54.1275 245.585 52.5974C244.818 50.876 244.626 49.1546 244.051 47.4333C244.051 47.242 244.051 47.242 244.051 47.0507C238.875 46.2857 237.725 40.1653 240.409 36.9138C241.559 35.5749 243.093 34.8099 245.393 35.0011C245.585 35.0011 245.777 35.0011 245.968 35.1924C251.72 32.5147 256.321 36.1487 257.663 41.1216C261.114 41.1216 264.565 41.8866 267.249 43.7993C272.617 47.4333 272.233 53.1712 270.124 58.144Z" fill="white"/>
<path d="M261.114 70.5761C260.347 70.7674 259.388 70.7674 258.43 70.7674C254.787 70.5761 251.72 69.2373 249.611 66.9421C247.502 64.4557 246.352 61.013 246.735 56.9964C245.585 55.8488 244.818 54.7013 244.243 53.1712C243.668 52.0236 243.476 50.876 243.284 49.7284C243.093 49.1546 243.093 48.7721 242.901 48.1983C240.6 47.6245 238.875 46.0944 238.108 43.7993C237.15 41.1216 237.533 38.0614 239.258 35.9575C240.792 34.0448 243.093 33.0885 245.777 33.471C245.968 33.471 245.968 33.471 246.16 33.471C248.844 32.3235 251.336 32.3235 253.637 33.471C255.938 34.6186 257.855 36.7225 259.005 39.4002C262.839 39.5915 265.907 40.5478 268.399 42.2691C273.383 45.7119 274.725 51.2585 271.85 57.9527C272.041 59.1003 272.041 60.2479 271.85 61.3955C270.7 66.1771 266.098 69.8111 261.114 70.5761ZM243.668 36.7225C242.709 36.9138 242.134 37.2963 241.559 38.0614C240.6 39.4002 240.217 41.3128 240.984 43.0342C241.367 43.9905 242.326 45.3294 244.435 45.7119L245.202 45.9032L245.585 46.6682C245.777 46.8595 245.777 47.242 245.777 47.4333C245.968 48.007 246.16 48.7721 246.352 49.5372C246.544 50.4935 246.735 51.4498 247.119 52.4061C247.694 53.7449 248.461 54.8925 249.419 55.6576L249.994 56.2314V56.9964C249.611 60.2479 250.378 63.3081 252.103 65.412C253.637 67.1334 255.938 68.0897 258.813 68.281C263.223 68.4722 268.207 65.2207 268.974 61.5867C269.166 60.8217 269.166 59.8654 268.974 59.1003L268.782 58.5265L268.974 57.9527C270.7 54.1275 271.658 48.7721 266.674 45.3294C264.565 43.7993 261.689 43.0342 257.855 43.0342H256.704L256.321 41.8866C255.554 39.4002 254.212 37.6788 252.295 36.7225C250.57 35.9575 248.844 35.9575 246.735 36.9138L246.352 37.105L245.777 36.9138C245.585 36.9138 245.393 36.9138 245.393 36.9138C244.626 36.5312 244.051 36.5313 243.668 36.7225Z" fill="#231F20"/>
<path d="M33.7416 53.1711C33.9333 53.9362 34.125 54.7012 34.125 55.6575C34.125 56.2313 34.125 56.8051 33.9333 57.1876C33.7416 58.144 33.3582 59.2915 32.9747 60.2479C31.8245 62.543 30.099 64.6469 28.3736 65.9858C26.6482 67.3246 24.7311 68.0896 22.6222 68.0896C22.6222 69.2372 22.0471 70.1936 21.4719 71.1499C22.4305 74.2101 21.2802 78.2266 17.0625 78.9917C14.9537 79.3742 12.8448 79.3742 10.9277 78.8004C5.17628 77.4616 0.95858 72.8712 1.53372 65.9858C1.91715 62.3518 3.45086 59.4828 5.5597 57.7614C4.60114 53.7449 4.79285 49.7284 7.66855 45.5206C11.6945 39.974 17.4459 36.7225 23.3891 38.6351C25.4979 37.105 27.9902 35.9574 30.8659 35.0011C31.8245 34.6186 32.9747 34.8098 33.7416 35.1924C34.7002 35.5749 35.6587 36.34 36.4256 37.105C42.7521 42.8429 41.0267 50.1109 33.7416 53.1711Z" fill="white"/>
<path d="M17.2542 80.3305C14.9537 80.7131 12.6531 80.7131 10.5443 80.1393C3.64257 78.6092 -0.575129 72.8713 1.18464e-05 65.7945C0.383439 62.3518 1.72543 59.2916 4.026 56.9964C3.45085 53.5537 3.25914 49.1546 6.51827 44.373C11.1194 37.8701 17.2542 35.1924 23.1973 36.5312C25.3062 35.1924 27.6068 34.0448 30.4825 33.0885C31.8245 32.706 33.1664 32.706 34.5084 33.2798C35.467 33.6623 36.6173 34.4273 37.5759 35.3837C40.835 38.4439 42.3687 42.2691 41.7936 45.9031C41.2184 49.1546 38.9179 51.8323 35.6587 53.5537C35.6587 54.1275 35.8504 54.7013 35.8504 55.0838C35.8504 55.6576 35.8504 56.4226 35.6587 56.9964C35.467 57.9527 35.0836 59.1003 34.5084 60.2479C33.3582 62.543 31.6327 64.8382 29.5239 66.5596C27.7985 67.8984 26.073 68.6635 24.1559 68.8547C23.9642 69.6198 23.7725 70.1936 23.3891 70.7674C23.7725 72.68 23.5808 74.7839 22.6222 76.5053C21.0885 78.8004 19.3631 79.948 17.2542 80.3305ZM18.4045 39.5915C14.9537 40.1652 11.6945 42.4604 9.01055 46.2857C6.70998 49.5371 6.13484 52.7886 7.09341 57.3789L7.28512 58.3353L6.51827 58.909C4.40942 60.6304 3.25914 63.1168 2.87571 66.177C2.49229 71.7237 5.5597 76.1227 11.1194 77.4616C12.8448 77.8441 14.762 77.8441 16.6791 77.6528C18.0211 77.4616 18.9796 76.6965 19.5548 75.7402C20.3216 74.5926 20.3216 73.0625 19.9382 71.7237L19.7465 70.7674L20.3216 70.1936C20.8968 69.6198 21.0885 68.8547 21.0885 68.0897L21.2802 66.7508H22.6222C24.3476 66.7508 25.8813 66.1771 27.415 65.0295C29.1405 63.6906 30.6742 61.778 31.6327 59.8654C32.0162 58.909 32.3996 58.144 32.5913 57.3789C32.5913 56.4226 32.5913 56.0401 32.5913 55.4663C32.5913 54.8925 32.5913 54.1275 32.2079 53.5537L31.8245 52.2148L33.1664 51.641C36.2339 50.3022 38.151 48.1983 38.7261 45.7119C39.1096 43.0342 37.9593 40.3565 35.467 38.0613C34.7002 37.2963 33.9333 36.9138 33.1664 36.5312C32.3996 36.1487 31.8245 36.1487 31.2493 36.34C28.3736 37.2963 26.2648 38.2526 24.3476 39.7827L23.7725 40.1652L23.0056 39.974C21.4719 39.4002 19.9382 39.4002 18.4045 39.5915Z" fill="#231F20"/>
<path d="M215.294 134.458C215.103 135.797 214.719 136.945 214.336 138.092C215.486 141.535 216.445 144.786 213.377 148.42C210.885 151.481 207.626 152.437 204.367 151.863C203.408 153.393 202.066 154.541 200.149 155.306C196.315 156.836 192.864 155.497 190.563 153.011C185.77 153.393 180.211 152.437 178.869 147.081C178.869 146.89 178.869 146.89 178.869 146.699C178.294 143.256 180.211 141.344 183.662 140.961C185.962 140.77 188.454 141.152 190.371 139.622C192.672 137.901 193.247 134.458 196.89 135.032C198.232 135.223 199.765 135.414 201.107 135.032C201.107 134.458 200.916 133.884 200.916 133.502C200.724 129.103 204.175 125.277 208.968 126.808C209.735 127.19 210.693 127.381 211.46 127.764C212.61 128.146 213.569 128.911 214.144 129.868C215.103 131.589 215.486 133.119 215.294 134.458Z" fill="white"/>
<path d="M198.423 157.601C195.356 158.175 192.289 157.218 189.988 154.923C183.278 155.306 178.677 152.819 177.335 148.038C177.335 147.847 177.143 147.655 177.143 147.464C176.76 145.36 177.143 143.83 178.102 142.491C179.06 141.152 180.978 140.387 183.086 140.196C183.662 140.196 184.237 140.196 184.812 140.196C186.537 140.196 188.071 140.005 189.221 139.24C189.796 138.857 190.372 138.092 190.755 137.518C191.905 135.988 193.631 133.884 196.89 134.458C197.657 134.649 198.423 134.649 199.19 134.649C199.19 134.649 199.19 134.458 199.19 134.267C198.999 131.398 200.341 128.72 202.449 127.19C204.367 125.851 206.859 125.469 209.159 126.425C209.735 126.616 210.118 126.808 210.693 126.999L211.652 127.381C212.994 127.764 214.144 128.72 215.103 130.059C216.253 131.589 216.828 133.502 216.445 135.223C216.253 136.371 215.869 137.518 215.486 138.666C216.445 141.917 217.595 145.743 214.144 149.95C211.652 153.011 208.393 154.349 204.75 154.158C203.6 155.688 202.258 156.645 200.532 157.41C199.957 157.218 199.19 157.41 198.423 157.601ZM182.895 143.065C182.128 143.256 181.169 143.447 180.594 144.213C180.211 144.786 180.019 145.743 180.211 146.89V147.081C181.553 152.054 187.688 152.054 190.372 151.863H191.138L191.714 152.437C192.672 153.584 195.548 156.071 199.574 154.349C200.916 153.776 202.066 152.819 203.025 151.481L203.6 150.715L204.558 150.907C207.626 151.289 210.31 150.333 212.227 147.847C214.527 144.786 213.952 142.491 212.802 138.857L212.61 138.283L212.802 137.71C213.185 136.562 213.569 135.414 213.761 134.267C213.952 133.31 213.569 132.163 212.802 131.398C212.227 130.633 211.652 130.059 210.885 129.868L209.926 129.485C209.351 129.294 208.776 129.103 208.393 128.911C206.859 128.338 205.517 128.529 204.367 129.294C203.025 130.25 202.258 132.163 202.258 134.076C202.258 134.458 202.258 135.032 202.449 135.414L202.641 136.753L201.299 137.136C199.957 137.518 198.423 137.518 196.315 137.136C194.973 136.944 194.398 137.327 193.056 139.048C192.48 139.813 191.714 140.77 190.947 141.344C189.03 142.874 186.921 142.874 184.812 142.874C184.237 142.874 183.853 142.874 183.278 142.874C183.47 142.874 183.278 142.874 182.895 143.065Z" fill="#231F20"/>
<path d="M91.8308 110.168C88.1882 113.037 81.67 115.523 72.276 118.392C70.3589 118.966 67.2915 119.731 63.4572 120.496C57.8975 121.644 54.4467 122.026 52.913 121.261C51.1875 120.305 48.1201 113.419 43.7107 100.413C39.3013 87.4074 37.5759 79.9481 38.5344 78.2267C39.3013 76.8879 41.0267 75.549 43.9024 74.2102C48.1201 72.2976 52.5295 70.3849 57.3224 69.0461C70.1672 65.2208 79.3694 64.8383 84.9291 67.3247C88.1882 68.8548 90.4888 71.915 91.6391 76.3141C92.5976 80.3306 91.6391 83.9646 88.3799 87.2161C93.5562 88.9375 96.6236 91.9977 97.5822 96.2055C98.9242 101.752 97.0071 106.342 91.8308 110.168ZM66.908 79.7568C65.7578 80.7132 65.3743 82.052 65.9495 83.7734C66.5246 85.686 67.4832 86.6423 68.8252 86.8336C69.592 87.0248 71.3174 86.6423 73.4263 86.0685C77.644 84.9209 79.3694 82.8171 78.6026 80.1394C77.8357 77.4617 75.3434 76.6966 71.1257 77.8442C69.2086 78.6093 67.6749 79.183 66.908 79.7568ZM75.1517 104.812C76.1103 104.812 77.644 104.621 80.1363 103.856C83.9705 102.708 85.5042 100.796 84.7374 97.7356C83.9705 95.0579 81.67 94.2928 77.644 95.2492C75.3434 95.823 73.8097 96.3967 72.8512 97.1618C71.7009 98.3094 71.5092 99.6482 72.0843 101.752C72.4677 103.665 73.618 104.621 75.1517 104.812Z" fill="#231F20"/>
<path d="M60.3898 122.6C56.1721 123.365 53.6798 123.365 52.1461 122.6C51.1875 122.026 48.887 120.878 42.177 100.796C35.2753 80.5218 36.6173 78.418 37.1924 77.2704C38.151 75.549 40.0681 74.2102 43.3273 72.6801C47.7367 70.5762 52.3378 68.8548 56.9389 67.5159C69.9754 63.4994 79.5611 63.1169 85.5042 65.9858C89.1468 67.7072 91.6391 71.1499 92.9811 76.1228C93.9396 79.9481 93.1728 83.5821 90.8722 86.8335C95.2816 88.7462 97.9656 91.8064 99.1159 96.0142C100.65 101.943 98.5407 107.299 92.7893 111.507C89.1468 114.375 82.6285 117.053 72.8511 119.922C70.7423 120.496 67.6749 121.261 64.0323 122.026C62.4986 122.217 61.54 122.6 60.3898 122.6ZM68.25 67.8985C64.9909 68.4723 61.54 69.2373 57.7058 70.3849C53.2964 71.7237 48.887 73.4451 44.4775 75.549C41.2184 77.0791 40.0681 78.2267 39.6847 78.9917C39.493 79.3743 38.9179 82.2432 44.861 100.031C50.8041 117.818 53.1047 119.922 53.4881 120.113C54.2549 120.496 56.3638 120.687 63.0738 119.157C66.7163 118.392 69.7837 117.627 71.7009 117.053C81.0948 114.184 87.4214 111.698 90.6805 109.02C95.4733 105.386 97.1987 101.37 95.8568 96.588C94.8982 92.7627 92.2142 90.2763 87.6131 88.7462L85.5042 87.9811L87.0379 86.2597C89.7219 83.3908 90.6805 80.1393 89.9136 76.6966C88.9551 72.68 87.0379 70.0024 84.1622 68.6635C80.7114 66.9422 75.3434 66.7509 68.25 67.8985ZM77.0688 106.151C76.302 106.342 75.5351 106.342 74.96 106.342C73.4263 106.151 71.3174 105.386 70.3589 102.135C69.592 99.4569 69.9754 97.353 71.5091 96.0142C72.4677 95.0579 74.1931 94.2928 76.8771 93.719C83.3954 92.1889 85.3125 95.4404 85.8877 97.353C86.4628 99.6482 86.6545 103.473 80.328 105.386C78.986 105.769 78.0274 105.96 77.0688 106.151ZM78.6025 96.3967C78.4108 96.3967 78.0274 96.588 77.644 96.588C74.96 97.1618 74.0014 97.9268 73.618 98.1181C73.2346 98.6919 72.8511 99.4569 73.4263 101.37C74.0014 103.091 74.5766 103.282 75.3434 103.282C75.7268 103.282 76.8771 103.282 79.7528 102.517C83.9705 101.37 83.5871 99.2657 83.2037 98.3093C83.012 97.5443 82.4368 95.8229 78.6025 96.3967ZM70.934 88.1724C69.9754 88.3636 69.2086 88.3636 68.6334 88.1724C67.2914 87.9811 65.566 87.2161 64.6075 83.9646C64.0323 81.6694 64.4157 79.7568 65.9495 78.418C66.908 77.6529 68.4417 77.0791 70.934 76.3141C74.0014 75.3577 76.302 75.549 78.0274 76.5053C79.1777 77.0791 79.9445 78.2267 80.328 79.5655C81.0948 82.052 80.5197 85.4947 74.0014 87.4073C72.6594 87.7899 71.7009 88.1724 70.934 88.1724ZM67.8666 80.9044C67.4832 81.2869 66.908 81.8607 67.4832 83.3908C68.0583 85.3034 68.8252 85.3034 69.0169 85.3034C69.4003 85.3034 70.1671 85.3034 73.0429 84.5384C78.0274 83.1995 77.4523 81.2869 77.2605 80.5218C77.0688 79.7568 76.6854 79.3743 76.302 79.183C75.7268 78.8005 74.3848 78.6092 71.5091 79.3743C69.0169 80.1393 68.25 80.7131 67.8666 80.9044Z" fill="#231F20"/>
<path d="M121.546 52.215C124.997 51.45 128.256 51.8325 131.132 53.7451C133.433 55.2752 137.65 59.6743 143.21 66.9423C151.645 78.0356 156.438 86.6424 157.972 92.3803C158.739 95.6318 158.164 96.5881 155.288 98.1182C153.563 99.0745 150.687 99.8396 146.661 100.605C138.992 102.135 134.391 101.752 133.049 99.457C132.666 98.692 132.091 97.5444 131.132 96.2056C130.365 95.058 129.215 94.6755 128.065 94.8667C125.956 95.2492 124.997 95.4405 122.888 96.0143C122.122 96.0143 120.588 96.3968 118.671 96.9706C117.329 97.3531 116.562 98.692 116.37 101.178C116.178 104.621 115.412 106.151 112.152 107.108C106.976 108.638 103.909 108.255 103.142 105.769C102.375 102.709 102.567 96.9706 103.717 88.3638C104.867 80.1395 106.593 72.8714 108.51 66.1772C109.852 61.7782 111.194 58.9092 112.344 57.1879C114.07 54.7014 116.178 53.1713 118.862 52.5975C120.013 52.5975 120.588 52.5975 121.546 52.215ZM117.137 87.5987C116.945 88.7463 118.287 88.9376 121.163 88.3638C124.039 87.79 124.997 87.0249 124.422 86.0686C121.546 81.6696 119.821 79.5657 119.246 79.5657C118.287 79.7569 117.712 82.4346 117.137 87.5987Z" fill="#231F20"/>
<path d="M109.66 109.403C107.168 109.785 105.251 109.594 103.909 108.829C102.95 108.255 102.183 107.299 101.8 106.151C100.841 102.9 101.033 96.7793 102.375 88.1724C103.525 79.7569 105.251 72.4889 107.168 65.7946C108.702 61.2043 109.852 58.1441 111.194 56.4227C113.111 53.7451 115.603 51.8324 118.479 51.2586L120.971 50.6848C124.997 49.7285 128.64 50.3023 131.707 52.4062C134.391 54.1276 138.801 58.9092 144.169 65.9859C152.412 76.6967 157.588 85.686 159.122 91.9977C160.081 95.823 159.314 97.5444 155.671 99.457C153.754 100.413 150.879 101.37 146.661 102.135C138.034 103.856 133.241 103.282 131.515 100.413L131.324 100.031C130.94 99.2657 130.365 98.3094 129.79 97.3531C129.407 96.7793 128.831 96.3968 128.065 96.588C125.956 96.9706 124.997 97.1618 122.888 97.7356C121.93 97.9269 120.396 98.1181 118.671 98.6919C118.096 98.8832 117.712 99.8395 117.52 101.561C117.329 105.386 116.562 107.49 112.152 108.829C111.577 109.02 110.619 109.211 109.66 109.403ZM121.93 53.7451L119.438 54.3188C117.329 54.8926 115.412 56.2315 113.878 58.3354C112.919 59.8655 111.769 62.5432 110.427 66.9422C108.51 73.4452 106.784 80.5219 105.634 88.7462C104.1 99.0745 104.484 103.474 105.059 105.386C105.251 105.769 105.442 105.96 105.634 106.151C106.209 106.534 107.935 106.916 112.152 105.769C114.645 105.004 115.22 104.239 115.22 101.37C115.412 97.1618 117.329 96.0142 118.479 95.823C120.396 95.2492 121.93 95.0579 122.888 94.8667C124.805 94.4841 125.956 94.2929 128.065 93.7191C129.982 93.3366 131.707 94.1016 132.666 95.6317C133.433 96.7793 134.008 97.9269 134.391 98.6919L134.583 99.0745C135.158 99.8395 137.267 101.178 146.469 99.2657C151.262 98.3094 153.563 97.5444 154.521 96.9706C156.822 95.6317 157.205 95.2492 156.438 92.7628C155.288 88.555 152.029 80.9044 142.06 67.8985C134.775 58.5266 131.324 55.849 130.365 55.0839C127.873 53.5538 124.997 52.98 121.93 53.7451ZM120.396 90.0851C118.287 90.4676 116.945 90.2763 116.178 89.5113C115.603 88.9375 115.412 88.3637 115.412 87.5987C116.37 79.1831 117.329 78.418 118.671 78.0355C119.629 77.8442 120.588 77.653 125.572 85.1122C125.956 85.8773 126.147 86.6423 125.764 87.4074C125.189 88.555 124.039 89.32 121.355 89.8938C121.163 89.8938 120.78 89.8938 120.396 90.0851ZM118.671 87.2161C119.054 87.2161 119.629 87.2161 120.78 86.8336C121.738 86.6423 122.313 86.4511 122.697 86.2598C121.163 83.7734 120.013 82.4346 119.438 81.6695C119.246 82.8171 119.054 84.3472 118.671 87.2161Z" fill="#231F20"/>
<path d="M168.516 45.3295C169.283 45.1382 169.666 45.1382 170.433 45.1382C173.501 44.7557 175.993 45.712 178.294 47.6246C180.594 49.7285 181.744 50.8761 184.045 52.98C184.62 53.5538 185.195 53.7451 185.579 53.5538C185.962 53.5538 187.688 51.2586 190.947 46.8596C193.247 43.7994 196.315 42.078 199.957 41.8867C201.108 41.6955 201.683 41.6955 202.833 41.6955C208.393 41.313 212.419 45.3295 214.719 53.7451C217.595 64.0733 219.512 74.5928 220.854 85.686C221.237 88.1725 220.279 90.0851 218.553 91.2327C217.02 92.189 215.103 92.7628 212.227 92.7628C210.118 92.954 209.159 92.954 207.051 93.1453C203.983 93.3366 201.683 92.954 200.149 92.189C198.615 91.2327 197.273 89.32 196.698 86.2598C195.164 79.1831 194.206 75.7403 193.822 75.7403C193.631 75.7403 193.439 75.9316 193.056 76.5054C192.48 77.4617 190.947 79.7569 188.838 83.0084C187.688 84.7297 186.537 85.686 185.387 85.8773C184.237 86.0686 182.895 85.3035 181.553 83.9647C179.444 81.8608 178.294 80.7132 176.185 78.6093C175.993 78.418 175.801 78.2268 175.61 78.2268C175.034 78.2268 174.843 80.7132 175.034 85.686C175.034 86.8336 175.226 88.555 175.226 90.6589C175.226 92.954 174.651 94.4841 173.501 95.4405C172.542 96.2055 170.817 96.7793 168.324 96.9706C165.832 97.1618 163.915 96.7793 162.957 95.4405C162.19 94.4841 161.615 92.7628 161.231 89.8938C159.889 79.5656 159.506 69.4287 160.081 59.1004C160.656 50.6849 163.532 45.9033 168.516 45.3295Z" fill="#231F20"/>
<path d="M214.911 94.1016C214.144 94.2929 213.185 94.2929 212.227 94.2929C210.118 94.4841 209.159 94.4841 207.051 94.6754C203.408 94.8666 200.916 94.4841 199.382 93.3365C197.465 91.9977 195.931 89.7025 195.164 86.6423C194.781 84.7297 193.822 81.0957 193.247 78.8005C193.056 79.1831 192.864 79.3743 192.672 79.7568C191.905 80.9044 191.138 82.2433 189.988 83.7734C188.646 85.8773 187.112 87.0248 185.387 87.2161C183.662 87.4074 182.128 86.6423 180.211 84.921C178.485 83.1996 177.527 82.2433 176.185 80.9044C176.185 81.8607 176.185 83.3909 176.185 85.686C176.185 86.8336 176.376 88.555 176.376 90.8501C176.376 93.5278 175.61 95.6317 174.076 96.7793C172.926 97.7356 171.008 98.3094 168.133 98.6919C164.874 99.0744 162.765 98.3094 161.423 96.588C160.464 95.4404 159.889 93.3365 159.506 90.4676C158.164 79.3743 157.78 69.2374 158.355 59.4829C159.122 47.6246 163.915 44.5644 168.133 43.9906L170.05 43.7993C173.501 43.4168 176.568 44.3731 179.06 46.6683C181.361 48.7722 182.511 49.9198 184.812 52.0237C185.387 51.4499 186.537 49.9198 189.221 46.0945C191.714 42.6518 195.164 40.7391 199.382 40.3566L202.258 40.1653C208.584 39.5916 213.185 44.1819 215.678 53.3625C218.362 63.4995 220.471 74.2102 221.813 85.4947C222.196 88.555 221.237 91.0414 218.937 92.5715C218.17 93.1453 216.828 93.7191 214.911 94.1016ZM193.631 74.2102C195.548 74.0189 195.74 74.784 198.232 85.8773C198.807 88.3637 199.765 89.8938 201.107 90.8501C202.258 91.6152 204.175 91.8064 207.051 91.6152C209.159 91.4239 210.118 91.4239 212.227 91.2326C214.719 91.0414 216.636 90.6589 217.787 89.8938C219.129 89.1287 219.704 87.7899 219.32 85.686C217.978 74.5927 215.869 63.882 213.185 53.9363C211.077 46.0945 207.626 42.6518 203.025 43.0343L200.149 43.2256C196.89 43.4168 194.206 44.9469 192.289 47.6246C187.304 54.5101 186.729 54.7014 186.154 54.8926C185.387 55.0839 184.237 54.7014 183.278 53.9363C180.978 51.8324 179.827 50.6848 177.527 48.5809C175.61 46.8596 173.501 46.0945 170.817 46.477L168.9 46.6683C164.49 47.2421 162.19 51.4499 161.806 59.4829C161.231 69.0461 161.615 78.9918 162.956 89.8938C163.34 93.1453 164.107 94.2929 164.298 94.6754C164.49 95.0579 165.257 96.0142 168.324 95.6317C171.2 95.2492 172.159 94.6754 172.734 94.2929C173.501 93.7191 173.884 92.5715 173.884 90.6589C173.884 88.3637 173.692 86.8336 173.692 85.686C173.309 78.6093 173.692 76.8879 175.61 76.5054C176.376 76.5054 176.952 76.8879 177.335 77.0792C179.636 79.3743 180.786 80.3306 182.895 82.6258C183.662 83.3909 184.62 84.1559 185.579 84.1559C186.346 84.1559 187.112 83.3909 187.879 82.052C188.838 80.5219 189.796 79.1831 190.563 78.0355C191.33 76.8879 191.905 76.1228 192.097 75.5491C192.289 74.9753 192.864 74.4015 193.631 74.2102Z" fill="#231F20"/>
<path d="M237.15 79.3743C235.808 79.5656 234.466 79.7568 233.315 79.7568C230.248 79.9481 228.331 78.9918 227.756 77.2704C224.88 70.0024 223.346 62.1606 223.155 53.3625C223.155 44.9469 224.88 40.5479 228.331 39.9741C233.507 39.209 240.217 38.6352 247.694 38.8265C249.611 38.8265 250.57 40.3566 250.57 43.2256C250.57 45.9032 249.994 49.5372 248.844 54.1276C247.31 59.6742 246.544 63.4995 246.352 65.0296C245.968 68.6636 245.777 72.2976 245.968 75.3578C246.352 76.8879 243.284 78.2267 237.15 79.3743ZM240.409 80.1394C244.818 79.9481 247.31 81.6695 248.077 84.921C248.077 85.4947 248.269 85.8773 248.269 86.4511C248.269 89.7025 245.777 91.8064 240.409 92.954C237.533 93.5278 235.041 93.5278 233.124 92.7627C230.631 91.8064 229.481 89.8938 229.289 87.2161C229.098 83.7734 231.782 81.4782 237.341 80.5219C238.492 80.1394 239.45 80.1394 240.409 80.1394Z" fill="#231F20"/>
<path d="M240.025 94.4841C237.15 95.0579 234.657 94.8666 232.548 94.1016C229.481 92.954 227.947 90.6588 227.756 87.2161C227.756 85.3035 228.331 83.0083 230.823 81.2869C227.947 80.9044 226.797 79.3743 226.414 78.0355C223.346 70.3849 221.812 62.1606 221.812 53.5538C221.812 44.1818 223.921 39.4003 228.331 38.6352C234.274 37.6789 240.984 37.2964 248.077 37.4876C249.611 37.4876 252.487 38.2527 252.487 43.2255C252.487 46.0945 251.912 49.7285 250.761 54.5101C249.419 59.4829 248.461 63.4994 248.269 65.2208C247.886 68.8548 247.694 72.4888 247.886 75.3578C247.886 76.8879 246.927 78.0355 244.435 79.183C248.077 80.3306 249.228 83.0083 249.611 84.7297V84.9209C249.611 85.4947 249.803 86.0685 249.803 86.451C249.803 89.32 248.269 92.954 240.792 94.4841C240.409 94.2928 240.217 94.4841 240.025 94.4841ZM237.533 81.8607C230.44 83.0083 230.631 86.0685 230.631 87.0248C230.823 89.1287 231.59 90.4676 233.507 91.2326C235.232 91.8064 237.341 91.9977 239.834 91.4239C246.544 90.085 246.544 87.4074 246.544 86.451C246.544 86.0685 246.544 85.686 246.352 85.3035C245.968 83.5821 245.01 81.4782 240.217 81.4782C239.642 81.6695 238.683 81.6695 237.533 81.8607ZM228.714 41.5042C225.455 42.078 224.688 48.3896 224.88 53.5538C224.88 61.7781 226.414 69.6199 229.289 76.8879C229.864 78.2267 231.782 78.418 233.507 78.418C234.657 78.418 235.808 78.2267 236.958 78.0355C244.051 76.6966 244.818 75.549 244.818 75.3578C244.626 72.4888 244.818 68.8548 245.202 64.8383C245.393 62.9257 246.352 58.9091 247.694 53.745C248.844 49.346 249.419 45.9032 249.419 43.2255C249.419 40.3566 248.461 40.3566 247.886 40.3566C240.984 40.1653 234.466 40.5478 228.714 41.5042Z" fill="#231F20"/>
<path d="M92.2142 117.053C88.5716 119.922 82.0534 122.409 72.6594 125.278C70.7423 125.851 67.6749 126.616 63.8406 127.381C58.2809 128.529 54.83 128.912 53.2963 128.146C51.7626 127.19 48.5035 120.305 44.0941 107.108C39.6847 94.1016 37.9593 86.6423 38.9178 84.921C39.6847 83.5821 41.4101 82.2433 44.2858 80.9044C48.5035 78.9918 52.9129 77.0791 57.7058 75.7403C70.5506 71.915 79.7528 71.5325 85.3125 74.0189C88.5716 75.549 90.8722 78.6093 92.0225 83.0083C92.981 87.0248 92.0225 90.6588 88.7633 93.9103C93.9396 95.6317 97.007 98.6919 97.9656 102.9C99.4993 108.446 97.3904 113.037 92.2142 117.053ZM67.4831 86.6423C66.3329 87.5986 65.9494 88.9375 66.5246 90.6589C67.0997 92.5715 68.0583 93.5278 69.4003 93.7191C70.1671 93.9103 71.8925 93.5278 74.0014 92.954C78.2191 91.8064 79.9445 89.7025 79.1777 87.0248C78.4108 84.3472 75.9185 83.5821 71.7008 84.7297C69.592 85.3035 68.25 86.0685 67.4831 86.6423ZM75.5351 111.507C76.4937 111.507 78.0274 111.315 80.5197 110.55C84.3539 109.403 85.8876 107.49 85.1208 104.43C84.3539 101.752 82.0534 100.987 78.0274 101.943C75.7268 102.517 74.1931 103.091 73.2345 103.856C72.0843 105.004 71.8925 106.342 72.4677 108.446C73.0428 110.359 74.0014 111.507 75.5351 111.507Z" fill="#FFDD00"/>
<path d="M60.9649 129.485C56.7472 130.25 54.2549 130.25 52.7212 129.485C51.7627 128.911 49.4621 127.764 42.7521 107.681C35.8504 87.4073 37.1924 85.3034 37.7676 84.1559C38.7261 82.4345 40.6433 81.0957 43.9024 79.5655C48.3118 77.4616 52.9129 75.7403 57.5141 74.4014C70.5506 70.3849 80.1362 70.0024 86.0794 72.8713C89.7219 74.5927 92.2142 78.0354 93.5562 83.0083C94.5148 86.8336 93.7479 90.4676 91.4473 93.719C95.8567 95.6317 98.5407 98.6919 99.691 102.9C101.225 108.829 99.1159 114.184 93.3645 118.392C89.7219 121.261 83.3954 123.939 73.4263 126.808C71.3174 127.381 68.25 128.146 64.6075 128.911C63.0737 129.103 61.9235 129.294 60.9649 129.485ZM68.8251 74.5927C65.566 75.1665 62.1152 75.9315 58.2809 77.0791C53.8715 78.418 49.4621 80.1393 45.0527 82.2432C41.7936 83.7733 40.6433 84.9209 40.2598 85.686C40.0681 86.0685 39.493 88.9374 45.4361 106.725C51.3792 124.512 53.6798 126.616 54.0632 126.808C54.8301 127.19 56.9389 127.381 63.6489 125.851C67.2914 125.086 70.3589 124.321 72.276 123.747C81.67 120.878 87.9965 118.392 91.2556 115.714C96.0485 112.08 97.7739 108.064 96.4319 103.282C95.4733 99.4569 92.7893 96.9705 88.1882 95.4404L85.8876 94.6753L87.4214 92.954C90.1053 90.085 91.0639 86.8335 90.2971 83.3908C89.3385 79.3743 87.4214 76.6966 84.5457 75.3578C81.0948 73.6364 75.7268 73.4451 68.8251 74.5927ZM77.4523 112.845C76.6854 113.037 75.9185 113.037 75.3434 113.037C73.8097 112.845 71.7009 112.08 70.7423 108.829C69.9754 106.151 70.3589 104.047 71.8926 102.708C72.8511 101.752 74.5765 100.987 77.2605 100.413C83.7788 98.8831 85.6959 102.135 86.2711 104.047C86.8462 106.342 87.0379 110.168 80.7114 112.08C79.5611 112.463 78.4108 112.654 77.4523 112.845ZM79.1777 103.282C78.986 103.282 78.6025 103.473 78.2191 103.473C75.5351 104.047 74.5766 104.812 74.1931 105.004C73.8097 105.386 73.2346 106.151 73.8097 108.064C74.3848 109.785 74.96 109.976 75.7268 109.976C76.1103 109.976 77.2605 109.976 80.1362 109.211C84.3539 108.064 83.9705 105.96 83.5871 105.004C83.3954 104.239 83.0119 102.517 79.1777 103.282ZM71.5091 95.0579C70.5506 95.2491 69.7837 95.2491 69.2086 95.0579C67.8666 94.8666 66.1412 94.1016 65.1826 90.8501C64.6075 88.5549 64.9909 86.6423 66.5246 85.3034C67.4832 84.5384 69.0169 83.9646 71.5091 83.1995C74.5765 82.2432 76.8771 82.4345 78.6025 83.3908C79.7528 83.9646 80.5197 85.1122 80.9031 86.451C81.67 88.9374 81.0948 92.3802 74.5766 94.2928C73.2346 94.6753 72.276 94.8666 71.5091 95.0579ZM68.4417 87.7899C68.0583 88.1724 67.4832 88.7462 68.0583 90.2763C68.6334 92.1889 69.4003 92.1889 69.592 92.1889C69.9754 92.1889 70.7423 92.1889 73.618 91.4239C78.6025 90.085 78.0274 88.1724 77.8357 87.4073C77.644 86.6423 77.2605 86.2598 76.8771 86.0685C76.302 85.686 74.96 85.4947 72.0843 86.2598C69.592 87.0248 68.6334 87.4073 68.4417 87.7899Z" fill="#231F20"/>
<path d="M122.122 59.1004C125.572 58.3353 128.831 58.7179 131.707 60.6305C134.008 62.1606 138.225 66.5596 143.785 73.8277C152.221 84.9209 157.013 93.5278 158.547 99.2657C159.314 102.517 158.739 103.473 155.863 105.004C154.138 105.96 151.262 106.725 147.236 107.49C139.567 109.02 134.966 108.638 133.624 106.342C133.241 105.577 132.666 104.43 131.707 103.091C130.94 101.943 129.79 101.561 128.64 101.752C126.531 102.135 125.572 102.326 123.464 102.9C122.697 102.9 121.163 103.282 119.246 103.856C117.904 104.239 117.137 105.577 116.945 108.064C116.754 111.507 115.987 113.037 112.728 113.993C107.551 115.523 104.484 115.141 103.717 112.654C102.95 109.594 103.142 103.856 104.292 95.2491C105.442 87.0248 107.168 79.7568 109.085 73.0626C110.427 68.6635 111.769 65.7946 112.919 64.0732C114.645 61.5868 116.754 60.0567 119.438 59.4829C120.588 59.4829 120.971 59.2916 122.122 59.1004ZM117.52 94.4841C117.329 95.6317 118.671 95.8229 121.546 95.2491C124.422 94.6754 125.381 93.9103 124.805 92.954C121.93 88.5549 120.204 86.451 119.629 86.451C118.862 86.451 118.096 89.32 117.52 94.4841Z" fill="#FFDD00"/>
<path d="M110.235 116.288C107.743 116.671 105.826 116.479 104.484 115.714C103.525 115.14 102.758 114.184 102.375 113.037C101.416 109.785 101.608 103.665 102.95 95.0578C104.1 86.6422 105.826 79.3742 107.743 72.68C109.277 68.0897 110.427 65.0295 111.769 63.3081C113.686 60.6304 116.178 58.7178 119.054 58.144L121.546 57.5702C125.572 56.6139 129.215 57.1877 132.282 59.2916C134.966 61.013 139.376 65.6033 144.744 72.8713C152.987 83.582 158.164 92.5714 159.697 98.8831C160.656 102.708 159.889 104.43 156.246 106.342C154.329 107.299 151.454 108.255 147.236 109.02C138.609 110.741 133.816 110.168 132.091 107.299L132.282 106.916C131.899 106.151 131.324 105.195 130.749 104.238C130.365 103.665 129.79 103.282 129.023 103.473C126.914 103.856 125.956 104.047 123.847 104.621C122.888 104.812 121.355 105.004 119.629 105.577C119.054 105.769 118.671 106.725 118.479 108.446C118.287 112.272 117.52 114.375 113.111 115.714C112.152 115.906 111.194 116.097 110.235 116.288ZM122.313 60.6304L119.821 61.2042C117.712 61.778 115.795 63.1169 114.261 65.2207C113.303 66.7509 112.152 69.4285 110.81 73.8276C108.893 80.3305 107.168 87.4073 106.018 95.6316C104.484 105.96 104.867 110.359 105.442 112.272C105.634 112.654 105.826 112.845 106.018 113.037C106.593 113.419 108.318 113.802 112.536 112.654C115.028 111.889 115.603 111.124 115.603 108.255C115.795 104.047 117.712 102.9 118.862 102.708C120.78 102.135 122.313 101.943 123.272 101.752C125.189 101.37 126.339 101.178 128.448 100.604C130.173 100.222 132.091 100.987 133.049 102.517C133.816 103.665 134.391 104.812 134.775 105.577L134.966 105.96C135.541 106.725 137.65 108.064 146.853 106.151C151.645 105.195 153.946 104.43 154.905 103.856C157.205 102.517 157.588 102.135 156.822 99.6481C155.671 95.4403 152.412 87.7898 142.443 74.7839C137.267 68.0897 133.049 63.4994 130.749 61.9693C128.448 60.2479 125.572 59.8654 122.313 60.6304ZM120.971 96.7792C118.862 97.1617 117.52 96.9705 116.754 96.2054C116.178 95.6316 115.987 95.0578 115.987 94.2928C116.945 85.8772 117.904 85.1121 119.246 84.7296C120.204 84.5383 121.163 84.3471 126.147 91.8063C126.531 92.5714 126.723 93.3365 126.339 94.1015C125.764 95.2491 124.614 96.0141 121.93 96.5879C121.546 96.7792 121.355 96.7792 120.971 96.7792ZM119.054 93.9102C119.438 93.9102 120.013 93.9102 121.163 93.5277C122.121 93.3365 122.697 93.1452 123.08 92.9539C121.546 90.4675 120.396 89.1287 119.821 88.3636C119.821 89.5112 119.438 91.2326 119.054 93.9102Z" fill="#231F20"/>
<path d="M169.091 52.0237C169.858 51.8324 170.242 51.8324 171.008 51.8324C174.076 51.4499 176.568 52.4062 178.869 54.3189C181.169 56.4228 182.32 57.5703 184.62 59.6742C185.195 60.248 185.77 60.4393 186.154 60.248C186.537 60.248 188.263 57.9529 191.522 53.5538C193.822 50.4936 196.89 48.7722 200.532 48.581C201.683 48.3897 202.258 48.3897 203.408 48.3897C208.968 48.0072 212.994 52.0237 215.294 60.4393C218.17 70.7675 220.087 81.287 221.429 92.3803C221.813 94.8667 220.854 96.7793 219.129 97.9269C217.595 98.8832 215.678 99.457 212.802 99.457C210.693 99.6483 209.735 99.6483 207.626 99.8395C204.558 100.031 202.258 99.6483 200.724 98.8832C199.19 97.9269 197.848 96.0143 197.273 92.954C195.74 85.8773 194.781 82.4346 194.398 82.4346C194.206 82.4346 194.014 82.6258 193.631 83.1996C193.056 84.1559 191.522 86.4511 189.413 89.7026C188.263 91.4239 187.112 92.3803 185.962 92.5715C184.812 92.7628 183.47 91.9977 182.128 90.6589C180.019 88.555 178.869 87.4074 176.76 85.3035C176.568 85.1122 176.376 84.921 176.185 84.921C175.61 84.921 175.418 87.4074 175.61 92.3803C175.61 93.5278 175.801 95.2492 175.801 97.3531C175.801 99.6483 175.226 101.178 174.076 102.135C173.117 102.9 171.392 103.474 168.9 103.665C166.407 103.856 164.49 103.474 163.532 102.135C162.765 101.178 162.19 99.457 161.806 96.588C160.464 86.2598 160.081 76.1229 160.656 65.7947C161.231 57.3791 164.107 52.5975 169.091 52.0237Z" fill="#FFDD00"/>
<path d="M215.486 100.796C214.719 100.987 213.761 100.987 212.802 100.987C210.693 101.178 209.735 101.178 207.626 101.37C203.983 101.561 201.491 101.178 199.957 100.031C198.04 98.6919 196.506 96.3968 195.739 93.3365C195.356 91.4239 194.397 87.7899 193.822 85.4947C193.631 85.8773 193.439 86.0685 193.247 86.4511C192.48 87.5986 191.714 88.9375 190.563 90.4676C189.221 92.5715 187.688 93.7191 185.962 93.9103C184.237 94.1016 182.703 93.3365 180.786 91.6152C179.06 89.8938 178.102 88.9375 176.76 87.5986C176.76 88.555 176.76 90.0851 176.76 92.3802C176.76 93.5278 176.952 95.2492 176.952 97.5443C176.952 100.222 176.185 102.326 174.651 103.473C173.501 104.43 171.584 105.004 168.708 105.386C165.449 105.769 163.34 105.004 161.998 103.282C161.039 102.135 160.464 100.031 160.081 97.1618C158.93 86.0685 158.547 75.9316 159.122 66.1772C159.889 54.3188 164.874 51.0674 168.9 50.6848L170.817 50.4936C174.268 50.111 177.335 51.0674 179.827 53.3625C182.128 55.4664 183.278 56.614 185.579 58.7179C186.154 58.1441 187.304 56.614 189.988 52.7887C192.48 49.346 195.931 47.4334 200.149 47.0508L203.025 46.8596C209.351 46.2858 213.952 50.8761 216.445 60.0567C219.129 70.1937 221.237 80.9044 222.579 92.189C222.963 95.2492 222.004 97.7356 219.704 99.2657C218.745 100.031 217.211 100.605 215.486 100.796ZM194.014 81.0957C194.206 81.0957 194.206 81.0957 194.014 81.0957C195.931 80.9044 196.123 81.6695 198.615 92.7628C199.19 95.2492 200.149 96.7793 201.491 97.7356C202.641 98.5006 204.558 98.6919 207.434 98.5007C209.543 98.3094 210.501 98.3094 212.61 98.1181C215.103 97.9269 217.02 97.5443 218.17 96.7793C219.512 96.0142 220.087 94.6754 219.704 92.5715C218.362 81.4782 216.253 70.7675 213.569 60.8218C211.46 52.98 208.009 49.5372 203.408 49.9198L200.532 50.111C197.273 50.3023 194.589 51.8324 192.672 54.5101C187.688 61.3956 187.112 61.5868 186.537 61.7781C185.77 61.9694 184.62 61.5868 183.662 60.8218C181.361 58.7179 180.211 57.5703 177.91 55.4664C175.993 53.745 173.884 52.98 171.2 53.3625L169.283 53.5538C165.065 54.1276 162.573 58.3354 162.19 66.3684C161.614 75.9316 161.998 85.8773 163.34 96.7793C163.723 100.031 164.49 101.178 164.682 101.561C164.874 101.943 165.64 102.9 168.708 102.517C171.584 102.135 172.734 101.561 173.117 101.178C173.884 100.605 174.268 99.457 174.268 97.5443C174.268 95.2492 174.076 93.7191 174.076 92.5715C173.692 85.4948 174.268 83.5821 175.993 83.3908C176.76 83.1996 177.335 83.7734 177.718 83.9646C180.019 86.2598 181.169 87.2161 183.278 89.5113C184.045 90.2763 185.004 91.0414 185.962 91.0414C186.729 91.0414 187.496 90.2763 188.263 88.9375C189.221 87.4074 190.18 86.0685 190.947 84.921C191.713 83.7734 192.289 83.0083 192.48 82.4345C192.864 81.6695 193.439 81.287 194.014 81.0957Z" fill="#231F20"/>
<path d="M237.533 86.0685C236.191 86.2598 234.849 86.4511 233.699 86.4511C230.631 86.6423 228.714 85.686 228.139 83.9646C225.263 76.6966 223.73 68.8548 223.538 60.0567C223.538 51.6411 225.263 47.2421 228.714 46.6683C233.89 45.9032 240.6 45.3294 248.077 45.5207C249.994 45.5207 250.953 47.0508 250.953 49.9198C250.953 52.5975 250.378 56.2315 249.228 60.8218C247.694 66.3684 246.927 70.1937 246.735 71.7238C246.352 75.3578 246.16 78.9918 246.352 82.052C246.735 83.5821 243.668 84.9209 237.533 86.0685ZM240.792 86.8336C245.202 86.6423 247.694 88.3637 248.461 91.6152C248.461 92.189 248.652 92.5715 248.652 93.1453C248.652 96.3967 246.16 98.5006 240.792 99.6482C237.916 100.222 235.424 100.222 233.507 99.457C231.015 98.5006 229.865 96.588 229.673 93.9103C229.481 90.4676 232.165 88.1724 237.725 87.2161C238.875 87.0248 240.025 86.8336 240.792 86.8336Z" fill="#FFDD00"/>
<path d="M240.6 101.178C237.725 101.752 235.232 101.561 233.124 100.796C230.056 99.6482 228.522 97.353 228.331 93.9103C228.331 91.9977 228.906 89.7025 231.398 87.9811C228.522 87.5986 227.372 86.0685 226.989 84.7297C223.921 77.0791 222.388 68.8548 222.388 60.248C222.388 50.8761 224.497 46.0945 228.906 45.3294C234.849 44.3731 241.751 43.9906 248.652 44.1818C250.186 44.1818 253.062 44.9469 253.062 49.9197C253.062 52.7887 252.487 56.4227 251.336 61.2043C249.994 66.1771 249.036 70.1937 248.844 71.915C248.461 75.549 248.269 79.183 248.461 82.052C248.461 83.5821 247.502 84.7297 245.01 85.8772C248.652 87.0248 249.803 89.7025 250.186 91.4239V91.6151C250.186 92.1889 250.378 92.7627 250.378 93.1452C250.378 96.0142 248.844 99.6482 241.367 101.178C240.984 101.178 240.792 101.178 240.6 101.178ZM238.108 88.5549C231.015 89.7025 231.206 92.7627 231.206 93.719C231.398 95.8229 232.165 97.1618 234.082 97.9268C235.808 98.5006 237.916 98.6919 240.409 98.1181C247.119 96.7792 247.119 94.1016 247.119 93.1452C247.119 92.7627 247.119 92.3802 246.927 91.9977C246.544 90.2763 245.585 88.1724 240.792 88.1724C240.025 88.3637 239.067 88.5549 238.108 88.5549ZM229.098 48.3896C225.839 48.9634 225.072 55.2751 225.263 60.4392C225.263 68.6635 226.797 76.5053 229.673 83.7733C230.248 85.1122 232.165 85.3035 233.89 85.3035C235.041 85.3035 236.191 85.1122 237.341 84.9209C244.435 83.5821 245.202 82.4345 245.202 82.2432C245.01 79.3743 245.202 75.7403 245.585 71.7238C245.777 69.8111 246.735 65.7946 248.077 60.6305C249.228 56.2314 249.803 52.7887 249.803 50.111C249.803 47.2421 248.844 47.2421 248.269 47.2421C241.559 47.0508 234.849 47.4333 229.098 48.3896C229.098 48.3896 229.098 48.1984 229.098 48.3896Z" fill="#231F20"/>
<path d="M72.276 40.1653C72.6594 39.209 73.0429 38.2527 73.618 37.1051C74.1931 36.1488 74.5766 35.1924 75.3434 34.2361C76.4937 32.3235 78.0274 30.7934 79.5611 29.072C82.8202 26.0118 86.4628 23.5254 90.6805 21.6128C94.8982 19.8914 99.3076 18.7438 103.909 18.7438C106.209 18.7438 108.51 18.7438 110.81 19.3176C111.961 19.5089 113.111 19.7001 114.261 20.0826C115.412 20.4652 116.562 20.8477 117.52 21.2302H117.329C116.945 21.039 116.945 21.2302 116.945 21.2302L117.329 21.039C117.712 20.8477 118.096 20.6564 118.479 20.2739C119.246 19.7001 120.013 18.9351 120.971 18.17C122.505 16.6399 124.039 14.9185 125.764 13.0059C126.147 12.6234 126.531 12.0496 127.106 11.4758L128.448 10.137C129.407 9.3719 130.365 8.41558 131.324 7.65053C133.433 6.12043 135.541 4.59032 138.034 3.634C139.184 3.06021 140.526 2.67769 141.868 2.48642C143.21 2.1039 144.552 1.91263 145.894 1.91263C147.236 1.91263 148.578 1.91263 149.92 1.91263H150.878H151.07H151.454H151.837C152.604 2.1039 153.371 2.1039 153.946 2.29516C156.63 3.06021 158.93 4.01653 161.231 5.35537C163.532 6.69422 165.64 8.41558 167.366 10.5195L163.532 9.94569C167.174 7.65053 171.008 5.7379 174.843 4.01653C176.185 3.82527 178.294 3.06021 180.211 2.48642C181.169 2.1039 182.319 1.91263 183.278 1.53011L184.812 1.14758L186.345 0.765053C188.454 0.382527 190.755 0 193.055 0C194.206 0 195.356 0.191263 196.506 0.382527C197.657 0.57379 198.807 0.956316 199.957 1.53011C201.107 2.1039 202.066 2.86895 203.025 3.634C203.983 4.39906 204.75 5.54664 205.325 6.50295C206.475 8.60685 207.051 11.4758 206.092 13.771L203.791 11.8583C205.709 10.902 207.626 9.94569 209.926 9.18064C212.035 8.41559 214.336 8.03306 216.636 8.22432C217.02 8.22432 217.211 8.22432 217.403 8.41559L218.362 8.60685C218.937 8.79811 219.512 8.98938 220.087 9.18064C221.046 9.75443 222.004 10.3282 222.963 11.0933C223.73 11.8583 224.496 12.8146 224.88 13.9622C225.072 14.536 225.263 15.1098 225.263 15.6836C225.263 16.2574 225.263 16.8312 225.072 17.405C225.072 16.8312 225.072 16.2574 224.88 15.8749C224.688 15.3011 224.496 14.9185 224.305 14.3447C223.73 13.3884 223.154 12.6234 222.196 12.0496C221.429 11.4758 220.47 10.902 219.512 10.7107C219.128 10.5195 218.553 10.5195 217.978 10.3282H217.211C217.02 10.3282 216.636 10.3282 216.444 10.3282C214.527 10.3282 212.418 10.902 210.693 11.8583C208.776 12.8146 207.051 13.9622 205.325 15.1098L201.874 17.2137L202.833 13.1972C203.216 11.6671 202.833 10.137 201.874 8.79811C201.491 8.03306 200.916 7.45927 200.149 6.88548C199.574 6.31169 198.807 5.92916 198.04 5.7379C197.273 5.35537 196.315 5.16411 195.548 5.16411C194.589 4.97285 193.822 4.97285 192.864 4.97285C191.138 4.97285 189.221 5.35537 187.304 5.92916L185.962 6.31169L184.62 6.69422C183.661 7.07674 182.703 7.26801 181.744 7.65053C180.019 8.03306 178.294 8.79811 176.376 9.56316C172.734 11.2845 169.283 13.1972 166.024 15.3011L163.915 16.6399L162.19 14.7273C159.697 11.6671 155.671 9.56316 151.837 8.41559C151.262 8.22432 150.878 8.22432 150.495 8.22432H150.112H149.92H149.728H148.961C147.811 8.22432 146.853 8.22432 145.702 8.22432C144.744 8.22432 143.593 8.41558 142.635 8.60685C141.676 8.79811 140.718 9.18064 139.759 9.56316C137.842 10.3282 136.117 11.4758 134.199 12.6234C133.241 13.1972 132.474 13.9622 131.515 14.7273L130.173 15.8749C129.982 16.0661 129.407 16.6399 129.023 17.0224C127.298 18.7438 125.764 20.4652 123.847 22.1865C122.888 22.9516 121.93 23.9079 120.779 24.673C120.204 25.0555 119.629 25.438 118.862 25.8205C118.479 26.0118 118.096 26.2031 117.52 26.3943C116.945 26.5856 116.178 26.5856 115.22 26.3943H115.028H114.836C113.878 26.0118 113.111 25.6293 112.152 25.2468C111.194 24.8642 110.235 24.673 109.277 24.4817C107.36 24.0992 105.251 23.7166 103.334 23.7166C101.225 23.7166 99.3076 23.7167 97.1987 24.0992C95.0899 24.2904 93.1728 24.8642 91.2556 25.438C89.3385 26.0118 87.4214 26.7769 85.5042 27.9244C84.5457 28.4982 83.7788 28.8808 82.8202 29.4545C81.8617 30.0283 81.0948 30.6021 80.328 31.1759C78.6025 32.5148 77.0688 33.8536 75.7268 35.575C74.96 36.34 74.3848 37.2963 73.8097 38.0614C73.4263 38.2527 72.6594 39.209 72.276 40.1653Z" fill="#231F20"/>
<path d="M93.9396 150.907C93.7479 152.437 93.7479 154.158 94.3231 155.306C94.8982 156.453 95.8568 156.836 97.1988 157.027C98.5407 157.218 99.8827 157.027 101.225 156.645C102.567 156.453 104.1 156.071 105.442 155.688L109.852 154.349L114.261 153.011C115.795 152.628 117.137 152.054 118.862 151.672C119.629 151.481 120.396 151.289 121.355 151.098C121.738 151.098 122.313 150.907 122.697 150.907C123.272 150.907 123.847 150.907 124.805 151.098L125.381 151.289L125.956 151.672C128.065 153.202 130.365 154.541 132.857 155.497C135.35 156.453 137.842 157.027 140.526 157.218C141.868 157.218 143.21 157.218 144.36 157.027C145.702 156.836 146.853 156.453 148.195 155.88C150.687 154.732 152.604 152.628 154.138 149.95C153.946 151.481 153.563 153.011 152.796 154.349C152.029 155.688 151.07 157.027 149.728 158.175C148.386 159.322 147.044 160.087 145.511 160.661C143.977 161.235 142.251 161.617 140.718 161.809C138.992 162 137.459 162 135.733 161.809C134.199 161.617 132.474 161.235 130.94 160.852C127.873 159.896 124.997 158.366 122.313 156.453L123.272 157.027C123.464 157.027 123.272 157.027 123.08 157.027L122.122 157.218C121.546 157.41 120.78 157.41 120.013 157.601L115.603 158.749C114.07 159.131 112.536 159.322 111.002 159.705C109.468 160.087 107.935 160.279 106.209 160.47C104.867 160.47 103.334 160.661 101.608 160.661C99.8827 160.661 98.1573 160.47 96.4319 159.896C95.4733 159.514 94.7065 159.131 93.9396 158.366C93.1728 157.601 92.7893 156.645 92.5976 155.688C92.5976 153.967 93.1728 152.437 93.9396 150.907Z" fill="#231F20"/>
</svg>
