<svg width="20" height="20" viewBox="0 0 20 20" fill="none" xmlns="http://www.w3.org/2000/svg">
<path d="M4.1525 5.93085C5.1595 5.93085 5.97583 5.1285 5.97583 4.13876C5.97583 3.14902 5.1595 2.34668 4.1525 2.34668C3.1455 2.34668 2.32917 3.14902 2.32917 4.13876C2.32917 5.1285 3.1455 5.93085 4.1525 5.93085Z" fill="white"/>
<path d="M7.6975 7.28868V17.2311H10.8383V12.3144C10.8383 11.017 11.0867 9.76058 12.7233 9.76058C14.3375 9.76058 14.3575 11.2439 14.3575 12.3963V17.232H17.5V11.7795C17.5 9.10124 16.9133 7.04297 13.7283 7.04297C12.1992 7.04297 11.1742 7.86775 10.755 8.64831H10.7125V7.28868H7.6975ZM2.57917 7.28868H5.725V17.2311H2.57917V7.28868Z" fill="white"/>
</svg>
