<svg width="101" height="65" viewBox="0 0 101 65" fill="none" xmlns="http://www.w3.org/2000/svg">
<g clip-path="url(#clip0_27_1455)">
<path d="M50.3236 37.2287C48.6155 37.2287 46.9075 36.8175 45.3576 35.9951C42.8588 34.6667 40.9927 32.4209 40.1703 29.7007C39.3479 26.9805 39.6009 24.1022 40.9294 21.5718C42.2579 19.0414 44.5036 17.2068 47.2238 16.3844C52.8223 14.6448 58.8004 17.8078 60.5401 23.438C62.2798 29.0365 59.1167 35.0146 53.4866 36.7543C52.4428 37.0706 51.3674 37.2287 50.3236 37.2287ZM50.3236 20.528C49.7226 20.528 49.1532 20.6229 48.5523 20.781C45.3576 21.7616 43.5547 25.146 44.5352 28.3406C45.0097 29.8905 46.0535 31.1557 47.4768 31.9148C48.9002 32.674 50.545 32.8321 52.0948 32.3577C55.2895 31.3771 57.0924 27.9927 56.1119 24.798C55.3211 22.2044 52.9172 20.528 50.3236 20.528Z" fill="#00A7E1"/>
<path d="M50.3237 37.2287C40.0438 37.2287 31.6935 28.8783 31.6935 18.5985C31.6935 8.31873 40.0755 0 50.3237 0C60.5718 0 68.9538 8.35037 68.9538 18.6302C68.9538 28.91 60.6035 37.2287 50.3237 37.2287ZM50.3237 4.618C42.6059 4.618 36.3115 10.9124 36.3115 18.6302C36.3115 26.3479 42.6059 32.6423 50.3237 32.6423C58.0414 32.6423 64.3358 26.3479 64.3358 18.6302C64.3358 10.8808 58.073 4.618 50.3237 4.618Z" fill="#003DA6"/>
<path d="M11.1655 54.4039C10.0268 53.8345 8.25548 53.2652 6.64234 53.2652C5.18735 53.2652 4.45986 53.7713 4.45986 54.562C4.45986 55.3844 5.47202 55.5742 6.76886 55.764L8.03407 55.9537C11.1022 56.4282 12.8102 57.7883 12.8102 60.1922C12.8102 63.1022 10.4063 65 6.29441 65C4.36496 65 1.83455 64.6204 0 63.3236L1.51825 60.4452C2.7202 61.236 4.20681 61.837 6.32604 61.837C8.09733 61.837 8.95134 61.3309 8.95134 60.5085C8.95134 59.8126 8.22385 59.4331 6.61071 59.2116L5.44039 59.0535C2.15085 58.6107 0.537713 57.1557 0.537713 54.7518C0.537713 51.8418 2.78346 50.1338 6.51582 50.1338C8.79319 50.1338 10.5645 50.545 12.4307 51.4939L11.1655 54.4039Z" fill="#003DA6"/>
<path d="M29.7008 65H25.9684V63.0706C25.0511 64.2092 23.6594 65 21.73 65C17.8394 65 14.8662 61.8054 14.8662 57.5353C14.8662 53.2652 17.8078 50.0706 21.73 50.0706C23.6594 50.0706 25.0195 50.8613 25.9684 52V50.4501H29.7008V65ZM18.7884 57.5353C18.7884 59.6861 20.2117 61.4258 22.4575 61.4258C24.6399 61.4258 26.1265 59.7494 26.1265 57.5353C26.1265 55.2895 24.6399 53.6448 22.4575 53.6448C20.2117 53.6448 18.7884 55.3844 18.7884 57.5353Z" fill="#003DA6"/>
<path d="M37.5134 55.8589H38.8735L42.8589 50.8297H47.5402L41.9416 57.5037L47.5718 65H42.8905L38.8102 59.2749H37.5134V65H33.6862V43.9659H37.5134V55.8589Z" fill="#003DA6"/>
<path d="M54.0244 46.2117C54.0244 47.5718 52.9489 48.6472 51.5888 48.6472C50.2287 48.6472 49.1533 47.6034 49.1533 46.2117C49.1533 44.8516 50.1971 43.7445 51.5888 43.7445C52.9806 43.7445 54.0244 44.8199 54.0244 46.2117ZM53.5183 65H49.691V50.8297H53.5183V65Z" fill="#003DA6"/>
<path d="M67.8151 53.8661H62.691V59.0535C62.691 60.8248 63.6399 61.4574 64.8102 61.4574C65.7275 61.4574 66.708 61.0146 67.4672 60.5401L68.8589 63.5133C67.6253 64.3674 66.1703 65 64.1776 65C60.6667 65 58.8638 63.0073 58.8638 59.3382V53.8661H56.1436V50.4817H58.8638V46.2749H62.691V50.4817H67.8151V53.8661Z" fill="#003DA6"/>
<path d="M74.9635 65H71.1678V43.9659H74.9635V65Z" fill="#003DA6"/>
<path d="M83.3139 46.2117C83.3139 47.5718 82.2385 48.6472 80.8784 48.6472C79.5183 48.6472 78.4429 47.6034 78.4429 46.2117C78.4429 44.8516 79.4867 43.7445 80.8784 43.7445C82.2701 43.7445 83.3139 44.8199 83.3139 46.2117ZM82.8078 65H78.9806V50.8297H82.8078V65Z" fill="#003DA6"/>
<path d="M90.6205 55.8589H91.9806L95.966 50.8297H100.647L95.0803 57.5037L100.71 65H96.0292L91.9489 59.2749H90.6521V65H86.8248V43.9659H90.6521V55.8589H90.6205Z" fill="#003DA6"/>
</g>
<defs>
<clipPath id="clip0_27_1455">
<rect width="100.679" height="65" fill="white"/>
</clipPath>
</defs>
</svg>
