<svg width="29" height="28" viewBox="0 0 29 28" fill="none" xmlns="http://www.w3.org/2000/svg">
<path fill-rule="evenodd" clip-rule="evenodd" d="M8.64231 0.332511C10.1574 0.265002 10.6405 0.25 14.5 0.25C18.3595 0.25 18.8426 0.266252 20.3564 0.332511C21.8703 0.398769 22.9036 0.63255 23.8078 0.971344C24.7546 1.31764 25.6135 1.85896 26.3239 2.55905C27.0473 3.24539 27.6053 4.0755 27.9618 4.99312C28.3131 5.86823 28.5534 6.86836 28.6231 8.33105C28.6929 9.79999 28.7084 10.2676 28.7084 14.0018C28.7084 17.7373 28.6916 18.2048 28.6231 19.6713C28.5546 21.134 28.3131 22.1341 27.9618 23.0092C27.6053 23.9269 27.0463 24.7584 26.3239 25.4458C25.6135 26.1459 24.7546 26.6859 23.8078 27.031C22.9036 27.371 21.8703 27.6036 20.359 27.6711C18.8426 27.7386 18.3595 27.7536 14.5 27.7536C10.6405 27.7536 10.1574 27.7373 8.64231 27.6711C7.13106 27.6048 6.09773 27.371 5.19356 27.031C4.24538 26.6859 3.38629 26.1449 2.6761 25.4458C1.95326 24.759 1.39389 23.9279 1.03698 23.0105C0.686937 22.1353 0.446687 21.1352 0.376937 19.6725C0.307187 18.2036 0.291687 17.736 0.291687 14.0018C0.291687 10.2663 0.308479 9.79874 0.376937 8.33355C0.445395 6.86836 0.686937 5.86823 1.03698 4.99312C1.39441 4.0756 1.95422 3.24453 2.67739 2.5578C3.38657 1.85834 4.2448 1.31694 5.19227 0.971344C6.09644 0.63255 7.12977 0.400019 8.64102 0.332511H8.64231ZM20.2415 2.80783C18.7431 2.74157 18.2936 2.72782 14.5 2.72782C10.7064 2.72782 10.2569 2.74157 8.75856 2.80783C7.3726 2.86909 6.62085 3.09287 6.11969 3.28164C5.45706 3.53168 4.98302 3.82797 4.48573 4.30928C4.01433 4.75315 3.65154 5.29351 3.42398 5.89073C3.22894 6.3758 2.99773 7.10339 2.93444 8.44482C2.86598 9.895 2.85177 10.3301 2.85177 14.0018C2.85177 17.6735 2.86598 18.1086 2.93444 19.5588C2.99773 20.9002 3.22894 21.6278 3.42398 22.1128C3.65131 22.7092 4.01427 23.2505 4.48573 23.6943C4.94427 24.1506 5.50356 24.5019 6.11969 24.7219C6.62085 24.9107 7.3726 25.1345 8.75856 25.1957C10.2569 25.262 10.7051 25.2758 14.5 25.2758C18.2949 25.2758 18.7431 25.262 20.2415 25.1957C21.6274 25.1345 22.3792 24.9107 22.8804 24.7219C23.543 24.4719 24.017 24.1756 24.5143 23.6943C24.9858 23.2505 25.3487 22.7092 25.5761 22.1128C25.7711 21.6278 26.0023 20.9002 26.0656 19.5588C26.1341 18.1086 26.1483 17.6735 26.1483 14.0018C26.1483 10.3301 26.1341 9.895 26.0656 8.44482C26.0023 7.10339 25.7711 6.3758 25.5761 5.89073C25.3177 5.2494 25.0116 4.79059 24.5143 4.30928C24.0557 3.85306 23.4974 3.50194 22.8804 3.28164C22.3792 3.09287 21.6274 2.86909 20.2415 2.80783ZM12.6852 18.2411C13.6987 18.6494 14.8273 18.7045 15.8781 18.397C16.929 18.0895 17.8369 17.4384 18.4468 16.5549C19.0568 15.6715 19.3309 14.6105 19.2224 13.5531C19.1139 12.4958 18.6295 11.5077 17.8519 10.7576C17.3562 10.2781 16.7568 9.91102 16.0969 9.68266C15.4371 9.4543 14.7331 9.37039 14.0357 9.43696C13.3382 9.50354 12.6648 9.71895 12.0637 10.0677C11.4626 10.4164 10.9489 10.8898 10.5595 11.4538C10.1702 12.0177 9.91485 12.6582 9.81194 13.3292C9.70902 14.0001 9.76109 14.6847 9.96438 15.3339C10.1677 15.983 10.5171 16.5804 10.9876 17.0831C11.4581 17.5858 12.0379 17.9813 12.6852 18.2411ZM9.33594 9.00364C10.0141 8.34727 10.8192 7.82661 11.7052 7.47139C12.5913 7.11617 13.541 6.93334 14.5 6.93334C15.4591 6.93334 16.4087 7.11617 17.2948 7.47139C18.1809 7.82661 18.9859 8.34727 19.6641 9.00364C20.3423 9.66 20.8802 10.4392 21.2472 11.2968C21.6142 12.1544 21.8031 13.0735 21.8031 14.0018C21.8031 14.93 21.6142 15.8492 21.2472 16.7068C20.8802 17.5644 20.3423 18.3436 19.6641 18.9999C18.2945 20.3255 16.4369 21.0702 14.5 21.0702C12.5631 21.0702 10.7055 20.3255 9.33594 18.9999C7.96634 17.6743 7.1969 15.8765 7.1969 14.0018C7.1969 12.1271 7.96634 10.3292 9.33594 9.00364ZM23.4229 7.98601C23.5909 7.83257 23.7254 7.64806 23.8185 7.4434C23.9115 7.23874 23.9612 7.01809 23.9646 6.79451C23.968 6.57094 23.9249 6.34898 23.8381 6.14178C23.7512 5.93458 23.6223 5.74635 23.459 5.58824C23.2956 5.43013 23.1011 5.30535 22.8871 5.22129C22.673 5.13723 22.4436 5.0956 22.2126 5.09886C21.9816 5.10212 21.7537 5.1502 21.5422 5.24027C21.3308 5.33033 21.1401 5.46055 20.9816 5.6232C20.6733 5.93953 20.5045 6.3597 20.511 6.79451C20.5176 7.22933 20.699 7.64456 21.0167 7.95206C21.3344 8.25955 21.7634 8.4351 22.2126 8.44144C22.6619 8.44778 23.096 8.28441 23.4229 7.98601Z" fill="#003DA6"/>
</svg>
