<svg width="30" height="31" viewBox="0 0 30 31" fill="none" xmlns="http://www.w3.org/2000/svg">
<path d="M6.22874 8.99757C7.73924 8.99757 8.96374 7.77291 8.96374 6.26221C8.96374 4.75152 7.73924 3.52686 6.22874 3.52686C4.71824 3.52686 3.49374 4.75152 3.49374 6.26221C3.49374 7.77291 4.71824 8.99757 6.22874 8.99757Z" fill="#003DA6"/>
<path d="M11.5462 11.0704V26.2461H16.2575V18.7414C16.2575 16.7611 16.63 14.8434 19.085 14.8434C21.5062 14.8434 21.5362 17.1074 21.5362 18.8664V26.2473H26.25V17.925C26.25 13.837 25.37 10.6953 20.5925 10.6953C18.2987 10.6953 16.7612 11.9542 16.1325 13.1456H16.0687V11.0704H11.5462ZM3.86874 11.0704H8.58749V26.2461H3.86874V11.0704Z" fill="#003DA6"/>
</svg>
