<svg width="50" height="50" viewBox="0 0 50 50" fill="none" xmlns="http://www.w3.org/2000/svg">
<path d="M37.9687 25.6248L32.8125 29.2967C32.8125 29.2967 30.2344 22.1092 28.2812 17.4998C27.5 15.6248 25 14.9998 23.8281 12.3436C21.7969 7.8123 24.2187 3.90605 26.5625 6.71855C29.2969 9.9998 33.3594 12.4217 34.2187 14.2967C35.5469 17.4217 37.9687 25.6248 37.9687 25.6248Z" fill="#FED0AC"/>
<path d="M42.0313 28.5937C42.4219 31.0937 42.1094 34.9218 39.9219 39.453C39.9219 39.453 35.4688 34.1405 34.9219 31.6405C34.9219 31.6405 33.6719 22.3437 32.3438 16.4062C31.7969 13.9843 28.9844 12.578 28.2813 9.14054C27.0313 3.20304 30.7813 -0.93758 32.9688 3.04679C35.4688 7.65617 39.6875 11.5624 40.2344 13.9843C41.1719 18.1249 41.5625 24.9999 42.0313 28.5937Z" fill="#FED0AC"/>
<path d="M35.4688 23.9063C35.4688 23.9063 35.0781 20.3906 33.75 14.4531C33.2031 12.0313 30.3906 10.625 29.6875 7.1875C29.2188 5.15625 29.375 3.28125 29.9219 1.95312C28.5938 2.96875 27.5 5.78125 28.2031 9.21875C28.9063 12.6563 31.7969 14.0625 32.2656 16.4844C32.8125 19.0625 33.2813 21.7188 33.2813 21.7188L29.375 20.2344L35.4688 23.9063Z" fill="#E0A372"/>
<path d="M40.1563 27.6563C35 22.9688 29.2188 20.0782 25.4688 18.2813C19.9219 15.547 21.4063 19.297 11.9531 21.797C10.7031 22.1095 9.21876 23.047 10.3906 25.3907C11.4844 27.6563 20.3906 25.9376 21.7969 24.6095C21.7969 24.6095 25.5469 29.2188 29.2969 29.0626C29.2969 29.0626 28.6719 32.1095 29.5313 33.5938C29.5313 33.5938 24.2188 36.3282 21.9531 38.7501L15.7031 34.5313C15.2344 28.047 14.0625 26.0938 10.8594 26.4063C7.89064 26.7188 8.20314 29.5313 8.28126 31.797C8.35939 35.9376 7.26564 36.6407 8.28126 38.2813C12.1094 44.5313 17.0313 48.4376 26.0938 48.4376C29.4531 48.4376 31.6406 48.3595 33.75 47.3438C37.1875 45.547 45.8594 32.8907 40.1563 27.6563Z" fill="#FED0AC"/>
<path d="M41.1719 28.9062C43.125 34.8438 36.1719 44.6094 33.125 46.0938C31.0156 47.1094 28.9062 47.1875 25.4688 47.1875C16.4844 47.1875 11.6406 43.3594 7.8125 37.1875C7.89063 37.5 8.04688 37.8906 8.20313 38.2031C12.1094 44.5313 17.0313 48.4375 26.0938 48.4375C29.4531 48.4375 31.6406 48.3594 33.75 47.3437C36.9531 45.7031 44.6875 34.6875 41.1719 28.9062Z" fill="#E0A372"/>
<path d="M14.5312 34.6876C14.5312 34.6876 20.3906 38.4376 21.7969 38.6719L15.625 34.5313C15.8594 27.9688 13.9844 25.8594 10.7813 26.4063C10.5469 26.4844 10.3125 26.4844 10.0781 26.5626C13.2812 26.1719 14.7656 28.2813 14.5312 34.6876Z" fill="#E0A372"/>
<path d="M21.7969 24.6094C21.7969 24.6094 25.5469 29.1406 29.2969 29.0625V28.2031C25.5469 28.2812 21.7969 23.75 21.7969 23.75C20.3906 25.1562 11.4844 26.875 10.3906 24.5312C10.2344 24.1406 10.0781 23.75 10 23.4375C9.92188 23.9063 10 24.5312 10.3906 25.3906C11.4844 27.6562 20.3906 25.9375 21.7969 24.6094Z" fill="#E0A372"/>
</svg>
