<svg width="19" height="19" viewBox="0 0 19 19" fill="none" xmlns="http://www.w3.org/2000/svg">
<path d="M17.1668 2.35261C17.0021 2.21303 16.8026 2.12068 16.5896 2.0854C16.3766 2.05012 16.158 2.07321 15.957 2.15222L2.25625 7.53308C2.01594 7.62463 1.81239 7.79265 1.67694 8.01124C1.54149 8.22984 1.48165 8.4869 1.50664 8.74284C1.52894 8.99869 1.63357 9.24041 1.80485 9.43176C1.97613 9.62311 2.20482 9.75378 2.45664 9.80417L5.9375 10.4944V14.8436C5.93738 15.0789 6.00715 15.3089 6.13797 15.5045C6.26878 15.7001 6.45475 15.8524 6.67227 15.9421C6.81622 16 6.96983 16.0302 7.125 16.0311C7.28097 16.0317 7.43547 16.0011 7.57948 15.9412C7.72349 15.8813 7.8541 15.7933 7.96367 15.6823L9.89336 13.76L12.8102 16.328C13.0255 16.5179 13.3023 16.6234 13.5895 16.6249C13.7157 16.6275 13.8414 16.6074 13.9605 16.5655C14.1564 16.5035 14.3327 16.3915 14.472 16.2405C14.6112 16.0895 14.7087 15.9048 14.7547 15.7046L17.5453 3.51785C17.5941 3.30756 17.5846 3.08795 17.5179 2.88264C17.4512 2.67734 17.3298 2.49409 17.1668 2.35261ZM6.39023 9.3737L2.69414 8.63894L13.0551 4.56433L6.39023 9.3737ZM7.125 14.8436V11.3257L8.99531 12.9733L7.125 14.8436ZM13.5969 15.4374L7.48125 10.0565L16.291 3.69597L13.5969 15.4374Z" fill="white"/>
</svg>
