<svg width="26" height="23" viewBox="0 0 26 23" fill="none" xmlns="http://www.w3.org/2000/svg">
<path d="M25.1055 0.591059C24.8454 0.378009 24.5304 0.237065 24.1941 0.18321C23.8577 0.129354 23.5126 0.1646 23.1953 0.2852L1.56251 8.49809C1.18307 8.63783 0.861673 8.89427 0.647805 9.22792C0.433937 9.56157 0.339457 9.95392 0.378912 10.3446C0.414112 10.7351 0.57932 11.104 0.849762 11.3961C1.1202 11.6881 1.4813 11.8876 1.87891 11.9645L7.375 13.018V19.6563C7.37481 20.0154 7.48498 20.3665 7.69153 20.665C7.89809 20.9635 8.19171 21.1959 8.53516 21.3328C8.76246 21.4213 9.00499 21.4674 9.25 21.4688C9.49626 21.4696 9.74023 21.423 9.96761 21.3316C10.195 21.2401 10.4012 21.1058 10.5742 20.9364L13.6211 18.0024L18.2266 21.9219C18.5666 22.2118 19.0037 22.3728 19.457 22.375C19.6564 22.379 19.8549 22.3483 20.043 22.2844C20.3522 22.1898 20.6306 22.0188 20.8505 21.7884C21.0704 21.5579 21.2243 21.2759 21.2969 20.9704L25.7031 2.36957C25.7801 2.04861 25.7652 1.71342 25.6599 1.40006C25.5546 1.08669 25.3629 0.807 25.1055 0.591059ZM8.08985 11.3075L2.25391 10.186L18.6133 3.96684L8.08985 11.3075ZM9.25 19.6563V14.2868L12.2031 16.8016L9.25 19.6563ZM19.4688 20.5625L9.8125 12.3497L23.7227 2.64145L19.4688 20.5625Z" fill="#003DA6"/>
</svg>
