<svg width="251" height="187" viewBox="0 0 251 187" fill="none" xmlns="http://www.w3.org/2000/svg">
<path d="M250.966 164.332H0V164.458H250.966V164.332Z" fill="#EBEBEB"/>
<path d="M39.3816 169.111H26.3314V169.237H39.3816V169.111Z" fill="#EBEBEB"/>
<path d="M100.602 167.75H73.4478V167.875H100.602V167.75Z" fill="#EBEBEB"/>
<path d="M53.0944 173.773H39.8835V173.899H53.0944V173.773Z" fill="#EBEBEB"/>
<path d="M225.819 172.932H216.167V173.057H225.819V172.932Z" fill="#EBEBEB"/>
<path d="M211.695 172.932H196.492V173.057H211.695V172.932Z" fill="#EBEBEB"/>
<path d="M157 170.812H129.614V170.938H157V170.812Z" fill="#EBEBEB"/>
<path d="M118.958 141.947H22.0398C21.2806 141.945 20.5529 141.643 20.0165 141.105C19.4801 140.568 19.1788 139.84 19.1788 139.081V2.84094C19.1854 2.08604 19.4896 1.36424 20.0253 0.832314C20.561 0.300386 21.2849 0.00129317 22.0398 0H118.958C119.718 0 120.447 0.301957 120.985 0.839442C121.522 1.37693 121.824 2.10592 121.824 2.86603V139.081C121.824 139.841 121.522 140.57 120.985 141.107C120.447 141.645 119.718 141.947 118.958 141.947ZM22.0398 0.100387C21.3139 0.101717 20.6181 0.391038 20.1052 0.904847C19.5924 1.41866 19.3043 2.11497 19.3043 2.84094V139.081C19.3043 139.806 19.5924 140.503 20.1052 141.017C20.6181 141.53 21.3139 141.82 22.0398 141.821H118.958C119.684 141.82 120.381 141.531 120.894 141.017C121.408 140.503 121.697 139.807 121.699 139.081V2.84094C121.697 2.11451 121.408 1.41821 120.894 0.904541C120.381 0.390875 119.684 0.101714 118.958 0.100387H22.0398Z" fill="#EBEBEB"/>
<path d="M227.531 141.947H130.608C129.848 141.945 129.12 141.643 128.583 141.106C128.046 140.568 127.743 139.84 127.742 139.081V2.84094C127.75 2.08559 128.055 1.36379 128.592 0.832C129.128 0.30021 129.853 0.00127907 130.608 0H227.531C228.285 0.00261231 229.008 0.302289 229.542 0.834075C230.077 1.36586 230.381 2.08691 230.387 2.84094V139.081C230.387 139.839 230.087 140.566 229.551 141.104C229.016 141.641 228.289 141.944 227.531 141.947ZM130.608 0.100387C129.881 0.101714 129.185 0.390875 128.672 0.904541C128.158 1.41821 127.869 2.11451 127.867 2.84094V139.081C127.869 139.807 128.158 140.503 128.672 141.017C129.185 141.531 129.881 141.82 130.608 141.821H227.531C228.258 141.82 228.954 141.531 229.467 141.017C229.981 140.503 230.27 139.807 230.272 139.081V2.84094C230.27 2.11451 229.981 1.41821 229.467 0.904541C228.954 0.390875 228.258 0.101714 227.531 0.100387H130.608Z" fill="#EBEBEB"/>
<path d="M221.478 111.6H207.675V164.333H221.478V111.6Z" fill="#E6E6E6"/>
<path d="M218.858 164.334H221.478V156.875H216.107L218.858 164.334Z" fill="#F0F0F0"/>
<path d="M142.715 111.6H128.911V164.333H142.715V111.6Z" fill="#E6E6E6"/>
<path d="M221.478 111.6H140.426V159.755H221.478V111.6Z" fill="#F0F0F0"/>
<path d="M143.121 114.04V150.43H167.149V114.04H143.121Z" fill="#E6E6E6"/>
<path d="M157.511 116.127H152.758C151.736 116.127 150.725 115.92 149.787 115.517C148.848 115.114 148.001 114.524 147.297 113.783H162.972C162.269 114.524 161.422 115.114 160.483 115.517C159.544 115.92 158.533 116.127 157.511 116.127Z" fill="#F0F0F0"/>
<path d="M168.94 114.043V150.434H192.968V114.043H168.94Z" fill="#E6E6E6"/>
<path d="M183.572 116.127H178.818C177.798 116.127 176.788 115.919 175.85 115.516C174.912 115.113 174.066 114.523 173.362 113.783H189.033C188.329 114.524 187.482 115.114 186.543 115.517C185.605 115.92 184.593 116.127 183.572 116.127Z" fill="#F0F0F0"/>
<path d="M194.755 114.043V150.434H218.782V114.043H194.755Z" fill="#E6E6E6"/>
<path d="M209.391 116.127H204.638C203.616 116.127 202.605 115.92 201.666 115.517C200.727 115.114 199.88 114.524 199.177 113.783H214.827C214.126 114.521 213.284 115.109 212.349 115.512C211.415 115.915 210.409 116.124 209.391 116.127Z" fill="#F0F0F0"/>
<path d="M143.046 164.334H140.426V156.875H145.796L143.046 164.334Z" fill="#F0F0F0"/>
<path d="M110.305 9.53125H34.262V80.7555H110.305V9.53125Z" fill="#E6E6E6"/>
<path d="M113.035 9.53125H35.5368V80.7555H113.035V9.53125Z" fill="#F0F0F0"/>
<path d="M110.305 80.7559H34.262V85.8304H110.305V80.7559Z" fill="#E6E6E6"/>
<path d="M117.583 80.7559H40.0844V85.8304H117.583V80.7559Z" fill="#F0F0F0"/>
<path d="M109.216 76.9322V13.3574L39.3615 13.3574V76.9322H109.216Z" fill="#FAFAFA"/>
<path d="M46.6747 76.9322L69.1161 13.3574H79.7069L57.2655 76.9322H46.6747Z" fill="white"/>
<path d="M41.1284 55.3635C41.2016 55.3635 41.2718 55.3344 41.3236 55.2827C41.3754 55.2309 41.4045 55.1607 41.4045 55.0875V15.8414C41.4032 15.769 41.3735 15.7001 41.3219 15.6494C41.2702 15.5987 41.2008 15.5703 41.1284 15.5703C41.0565 15.5703 40.9876 15.5989 40.9367 15.6497C40.8859 15.7005 40.8574 15.7695 40.8574 15.8414V55.0875C40.8573 55.1598 40.8857 55.2293 40.9364 55.2809C40.9871 55.3326 41.0561 55.3622 41.1284 55.3635Z" fill="#F0F0F0"/>
<path d="M59.5443 76.9322L81.9857 13.3574H86.1115L63.6752 76.9322H59.5443Z" fill="white"/>
<path d="M109.21 76.9322V13.3574H108.724V76.9322H109.21Z" fill="#E6E6E6"/>
<path opacity="0.5" d="M113.939 19.9465H37.8959L37.5446 14.8418H113.587L113.939 19.9465Z" fill="#E6E6E6"/>
<path opacity="0.5" d="M113.939 23.6808H37.8959L37.5446 18.5762H113.587L113.939 23.6808Z" fill="#E6E6E6"/>
<path opacity="0.5" d="M113.939 28.1632H37.8959L37.5446 23.0586H113.587L113.939 28.1632Z" fill="#E6E6E6"/>
<path opacity="0.5" d="M113.939 33.1535H37.8959L37.5446 28.0488H113.587L113.939 33.1535Z" fill="#E6E6E6"/>
<path opacity="0.5" d="M113.939 39.13H37.8959L37.5446 34.0254H113.587L113.939 39.13Z" fill="#E6E6E6"/>
<path opacity="0.5" d="M113.939 45.8508H37.8959L37.5446 40.7461H113.587L113.939 45.8508Z" fill="#E6E6E6"/>
<path d="M114.757 117.051H92.2502V164.333H114.757V117.051Z" fill="#E6E6E6"/>
<path d="M112.493 164.332H114.757V157.893H110.119L112.493 164.332Z" fill="#F0F0F0"/>
<path d="M59.3937 117.051H36.887V164.333H59.3937V117.051Z" fill="#E6E6E6"/>
<path d="M114.752 117.051H57.4161V160.383H114.752V117.051Z" fill="#F0F0F0"/>
<path d="M113 118.969H59.1728V130.855H113V118.969Z" fill="#E6E6E6"/>
<path d="M88.6263 122.663H83.5417C81.3332 122.663 79.2251 121.197 77.7042 118.607H94.4688C92.9479 121.197 90.8498 122.663 88.6263 122.663Z" fill="#F0F0F0"/>
<path d="M59.6798 164.332H57.4161V157.893H62.0539L59.6798 164.332Z" fill="#F0F0F0"/>
<path d="M113 132.771H59.1728V144.657H113V132.771Z" fill="#E6E6E6"/>
<path d="M88.6263 136.466H83.5417C81.3332 136.466 79.2251 135 77.7042 132.41H94.4688C92.9479 135.02 90.8498 136.466 88.6263 136.466Z" fill="#F0F0F0"/>
<path d="M113 146.574H59.1728V158.46H113V146.574Z" fill="#E6E6E6"/>
<path d="M88.6263 150.269H83.5417C81.3332 150.269 79.2251 148.803 77.7042 146.213H94.4688C92.9479 148.803 90.8498 150.269 88.6263 150.269Z" fill="#F0F0F0"/>
<path d="M205.627 19.3086H161.928V77.7536H205.627V19.3086Z" fill="#E6E6E6"/>
<path d="M208.468 19.3086H162.541V77.7536H208.468V19.3086Z" fill="#F0F0F0"/>
<path d="M202.108 71.3952V25.6641L168.895 25.6641V71.3952H202.108Z" fill="white"/>
<path d="M202.108 71.3952V25.6641H201.611V71.3952H202.108Z" fill="#E6E6E6"/>
<path d="M186.122 38.8594H176.178C176.081 38.8594 175.987 38.8978 175.917 38.9664C175.848 39.035 175.808 39.1281 175.807 39.2258V49.149C175.815 51.5427 176.769 53.8361 178.462 55.5288C180.155 57.2214 182.448 58.1758 184.842 58.1838H194.765C194.863 58.1838 194.958 58.1446 195.028 58.075C195.097 58.0053 195.136 57.9109 195.136 57.8123V47.9092C195.134 45.5159 194.184 43.2209 192.495 41.5253C190.806 39.8297 188.515 38.8713 186.122 38.8594ZM184.882 57.466C182.677 57.4634 180.564 56.5861 179.006 55.0268C177.447 53.4675 176.571 51.3535 176.57 49.149V39.6123H186.107C188.311 39.6149 190.424 40.4913 191.983 42.0494C193.542 43.6075 194.42 45.7201 194.424 47.9243L184.882 57.466Z" fill="#F0F0F0"/>
<path d="M125.483 187C179.231 187 222.803 184.457 222.803 181.319C222.803 178.181 179.231 175.637 125.483 175.637C71.735 175.637 28.1635 178.181 28.1635 181.319C28.1635 184.457 71.735 187 125.483 187Z" fill="#F5F5F5"/>
<path d="M123.772 16.5642C123.315 13.7936 125.187 11.5449 127.958 11.5449H107.715C104.944 11.5449 103.072 13.7886 103.529 16.5642H123.772Z" fill="#00A7E1"/>
<path opacity="0.3" d="M123.772 16.5642C123.315 13.7936 125.187 11.5449 127.958 11.5449H107.715C104.944 11.5449 103.072 13.7886 103.529 16.5642H123.772Z" fill="black"/>
<path d="M127.958 11.5449H107.715C109.116 11.5915 110.459 12.1141 111.523 13.0265C112.587 13.939 113.308 15.1868 113.567 16.5642L117.999 43.3273C118.26 44.7043 118.981 45.9516 120.045 46.8639C121.109 47.7762 122.451 48.2992 123.852 48.3466H134.061C136.832 48.3466 138.704 46.098 138.247 43.3273L133.81 16.5642C133.551 15.1868 132.83 13.939 131.766 13.0265C130.702 12.1141 129.359 11.5915 127.958 11.5449Z" fill="#00A7E1"/>
<path d="M128.038 43.3418C128.495 46.1125 126.623 48.3611 123.852 48.3611H144.095C144.725 48.3824 145.351 48.2596 145.927 48.002C146.502 47.7444 147.011 47.3589 147.415 46.8748C147.819 46.3906 148.107 45.8207 148.257 45.2085C148.407 44.5962 148.415 43.9578 148.281 43.3418H128.038Z" fill="#00A7E1"/>
<path opacity="0.3" d="M128.038 43.3418C128.495 46.1125 126.623 48.3611 123.852 48.3611H144.095C144.725 48.3824 145.351 48.2596 145.927 48.002C146.502 47.7444 147.011 47.3589 147.415 46.8748C147.819 46.3906 148.107 45.8207 148.257 45.2085C148.407 44.5962 148.415 43.9578 148.281 43.3418H128.038Z" fill="black"/>
<path d="M131.296 18.8877H116.845C116.761 18.8847 116.68 18.8533 116.617 18.7986C116.553 18.7439 116.509 18.6691 116.494 18.5866C116.485 18.5496 116.485 18.5111 116.494 18.4742C116.503 18.4372 116.52 18.4028 116.544 18.3737C116.569 18.3445 116.599 18.3213 116.634 18.306C116.669 18.2907 116.707 18.2837 116.744 18.2854H131.195C131.279 18.2885 131.36 18.3199 131.423 18.3746C131.487 18.4293 131.531 18.504 131.546 18.5866C131.555 18.6236 131.555 18.662 131.546 18.699C131.537 18.7359 131.52 18.7703 131.496 18.7995C131.472 18.8287 131.441 18.8518 131.406 18.8671C131.371 18.8824 131.333 18.8895 131.296 18.8877Z" fill="white"/>
<path d="M123.29 20.9756H117.191C117.107 20.9726 117.027 20.9412 116.963 20.8865C116.899 20.8318 116.856 20.757 116.84 20.6745C116.831 20.6375 116.831 20.599 116.84 20.5621C116.849 20.5251 116.866 20.4907 116.891 20.4615C116.915 20.4324 116.946 20.4092 116.98 20.3939C117.015 20.3786 117.053 20.3716 117.091 20.3733H123.189C123.273 20.3763 123.354 20.4078 123.418 20.4625C123.481 20.5172 123.525 20.5919 123.541 20.6745C123.548 20.7114 123.547 20.7495 123.538 20.786C123.529 20.8225 123.512 20.8565 123.488 20.8854C123.464 20.9143 123.433 20.9374 123.399 20.9531C123.365 20.9687 123.327 20.9764 123.29 20.9756Z" fill="white"/>
<path d="M128.931 20.9754H124.715C124.632 20.9722 124.552 20.9406 124.489 20.8858C124.426 20.831 124.384 20.7564 124.369 20.6743C124.36 20.6377 124.36 20.5997 124.369 20.5632C124.377 20.5266 124.394 20.4925 124.418 20.4634C124.442 20.4344 124.472 20.4111 124.506 20.3955C124.54 20.3798 124.577 20.3722 124.615 20.3731H128.831C128.914 20.3764 128.994 20.408 129.057 20.4628C129.12 20.5175 129.163 20.5922 129.177 20.6743C129.186 20.7109 129.186 20.7489 129.177 20.7854C129.169 20.822 129.152 20.8561 129.128 20.8852C129.104 20.9142 129.074 20.9375 129.04 20.9531C129.006 20.9688 128.969 20.9764 128.931 20.9754Z" fill="white"/>
<path d="M132.008 23.0898H117.538C117.454 23.0879 117.374 23.0575 117.31 23.0036C117.246 22.9497 117.202 22.8756 117.186 22.7936C117.178 22.7566 117.178 22.7181 117.187 22.6812C117.195 22.6443 117.213 22.6099 117.237 22.5807C117.261 22.5515 117.292 22.5284 117.327 22.5131C117.361 22.4978 117.399 22.4907 117.437 22.4924H131.888C131.972 22.4955 132.052 22.5269 132.116 22.5816C132.18 22.6363 132.223 22.7111 132.239 22.7936C132.246 22.8286 132.246 22.8648 132.238 22.8996C132.23 22.9344 132.214 22.967 132.192 22.9952C132.17 23.0234 132.143 23.0465 132.111 23.0628C132.079 23.0791 132.044 23.0883 132.008 23.0898Z" fill="white"/>
<path d="M130.909 25.1571H117.884C117.8 25.154 117.719 25.1226 117.656 25.0679C117.592 25.0132 117.548 24.9384 117.533 24.8559C117.525 24.819 117.526 24.7809 117.535 24.7444C117.544 24.7079 117.562 24.6739 117.586 24.645C117.61 24.6161 117.64 24.5929 117.674 24.5773C117.709 24.5617 117.746 24.554 117.784 24.5547H130.834C130.918 24.5578 130.998 24.5892 131.062 24.6439C131.126 24.6986 131.169 24.7733 131.185 24.8559C131.193 24.895 131.192 24.9355 131.182 24.9741C131.171 25.0126 131.152 25.0481 131.125 25.0775C131.098 25.107 131.064 25.1296 131.026 25.1434C130.989 25.1572 130.949 25.1619 130.909 25.1571Z" fill="white"/>
<path d="M126.989 27.244H118.23C118.146 27.241 118.066 27.2095 118.002 27.1548C117.938 27.1001 117.895 27.0254 117.879 26.9428C117.871 26.9062 117.872 26.8683 117.881 26.832C117.89 26.7957 117.908 26.762 117.932 26.7334C117.956 26.7049 117.987 26.6822 118.021 26.6672C118.055 26.6521 118.092 26.6451 118.13 26.6467H126.894C126.977 26.6503 127.056 26.6814 127.12 26.7349C127.183 26.7885 127.227 26.8616 127.245 26.9428C127.253 26.9802 127.252 27.0187 127.242 27.0556C127.233 27.0925 127.215 27.1268 127.19 27.1558C127.166 27.1848 127.135 27.2078 127.1 27.2231C127.065 27.2384 127.027 27.2455 126.989 27.244Z" fill="white"/>
<path d="M133.012 29.3387H118.577C118.493 29.3357 118.412 29.3042 118.348 29.2495C118.284 29.1948 118.241 29.1201 118.225 29.0375C118.218 29.0007 118.219 28.9625 118.228 28.926C118.237 28.8895 118.254 28.8556 118.278 28.8266C118.302 28.7977 118.333 28.7746 118.367 28.759C118.401 28.7433 118.439 28.7356 118.476 28.7364H132.927C133.011 28.7394 133.091 28.7709 133.155 28.8256C133.219 28.8803 133.262 28.955 133.278 29.0375C133.287 29.0759 133.287 29.1158 133.277 29.154C133.268 29.1922 133.249 29.2275 133.223 29.257C133.197 29.2865 133.164 29.3094 133.128 29.3236C133.091 29.3378 133.051 29.343 133.012 29.3387Z" fill="white"/>
<path d="M133.374 31.4266H118.923C118.839 31.4236 118.758 31.3921 118.695 31.3374C118.631 31.2827 118.587 31.208 118.572 31.1254C118.564 31.0885 118.565 31.0504 118.574 31.0139C118.583 30.9774 118.601 30.9434 118.625 30.9145C118.649 30.8856 118.679 30.8625 118.713 30.8468C118.748 30.8312 118.785 30.8235 118.823 30.8243H133.278C133.362 30.8275 133.441 30.8591 133.504 30.9139C133.567 30.9687 133.61 31.0433 133.625 31.1254C133.633 31.1624 133.633 31.2009 133.624 31.2378C133.615 31.2748 133.598 31.3092 133.574 31.3384C133.55 31.3675 133.519 31.3907 133.484 31.406C133.449 31.4213 133.411 31.4283 133.374 31.4266Z" fill="white"/>
<path d="M128.033 33.5134H119.269C119.186 33.5097 119.107 33.4787 119.043 33.4251C118.98 33.3716 118.936 33.2985 118.918 33.2172C118.91 33.1803 118.911 33.1422 118.92 33.1057C118.93 33.0692 118.947 33.0352 118.971 33.0063C118.995 32.9774 119.025 32.9543 119.06 32.9386C119.094 32.923 119.131 32.9153 119.169 32.9161H127.933C128.017 32.9191 128.097 32.9505 128.161 33.0052C128.225 33.0599 128.268 33.1347 128.284 33.2172C128.292 33.2539 128.291 33.2918 128.282 33.3281C128.272 33.3644 128.255 33.3981 128.231 33.4266C128.207 33.4552 128.176 33.4779 128.142 33.4929C128.108 33.5079 128.07 33.5149 128.033 33.5134Z" fill="white"/>
<path d="M136.329 39.2614L137.234 39.8223L151.105 17.4586L150.201 16.8977L136.329 39.2614Z" fill="#263238"/>
<path opacity="0.3" d="M136.329 39.2614L137.234 39.8223L151.105 17.4586L150.201 16.8977L136.329 39.2614Z" fill="black"/>
<path d="M134.524 38.1422L135.428 38.7031L149.3 16.3397L148.396 15.7788L134.524 38.1422Z" fill="#263238"/>
<path opacity="0.3" d="M134.524 38.1422L135.428 38.7031L149.3 16.3397L148.396 15.7788L134.524 38.1422Z" fill="black"/>
<path d="M135.433 38.6989L136.337 39.2598L150.209 16.8961L149.305 16.3352L135.433 38.6989Z" fill="#263238"/>
<path d="M134.503 40.2959L135.316 40.8028L137.238 39.824L134.528 38.1426L134.503 40.2959Z" fill="#FF8B7B"/>
<path d="M134.493 41.2235L135.316 40.8019L134.503 40.2949L134.493 41.2235Z" fill="#263238"/>
<path d="M134.016 41.4093H133.981C133.308 41.1322 132.714 40.6945 132.249 40.1344C131.958 39.822 131.64 39.5349 131.301 39.2761C131.249 39.2332 131.184 39.2098 131.117 39.2098C131.05 39.2098 130.986 39.2332 130.934 39.2761C130.893 39.3206 130.871 39.3788 130.871 39.4392C130.871 39.4997 130.893 39.5579 130.934 39.6024C131.055 39.7831 131.19 39.9537 131.326 40.1043C131.38 40.164 131.414 40.2397 131.422 40.3202C131.43 40.4006 131.412 40.4816 131.371 40.551C131.327 40.612 131.265 40.6573 131.193 40.6799C131.122 40.7025 131.045 40.7013 130.974 40.6765C130.783 40.6142 130.596 40.5422 130.412 40.4607C130.396 40.4462 130.375 40.4385 130.353 40.4392C130.331 40.4398 130.31 40.4487 130.295 40.4641C130.28 40.4795 130.271 40.5002 130.27 40.5219C130.27 40.5437 130.277 40.5649 130.292 40.5811L130.317 40.6464C130.346 40.7125 130.358 40.7853 130.351 40.8575C130.344 40.9297 130.319 40.9988 130.277 41.058C130.234 41.1147 130.177 41.1596 130.112 41.1885C130.047 41.2175 129.976 41.2296 129.905 41.2236C127.696 41.1194 125.483 41.1277 123.275 41.2487C123.241 41.2487 123.209 41.2355 123.186 41.212C123.162 41.1884 123.149 41.1565 123.149 41.1232C123.149 41.0899 123.162 41.058 123.186 41.0345C123.209 41.011 123.241 40.9977 123.275 40.9977C125.491 40.8768 127.713 40.8684 129.93 40.9726C129.958 40.9774 129.987 40.9743 130.014 40.9637C130.041 40.9531 130.064 40.9353 130.081 40.9124C130.096 40.8865 130.104 40.857 130.104 40.8271C130.104 40.7971 130.096 40.7677 130.081 40.7418L130.056 40.6865C130.021 40.6227 130.007 40.5492 130.017 40.4771C130.028 40.405 130.061 40.3381 130.113 40.2866C130.164 40.2351 130.231 40.2017 130.303 40.1915C130.375 40.1812 130.449 40.1947 130.513 40.2298C130.685 40.3109 130.863 40.3797 131.045 40.4356C131.06 40.4478 131.08 40.4544 131.1 40.4544C131.12 40.4544 131.139 40.4478 131.155 40.4356C131.168 40.412 131.172 40.3848 131.167 40.3585C131.163 40.3321 131.15 40.308 131.13 40.29C130.984 40.1194 130.849 39.9387 130.723 39.758C130.651 39.6639 130.614 39.5472 130.62 39.4287C130.625 39.3102 130.673 39.1974 130.753 39.1105C130.846 39.0244 130.968 38.9766 131.095 38.9766C131.221 38.9766 131.343 39.0244 131.436 39.1105C131.798 39.3745 132.134 39.672 132.44 39.9989C132.869 40.5015 133.408 40.8982 134.016 41.1584C134.032 41.1635 134.047 41.1717 134.059 41.1826C134.072 41.1935 134.083 41.2068 134.09 41.2217C134.097 41.2367 134.102 41.253 134.103 41.2697C134.104 41.2864 134.102 41.3032 134.096 41.319C134.092 41.3396 134.082 41.3587 134.068 41.3745C134.054 41.3903 134.036 41.4022 134.016 41.4093Z" fill="white"/>
<path d="M131.863 59.7995L135.221 53.9922H128.51L131.863 59.7995Z" fill="#00A7E1"/>
<path d="M169.543 42.7444C168.116 41.4818 166.257 40.8168 164.353 40.8873C163.133 38.4278 160.618 36.9923 157.958 37.4792C154.144 38.1768 152.979 42.7595 155.629 44.4309C156.506 44.9862 157.455 45.417 158.45 45.7109V45.8313C156.892 46.3934 155.528 47.3933 154.524 48.7109C153.52 50.0286 152.917 51.6082 152.788 53.2599C152.397 58.9418 158.5 62.2646 161.823 59.1024C162.283 58.6662 162.718 58.2054 163.128 57.7221C163.771 58.6256 164.463 59.5491 165.211 60.5128C173.513 56.6881 174.913 47.3773 169.543 42.7444Z" fill="#263238"/>
<path d="M152.854 64.8341C152.803 65.5368 152.743 66.1491 152.653 66.7916C152.562 67.4341 152.477 68.0565 152.372 68.6839C152.161 69.9437 151.87 71.1935 151.574 72.4233C150.963 74.925 150.109 77.3609 149.024 79.6963L148.918 79.9171C148.878 80.0025 148.868 80.0326 148.793 80.1832C148.667 80.4314 148.518 80.6668 148.346 80.8859C148.023 81.2833 147.634 81.6227 147.197 81.8897C146.474 82.3203 145.678 82.6114 144.848 82.748C143.48 82.9586 142.09 82.9772 140.717 82.8033C138.175 82.4917 135.678 81.8905 133.273 81.0114L133.825 79.0036C134.985 79.1793 136.194 79.3399 137.379 79.4453C138.546 79.5723 139.719 79.6327 140.893 79.626C141.97 79.6456 143.046 79.531 144.095 79.2847C144.474 79.1931 144.834 79.0313 145.154 78.8079C145.233 78.7502 145.3 78.6767 145.35 78.592C145.363 78.5667 145.373 78.5397 145.38 78.5117L145.52 78.1503C145.731 77.6133 145.937 77.0712 146.113 76.514C146.288 75.9569 146.474 75.4048 146.65 74.8476C146.966 73.7183 147.277 72.5889 147.533 71.4345C147.789 70.28 148 69.1256 148.196 67.9611C148.391 66.7966 148.547 65.592 148.662 64.5078L152.854 64.8341Z" fill="#FFB573"/>
<path d="M149.998 59.8105C148.301 60.2371 147.117 67.2089 147.117 67.2089L151.784 70.3812C151.784 70.3812 156.262 63.3541 154.957 61.4919C153.591 59.5494 152.467 59.178 149.998 59.8105Z" fill="#263238"/>
<path opacity="0.2" d="M150.148 61.3672L148.848 68.3892L151.468 70.1711L150.148 61.3672Z" fill="black"/>
<path d="M132.079 79.0941L128.911 80.3088L132.49 82.4671C132.49 82.4671 134.774 81.147 134.714 79.4555L134.362 79.2547C134.018 79.06 133.634 78.9445 133.239 78.9167C132.844 78.8889 132.447 78.9495 132.079 79.0941Z" fill="#FFB573"/>
<path opacity="0.1" d="M131.843 79.25L130.277 79.8071C129.971 79.9106 129.671 80.0312 129.378 80.1685C129.378 80.1685 130.412 80.6002 130.929 80.3091C131.713 80.3681 132.502 80.3209 133.273 80.1685L131.843 79.25Z" fill="black"/>
<path d="M126.939 82.6641L129.634 84.9077L132.485 82.4884L128.911 80.3301L126.939 82.6641Z" fill="#FFB573"/>
<path d="M159.158 177.122H155.052L154.776 167.605H158.887L159.158 177.122Z" fill="#FFB573"/>
<path d="M154.911 176.645H159.524C159.604 176.643 159.682 176.67 159.743 176.722C159.805 176.774 159.844 176.846 159.856 176.926L160.357 180.58C160.367 180.672 160.358 180.765 160.329 180.853C160.301 180.941 160.254 181.022 160.192 181.091C160.13 181.16 160.054 181.214 159.969 181.252C159.884 181.289 159.793 181.308 159.7 181.308C158.094 181.282 157.316 181.187 155.283 181.187C154.038 181.187 150.449 181.318 148.723 181.318C146.996 181.318 146.906 179.611 147.623 179.455C150.846 178.763 153.145 177.809 154.204 176.896C154.403 176.731 154.653 176.642 154.911 176.645Z" fill="#263238"/>
<g opacity="0.2">
<path opacity="0.2" d="M154.776 167.606L154.917 172.515H159.027L158.887 167.606H154.776Z" fill="black"/>
</g>
<path d="M149.998 59.8108C149.998 59.8108 148.04 60.4985 151.96 84.6113H168.649C168.368 77.8202 168.363 73.629 171.611 59.6904C169.274 59.2068 166.906 58.8947 164.523 58.7568C162 58.5759 159.467 58.5759 156.944 58.7568C153.687 59.0529 149.998 59.8108 149.998 59.8108Z" fill="#263238"/>
<path d="M161.492 66.4197C160.113 66.3786 158.773 65.9546 157.622 65.195C157.609 65.186 157.597 65.1743 157.588 65.1607C157.579 65.1472 157.573 65.132 157.571 65.1161C157.568 65.1001 157.568 65.0838 157.572 65.068C157.576 65.0523 157.582 65.0374 157.592 65.0243C157.601 65.0104 157.613 64.9984 157.627 64.989C157.64 64.9797 157.656 64.9732 157.672 64.9699C157.689 64.9666 157.706 64.9666 157.722 64.97C157.738 64.9733 157.754 64.9798 157.768 64.9892C158.998 65.796 160.448 66.2027 161.918 66.1537C162.466 65.8074 166.25 63.2826 166.536 58.9108C166.538 58.8943 166.542 58.8782 166.55 58.8635C166.557 58.8487 166.567 58.8356 166.58 58.8249C166.593 58.8141 166.607 58.806 166.623 58.801C166.639 58.7959 166.655 58.794 166.672 58.7954C166.688 58.7966 166.704 58.8011 166.719 58.8086C166.734 58.8161 166.747 58.8265 166.758 58.8391C166.768 58.8517 166.777 58.8663 166.782 58.882C166.787 58.8978 166.789 58.9144 166.787 58.9309C166.496 63.4031 162.772 65.9228 162.024 66.3796C162.006 66.3845 161.987 66.3845 161.969 66.3796C161.808 66.4147 161.647 66.4197 161.492 66.4197Z" fill="white"/>
<path d="M154.389 65.6487C154.368 65.656 154.345 65.656 154.324 65.6487C154.141 65.5065 153.991 65.3258 153.885 65.1194C153.78 64.913 153.72 64.6859 153.712 64.4541C153.476 62.9233 154.043 60.248 155.218 58.8626C155.229 58.8505 155.243 58.8408 155.259 58.8342C155.274 58.8276 155.291 58.8242 155.308 58.8242C155.325 58.8242 155.342 58.8276 155.357 58.8342C155.373 58.8408 155.387 58.8505 155.398 58.8626C155.421 58.8861 155.434 58.9176 155.434 58.9505C155.434 58.9833 155.421 59.0148 155.398 59.0383C154.284 60.3383 153.707 62.9534 153.933 64.4291C153.955 64.8108 154.122 65.1697 154.399 65.4329C155.094 65.3121 155.77 65.0977 156.407 64.7955C156.438 64.7833 156.472 64.7833 156.503 64.7955C156.534 64.8076 156.559 64.8309 156.573 64.8607C156.58 64.8759 156.583 64.8922 156.583 64.9087C156.584 64.9253 156.581 64.9417 156.575 64.9571C156.569 64.9725 156.56 64.9865 156.548 64.9984C156.537 65.0103 156.523 65.0198 156.508 65.0264C155.835 65.3333 155.121 65.5428 154.389 65.6487Z" fill="white"/>
<path d="M163.771 50.2227C163.294 52.657 162.817 57.1292 164.523 58.7555C164.523 58.7555 163.856 61.23 159.323 61.23C154.339 61.23 156.944 58.7555 156.944 58.7555C159.66 58.103 159.589 56.0852 159.118 54.1929L163.771 50.2227Z" fill="#FFB573"/>
<path d="M164.518 58.7568C161.995 58.5759 159.462 58.5759 156.939 58.7568L156.437 58.807C155.83 59.9514 155.679 61.7131 157.13 64.3282C157.13 64.3282 163.776 61.6479 165.507 58.8471C165.186 58.7969 164.855 58.7718 164.518 58.7568Z" fill="#FFB573"/>
<path opacity="0.2" d="M161.873 51.8457L159.113 54.2098C159.232 54.6501 159.311 55.1003 159.349 55.555C160.388 55.4044 161.813 54.265 161.923 53.1758C161.99 52.7332 161.973 52.2821 161.873 51.8457Z" fill="black"/>
<path d="M166.401 45.9978C165.472 49.9681 165.161 51.6696 162.782 53.3812C159.208 55.9612 154.535 53.9534 154.249 49.7824C153.998 46.0329 155.564 40.1653 159.77 39.2418C160.695 39.0332 161.658 39.0644 162.568 39.3324C163.477 39.6003 164.303 40.0962 164.967 40.7729C165.631 41.4496 166.112 42.2848 166.363 43.1992C166.613 44.1136 166.627 45.0769 166.401 45.9978Z" fill="#FFB573"/>
<path d="M151.96 84.6116C151.96 84.6116 148.718 116.268 148.989 128.782C149.27 141.832 154.043 171.541 154.043 171.541H159.615C159.615 171.541 158.736 142.575 159.228 129.775C159.765 115.817 164.197 84.6016 164.197 84.6016L151.96 84.6116Z" fill="#00A7E1"/>
<path opacity="0.3" d="M151.96 84.6116C151.96 84.6116 148.718 116.268 148.989 128.782C149.27 141.832 154.043 171.541 154.043 171.541H159.615C159.615 171.541 158.736 142.575 159.228 129.775C159.765 115.817 164.197 84.6016 164.197 84.6016L151.96 84.6116Z" fill="white"/>
<path d="M160.081 171.762H153.561L153.084 169.684L160.388 169.428L160.081 171.762Z" fill="#263238"/>
<path opacity="0.2" d="M159.158 92.4857C155.062 100.732 158.335 115.775 159.785 121.372C160.528 112.97 161.793 102.69 162.762 95.1459C162.124 90.8795 161.05 88.6861 159.158 92.4857Z" fill="black"/>
<path d="M178.367 177.122H174.256L172.75 167.605H176.856L178.367 177.122Z" fill="#FFB573"/>
<path d="M174.055 176.645H178.688C178.771 176.646 178.85 176.674 178.916 176.725C178.981 176.776 179.028 176.846 179.049 176.926L180.053 180.58C180.078 180.666 180.082 180.757 180.064 180.845C180.047 180.934 180.009 181.016 179.954 181.087C179.899 181.158 179.828 181.215 179.746 181.253C179.665 181.292 179.576 181.31 179.486 181.307C177.875 181.282 177.087 181.187 175.054 181.187C173.804 181.187 170.236 181.318 168.529 181.318C166.822 181.318 166.491 179.611 167.189 179.455C170.321 178.763 172.469 177.809 173.438 176.895C173.607 176.74 173.826 176.651 174.055 176.645Z" fill="#263238"/>
<g opacity="0.2">
<path opacity="0.2" d="M172.75 167.606L173.528 172.515H177.639L176.861 167.606H172.75Z" fill="black"/>
</g>
<path d="M156.603 84.6116C156.603 84.6116 160.051 116.268 161.949 128.782C163.921 141.832 172.554 171.541 172.554 171.541H178.086C178.086 171.541 173.448 142.575 172.278 129.775C171.003 115.817 168.8 84.6016 168.8 84.6016L156.603 84.6116Z" fill="#00A7E1"/>
<path opacity="0.3" d="M156.603 84.6116C156.603 84.6116 160.051 116.268 161.949 128.782C163.921 141.832 172.554 171.541 172.554 171.541H178.086C178.086 171.541 173.448 142.575 172.278 129.775C171.003 115.817 168.8 84.6016 168.8 84.6016L156.603 84.6116Z" fill="white"/>
<path d="M178.593 171.762H172.073L171.325 169.684L178.593 169.428V171.762Z" fill="#263238"/>
<path d="M172.605 177.364C172.244 177.393 171.883 177.305 171.576 177.113C171.503 177.056 171.444 176.984 171.403 176.902C171.362 176.819 171.34 176.728 171.34 176.636C171.334 176.585 171.343 176.534 171.367 176.488C171.39 176.443 171.426 176.405 171.47 176.38C171.937 176.104 173.684 176.937 173.88 177.038C173.899 177.046 173.916 177.06 173.928 177.078C173.939 177.095 173.945 177.117 173.945 177.138C173.945 177.157 173.939 177.175 173.927 177.19C173.915 177.205 173.898 177.215 173.88 177.218C173.46 177.308 173.033 177.356 172.605 177.364ZM171.761 176.516C171.701 176.511 171.64 176.524 171.586 176.551C171.567 176.561 171.553 176.576 171.544 176.595C171.535 176.614 171.532 176.635 171.536 176.656C171.536 176.716 171.55 176.775 171.576 176.828C171.602 176.882 171.64 176.93 171.686 176.967C171.967 177.193 172.645 177.228 173.538 177.078C172.98 176.797 172.38 176.607 171.761 176.516Z" fill="#00A7E1"/>
<path d="M173.859 177.218H173.819C173.317 176.992 172.218 176.109 172.233 175.642C172.233 175.532 172.298 175.396 172.564 175.366C172.765 175.349 172.965 175.41 173.122 175.537C173.542 175.974 173.828 176.523 173.945 177.118C173.948 177.134 173.947 177.151 173.942 177.167C173.937 177.183 173.927 177.197 173.915 177.208C173.898 177.217 173.878 177.22 173.859 177.218ZM172.665 175.552H172.61C172.434 175.552 172.429 175.642 172.429 175.662C172.429 175.943 173.167 176.641 173.704 176.942C173.6 176.463 173.362 176.024 173.016 175.677C172.917 175.597 172.793 175.553 172.665 175.552Z" fill="#00A7E1"/>
<path d="M159.82 45.9713C159.765 46.2975 159.544 46.5334 159.318 46.4732C159.093 46.413 158.972 46.1419 159.032 45.8157C159.093 45.4894 159.303 45.2535 159.534 45.2886C159.765 45.3238 159.876 45.645 159.82 45.9713Z" fill="#263238"/>
<path d="M156.126 45.3448C156.071 45.6711 155.85 45.907 155.624 45.8468C155.398 45.7865 155.283 45.5205 155.338 45.1892C155.393 44.858 155.609 44.6271 155.84 44.6873C156.071 44.7475 156.181 45.0186 156.126 45.3448Z" fill="#263238"/>
<path d="M155.93 44.7227L155.183 44.3613C155.183 44.3613 155.484 45.044 155.93 44.7227Z" fill="#263238"/>
<path d="M157.165 46.127C156.752 46.8217 156.245 47.4567 155.659 48.0142C155.807 48.1607 155.984 48.2738 156.179 48.3457C156.374 48.4176 156.582 48.4466 156.789 48.4308L157.165 46.127Z" fill="#ED893E"/>
<path d="M158.335 50.0131C158.166 50.0132 157.998 49.9981 157.833 49.9679C157.82 49.9661 157.808 49.9617 157.797 49.9552C157.786 49.9486 157.777 49.9399 157.769 49.9296C157.762 49.9193 157.757 49.9076 157.754 49.8952C157.751 49.8828 157.75 49.87 157.752 49.8575C157.757 49.8316 157.772 49.8087 157.794 49.7937C157.815 49.7787 157.842 49.7727 157.868 49.7772C158.272 49.8547 158.689 49.8361 159.085 49.7227C159.481 49.6094 159.845 49.4045 160.147 49.1246C160.156 49.1149 160.166 49.1071 160.179 49.1018C160.191 49.0965 160.204 49.0938 160.217 49.0938C160.23 49.0938 160.243 49.0965 160.255 49.1018C160.267 49.1071 160.278 49.1149 160.287 49.1246C160.296 49.1335 160.303 49.1441 160.308 49.1557C160.313 49.1673 160.315 49.1798 160.315 49.1924C160.315 49.205 160.313 49.2175 160.308 49.2291C160.303 49.2407 160.296 49.2513 160.287 49.2602C159.762 49.7595 159.06 50.0302 158.335 50.0131Z" fill="#263238"/>
<path d="M168.338 39.8136C167.867 39.483 167.332 39.254 166.767 39.141C166.31 35.2259 163.173 32.7364 159.675 33.5244C155.71 34.4178 154.329 39.3368 156.994 41.0132C158.562 41.9712 160.333 42.5472 162.164 42.6947C162.235 45.9422 164.257 48.7179 165.678 48.8685C169.734 47.2523 170.783 41.5352 168.338 39.8136Z" fill="#263238"/>
<path d="M166.862 49.8614C166.463 50.541 165.812 51.0366 165.051 51.2417C164.047 51.4977 163.545 50.5892 163.856 49.6456C164.122 48.7973 164.975 47.6379 165.984 47.7935C166.203 47.8335 166.409 47.9273 166.583 48.0665C166.757 48.2057 166.893 48.3858 166.98 48.5908C167.067 48.7958 167.102 49.0192 167.082 49.241C167.061 49.4628 166.986 49.6759 166.862 49.8614Z" fill="#FFB573"/>
<path d="M161.432 45.4701C161.39 45.47 161.35 45.4568 161.317 45.4325C161.283 45.4081 161.259 45.3739 161.246 45.3346C160.98 44.4763 159.881 44.1048 159.871 44.1048C159.821 44.0888 159.781 44.0539 159.757 44.0078C159.734 43.9617 159.729 43.9082 159.745 43.8589C159.752 43.8342 159.765 43.8112 159.781 43.7913C159.798 43.7715 159.818 43.7552 159.841 43.7435C159.864 43.7318 159.889 43.7248 159.915 43.7231C159.941 43.7214 159.967 43.7249 159.991 43.7334C160.041 43.7334 161.296 44.1701 161.617 45.2392C161.633 45.2885 161.629 45.342 161.605 45.3881C161.582 45.4342 161.541 45.4691 161.492 45.4852L161.432 45.4701Z" fill="#263238"/>
<path d="M155.308 43.4477C155.274 43.4476 155.24 43.4389 155.21 43.4222C155.18 43.4055 155.155 43.3814 155.137 43.3523C155.112 43.307 155.106 43.2536 155.12 43.2037C155.134 43.1539 155.167 43.1116 155.213 43.0863C155.477 42.9264 155.776 42.8321 156.084 42.8111C156.392 42.7901 156.701 42.8432 156.984 42.9658C157.024 42.9926 157.052 43.0328 157.064 43.0789C157.076 43.125 157.071 43.1738 157.049 43.2163C157.028 43.2588 156.991 43.2919 156.947 43.3096C156.903 43.3272 156.854 43.3281 156.809 43.3122C156.582 43.2194 156.337 43.1811 156.093 43.2003C155.849 43.2195 155.613 43.2956 155.403 43.4226C155.375 43.4402 155.342 43.4489 155.308 43.4477Z" fill="#263238"/>
<path d="M173.528 64.4727C174.03 66.8368 174.361 69.1607 174.642 71.5349C174.939 73.9183 175.107 76.316 175.144 78.7175C175.144 78.838 175.144 79.0889 175.144 79.3098C175.144 79.5306 175.109 79.7113 175.084 79.897C175.024 80.2635 174.959 80.6048 174.873 80.9009C174.713 81.5434 174.522 82.1407 174.321 82.7279C173.92 83.8975 173.443 85.0067 172.961 86.1009C171.979 88.271 170.889 90.3902 169.693 92.4504L167.806 91.572L168.925 88.2693C169.302 87.1751 169.663 86.0708 170 84.9716C170.336 83.8723 170.662 82.7832 170.943 81.709C171.079 81.172 171.194 80.6399 171.275 80.138C171.315 79.887 171.345 79.636 171.365 79.4353C171.365 79.3299 171.365 79.2345 171.365 79.1492L171.34 78.8631C171.249 77.7387 171.119 76.6094 170.983 75.475L170.512 72.0619C170.165 69.7931 169.779 67.4943 169.392 65.2507L173.528 64.4727Z" fill="#FFB573"/>
<path d="M171.611 59.6902C173.282 60.1921 175.29 65.9543 175.29 65.9543L168.8 70.5921C168.8 70.5921 166.436 65.7886 167.139 63.6253C167.871 61.3766 169.698 59.1079 171.611 59.6902Z" fill="#263238"/>
<path d="M153.366 177.364C153.012 177.399 152.657 177.31 152.362 177.113C152.295 177.054 152.244 176.98 152.213 176.897C152.183 176.813 152.173 176.724 152.186 176.636C152.188 176.583 152.204 176.532 152.233 176.487C152.261 176.442 152.3 176.405 152.347 176.38C152.849 176.104 154.49 176.937 154.676 177.038C154.693 177.047 154.708 177.062 154.717 177.08C154.726 177.098 154.729 177.118 154.726 177.138C154.723 177.157 154.714 177.176 154.701 177.19C154.687 177.204 154.67 177.214 154.65 177.218C154.228 177.306 153.797 177.355 153.366 177.364ZM152.633 176.516C152.57 176.512 152.508 176.524 152.452 176.551C152.433 176.561 152.416 176.576 152.405 176.594C152.393 176.613 152.387 176.634 152.387 176.656C152.379 176.713 152.385 176.771 152.404 176.825C152.424 176.879 152.455 176.928 152.497 176.967C152.748 177.193 153.426 177.228 154.334 177.078C153.804 176.794 153.228 176.604 152.633 176.516Z" fill="#00A7E1"/>
<path d="M154.64 177.217H154.595C154.093 176.991 153.135 176.108 153.215 175.641C153.215 175.531 153.31 175.395 153.576 175.365C153.674 175.355 153.772 175.365 153.865 175.395C153.958 175.424 154.044 175.472 154.118 175.536C154.62 175.967 154.731 177.071 154.731 177.117C154.734 177.134 154.731 177.152 154.724 177.168C154.717 177.184 154.705 177.197 154.691 177.207C154.675 177.215 154.658 177.218 154.64 177.217ZM153.662 175.551H153.591C153.416 175.551 153.406 175.641 153.401 175.661C153.355 175.942 154.013 176.64 154.51 176.941C154.478 176.478 154.302 176.036 154.008 175.676C153.913 175.592 153.789 175.547 153.662 175.551Z" fill="#00A7E1"/>
<path d="M159.615 45.3497L158.867 44.9883C158.867 44.9883 159.178 45.6759 159.615 45.3497Z" fill="#263238"/>
<path d="M168.9 83.6323L169.327 85.1381C169.387 85.2585 169.247 85.374 169.056 85.374H151.875C151.724 85.374 151.604 85.2987 151.594 85.2083L151.443 83.7025C151.443 83.5971 151.564 83.5118 151.724 83.5118H168.649C168.698 83.5106 168.746 83.5209 168.789 83.5419C168.833 83.5628 168.871 83.5938 168.9 83.6323Z" fill="#00A7E1"/>
<path d="M166.642 85.5194H167.093C167.184 85.5194 167.249 85.4742 167.244 85.419L167.033 83.4765C167.033 83.4213 166.948 83.3711 166.857 83.3711H166.406C166.315 83.3711 166.245 83.4213 166.25 83.4765L166.466 85.419C166.461 85.4742 166.541 85.5194 166.642 85.5194Z" fill="#00A7E1"/>
<g opacity="0.3">
<path opacity="0.3" d="M166.642 85.5194H167.093C167.184 85.5194 167.249 85.4742 167.244 85.419L167.033 83.4765C167.033 83.4213 166.948 83.3711 166.857 83.3711H166.406C166.315 83.3711 166.245 83.4213 166.25 83.4765L166.466 85.419C166.461 85.4742 166.541 85.5194 166.642 85.5194Z" fill="white"/>
</g>
<path d="M153.15 85.5194H153.601C153.692 85.5194 153.762 85.4742 153.757 85.419L153.541 83.4765C153.541 83.4213 153.456 83.3711 153.366 83.3711H152.914C152.823 83.3711 152.753 83.4213 152.763 83.4765L152.974 85.419C152.979 85.4742 153.059 85.5194 153.15 85.5194Z" fill="#00A7E1"/>
<path opacity="0.3" d="M153.15 85.5194H153.601C153.692 85.5194 153.762 85.4742 153.757 85.419L153.541 83.4765C153.541 83.4213 153.456 83.3711 153.366 83.3711H152.914C152.823 83.3711 152.753 83.4213 152.763 83.4765L152.974 85.419C152.979 85.4742 153.059 85.5194 153.15 85.5194Z" fill="white"/>
<path d="M159.891 85.5194H160.342C160.433 85.5194 160.503 85.4742 160.493 85.419L160.282 83.4765C160.282 83.4213 160.197 83.3711 160.107 83.3711H159.655C159.564 83.3711 159.494 83.4213 159.504 83.4765L159.715 85.419C159.72 85.4742 159.8 85.5194 159.891 85.5194Z" fill="#00A7E1"/>
<path opacity="0.3" d="M159.891 85.5194H160.342C160.433 85.5194 160.503 85.4742 160.493 85.419L160.282 83.4765C160.282 83.4213 160.197 83.3711 160.107 83.3711H159.655C159.564 83.3711 159.494 83.4213 159.504 83.4765L159.715 85.419C159.72 85.4742 159.8 85.5194 159.891 85.5194Z" fill="white"/>
<path d="M167.881 91.2002L164.694 94.2921L168.85 94.7087C168.85 94.7087 170.356 92.5354 169.568 91.0195L167.881 91.2002Z" fill="#FFB573"/>
<path d="M164.222 97.7161L167.726 97.8768L168.85 94.7096L164.694 94.293L164.222 97.7161Z" fill="#FFB573"/>
<path d="M82.9695 177.739C83.3652 177.785 83.7644 177.687 84.0938 177.463C84.1395 177.412 84.1688 177.348 84.1778 177.28C84.1867 177.212 84.1749 177.143 84.144 177.082C84.1213 177.031 84.0873 176.986 84.0447 176.95C84.0021 176.915 83.9519 176.889 83.898 176.876C83.3057 176.71 81.8903 177.443 81.8501 177.478C81.8331 177.486 81.8187 177.499 81.8089 177.515C81.799 177.531 81.7942 177.55 81.7949 177.569C81.7957 177.585 81.8021 177.601 81.813 177.614C81.8239 177.627 81.8387 177.635 81.8552 177.639C82.2229 177.705 82.5958 177.739 82.9695 177.739ZM83.6621 177.026C83.717 177.019 83.7728 177.019 83.8278 177.026C83.8606 177.033 83.8914 177.048 83.9176 177.068C83.9438 177.089 83.9646 177.116 83.9783 177.147C84.0235 177.257 83.9783 177.313 83.9783 177.343C83.7725 177.579 82.839 177.584 82.1664 177.488C82.634 177.248 83.1403 177.092 83.6621 177.026Z" fill="#00A7E1"/>
<path d="M81.8702 177.638H81.9104C82.3822 177.437 83.381 176.634 83.376 176.222C83.376 176.122 83.3208 176.001 83.0849 175.976C82.9048 175.964 82.7264 176.017 82.583 176.127C82.1962 176.519 81.9268 177.011 81.805 177.547C81.7999 177.562 81.7996 177.577 81.8042 177.592C81.8087 177.606 81.8178 177.619 81.8301 177.628C81.8421 177.635 81.8561 177.639 81.8702 177.638ZM82.9895 176.132H83.0447C83.1953 176.132 83.2003 176.207 83.2003 176.227C83.2003 176.478 82.5127 177.106 82.0158 177.377C82.1271 176.947 82.3525 176.555 82.6683 176.242C82.7622 176.176 82.8746 176.141 82.9895 176.142V176.132Z" fill="#00A7E1"/>
<path d="M77.8297 177.553H81.5189L83.1402 169.01H79.451L77.8297 177.553Z" fill="#B55B52"/>
<path d="M81.554 177.127H77.5386C77.4618 177.13 77.3876 177.155 77.3252 177.2C77.2627 177.244 77.2147 177.306 77.1872 177.378L75.9776 180.656C75.9437 180.727 75.9289 180.805 75.9344 180.884C75.9399 180.962 75.9657 181.038 76.0091 181.104C76.0525 181.169 76.1122 181.223 76.1823 181.258C76.2524 181.294 76.3306 181.311 76.4092 181.308C77.8698 181.308 79.978 181.203 81.805 181.203C83.9382 181.203 83.7425 181.318 86.2471 181.318C87.7529 181.318 88.4054 179.787 87.793 179.647C85.0023 179.019 84.676 178.949 82.4123 177.413C82.1623 177.232 81.8627 177.132 81.554 177.127Z" fill="#263238"/>
<path opacity="0.2" d="M83.1402 169.016L82.3019 173.418H78.6127L79.451 169.016H83.1402Z" fill="black"/>
<path d="M83.4162 85.5547L85.8305 88.0894L81.9355 89.4497C81.9355 89.4497 80.52 87.3817 81.6092 85.9663L83.4162 85.5547Z" fill="#B55B52"/>
<path d="M86.5533 91.6315L82.6984 92.1937L81.9355 89.4481L85.8305 88.0879L86.5533 91.6315Z" fill="#B55B52"/>
<path d="M68.9455 106.591L87.7579 107.414C88.2 107.421 88.6309 107.275 88.9776 107C89.3242 106.726 89.5654 106.34 89.6603 105.908L91.9089 94.4141C91.9556 94.2194 91.9579 94.0167 91.9156 93.8209C91.8733 93.6252 91.7876 93.4414 91.6647 93.2833C91.5417 93.1252 91.3848 92.9968 91.2056 92.9076C91.0263 92.8183 90.8292 92.7706 90.629 92.7678L71.8166 91.9396C71.3753 91.934 70.9457 92.0807 70.6 92.355C70.2544 92.6293 70.0139 93.0144 69.9193 93.4454L67.6656 104.94C67.618 105.135 67.615 105.338 67.6569 105.534C67.6988 105.731 67.7844 105.915 67.9074 106.074C68.0304 106.233 68.1877 106.362 68.3674 106.451C68.5471 106.541 68.7447 106.588 68.9455 106.591Z" fill="#263238"/>
<path d="M70.2355 110.125L93.475 111.128C94.002 111.149 94.5167 110.966 94.9128 110.617C95.3088 110.269 95.5559 109.782 95.6031 109.256L96.8329 94.9913C96.8577 94.7378 96.8303 94.4819 96.7523 94.2394C96.6744 93.997 96.5475 93.7731 96.3795 93.5816C96.2116 93.3901 96.0061 93.2352 95.7759 93.1262C95.5457 93.0173 95.2955 92.9568 95.041 92.9484L71.8065 91.9445C71.2795 91.9268 70.7656 92.1105 70.3693 92.4583C69.9729 92.8061 69.7241 93.2919 69.6733 93.8168L68.4436 108.082C68.4195 108.335 68.4474 108.591 68.5257 108.833C68.6039 109.075 68.7309 109.299 68.8987 109.49C69.0665 109.681 69.2716 109.836 69.5015 109.945C69.7314 110.054 69.9812 110.115 70.2355 110.125Z" fill="#00A7E1"/>
<path opacity="0.2" d="M70.2355 110.125L93.475 111.128C94.002 111.149 94.5167 110.966 94.9128 110.617C95.3088 110.269 95.5559 109.782 95.6031 109.256L96.8329 94.9913C96.8577 94.7378 96.8303 94.4819 96.7523 94.2394C96.6744 93.997 96.5475 93.7731 96.3795 93.5816C96.2116 93.3901 96.0061 93.2352 95.7759 93.1262C95.5457 93.0173 95.2955 92.9568 95.041 92.9484L71.8065 91.9445C71.2795 91.9268 70.7656 92.1105 70.3693 92.4583C69.9729 92.8061 69.7241 93.2919 69.6733 93.8168L68.4436 108.082C68.4195 108.335 68.4474 108.591 68.5257 108.833C68.6039 109.075 68.7309 109.299 68.8987 109.49C69.0665 109.681 69.2716 109.836 69.5015 109.945C69.7314 110.054 69.9812 110.115 70.2355 110.125Z" fill="black"/>
<path d="M87.2861 96.7264H87.2259L80.4799 96.4302C80.3041 96.4242 80.1315 96.3822 79.9725 96.307C79.8135 96.2317 79.6716 96.1248 79.5555 95.9927C79.4394 95.8606 79.3515 95.7061 79.2973 95.5388C79.2431 95.3715 79.2236 95.1949 79.2401 95.0198L79.5062 91.943C79.5717 91.3139 79.8723 90.7328 80.3479 90.3159C80.8234 89.899 81.4388 89.677 82.071 89.6943L86.5884 89.8901C86.9149 89.903 87.2353 89.9822 87.5301 90.1229C87.825 90.2635 88.0882 90.4627 88.3037 90.7082C88.5192 90.9538 88.6825 91.2406 88.7837 91.5512C88.8849 91.8618 88.9218 92.1898 88.8923 92.5152L88.6363 95.4966C88.6029 95.8322 88.4464 96.1435 88.1971 96.3705C87.9478 96.5976 87.6233 96.7243 87.2861 96.7264ZM80.761 94.9295L87.1406 95.2105L87.3865 92.3796C87.4004 92.2558 87.3886 92.1303 87.3516 92.0112C87.3147 91.8922 87.2536 91.782 87.172 91.6877C87.0904 91.5934 86.9902 91.517 86.8777 91.4633C86.7652 91.4097 86.6428 91.3798 86.5182 91.3758L82.0008 91.175C81.7549 91.1731 81.5169 91.2614 81.3319 91.4234C81.1468 91.5853 81.0276 91.8094 80.9969 92.0534L80.761 94.9295Z" fill="#00A7E1"/>
<path d="M95.9595 111.254L72.725 110.25C72.194 110.219 71.6938 109.991 71.3224 109.61C70.951 109.229 70.7352 108.724 70.7173 108.192L70.4061 93.862C70.3958 93.609 70.4387 93.3568 70.5319 93.1214C70.6251 92.886 70.7666 92.6728 70.9472 92.4955C71.1279 92.3181 71.3437 92.1806 71.5807 92.0918C71.8177 92.003 72.0708 91.9648 72.3235 91.9797L95.563 92.9836C96.0943 93.0134 96.5952 93.2413 96.9669 93.6223C97.3385 94.0032 97.5539 94.5096 97.5707 95.0415L97.8769 109.372C97.8863 109.624 97.843 109.876 97.7495 110.111C97.656 110.346 97.5145 110.559 97.334 110.736C97.1535 110.914 96.9381 111.051 96.7014 111.14C96.4647 111.229 96.212 111.268 95.9595 111.254Z" fill="#00A7E1"/>
<path d="M89.078 57.4819C88.832 57.9838 88.5409 58.556 88.2799 59.1031C88.0189 59.6503 87.778 60.2325 87.5019 60.7997C87 61.9391 86.498 63.0835 86.0664 64.2329C85.6347 65.3823 85.2332 66.5418 84.8768 67.6912C84.7112 68.2684 84.5405 68.8406 84.415 69.4078C84.3397 69.6939 84.2745 69.98 84.2243 70.2561L84.144 70.6777C84.1139 70.8233 84.0837 70.9688 84.0737 71.0692C84.0737 71.2901 84.0135 71.4908 84.0034 71.787C83.9934 72.0831 83.9683 72.324 83.9683 72.6302C83.9683 73.2175 83.9683 73.8349 83.9683 74.4522C83.9934 75.7021 84.0687 76.9619 84.144 78.2569C84.2895 80.8218 84.5054 83.4268 84.7061 85.9967L80.1084 86.7396C79.486 84.1245 78.9942 81.5345 78.5525 78.8793C78.3416 77.5542 78.1609 76.219 78.0104 74.8638C77.9401 74.1712 77.8698 73.4835 77.8347 72.7557C77.8046 72.4094 77.7996 72.0179 77.7945 71.6364C77.7895 71.2549 77.7945 70.8233 77.8397 70.3916C77.8497 70.195 77.8698 69.9989 77.8999 69.8043L77.9702 69.2522C78.0104 68.8808 78.0656 68.5194 78.1308 68.168C78.2513 67.4453 78.4019 66.7476 78.5525 66.0499C78.8787 64.6696 79.2501 63.3093 79.6918 61.9943C80.1335 60.6792 80.6003 59.3742 81.1223 58.0993C81.3833 57.4618 81.6243 56.8294 81.9355 56.197C82.2467 55.5645 82.4926 54.9622 82.839 54.2695L89.078 57.4819Z" fill="#00A7E1"/>
<path d="M99.1367 83.7578C99.1367 83.7578 95.5881 111.329 93.5352 122.572C91.397 134.267 83.8228 172.565 83.8228 172.565H77.5536C77.5536 172.565 80.7359 134.95 82.1463 123.466C83.6873 110.917 86.1618 83.7578 86.1618 83.7578H99.1367Z" fill="#263238"/>
<path d="M85.3687 170.074C85.3988 170.074 84.6359 172.669 84.6359 172.669H77.0366L77.1721 170.355L85.3687 170.074Z" fill="#00A7E1"/>
<path d="M102.158 37.9704C102.158 38.2816 102.324 38.5376 102.53 38.5376C102.736 38.5376 102.896 38.2816 102.896 37.9704C102.896 37.6592 102.731 37.4082 102.53 37.4082C102.329 37.4082 102.158 37.6441 102.158 37.9704Z" fill="#263238"/>
<path d="M102.294 38.5391C102.671 39.4941 103.178 40.3926 103.8 41.2093C103.585 41.3636 103.338 41.4688 103.078 41.5173C102.818 41.5659 102.55 41.5567 102.294 41.4904V38.5391Z" fill="#A02724"/>
<path d="M101.054 36.2389C101.091 36.2391 101.128 36.2286 101.16 36.2087C101.342 36.0673 101.556 35.9716 101.783 35.9297C102.01 35.8878 102.244 35.9008 102.465 35.9678C102.51 35.9843 102.56 35.9825 102.604 35.9629C102.648 35.9432 102.683 35.9072 102.7 35.8624C102.709 35.84 102.714 35.8161 102.713 35.792C102.713 35.768 102.707 35.7442 102.697 35.7223C102.688 35.7003 102.673 35.6805 102.656 35.6641C102.638 35.6476 102.618 35.6348 102.595 35.6265C102.318 35.537 102.022 35.5158 101.735 35.5648C101.447 35.6137 101.176 35.7313 100.944 35.9076C100.905 35.9366 100.879 35.9796 100.872 36.0274C100.864 36.0752 100.876 36.1241 100.904 36.1636C100.921 36.1874 100.943 36.2067 100.97 36.2198C100.996 36.2329 101.025 36.2395 101.054 36.2389Z" fill="#263238"/>
<path d="M92.2753 41.4199C92.7772 44.1203 93.3293 49.0644 91.4421 50.8613C91.4421 50.8613 92.1799 53.5968 97.1942 53.5968C102.715 53.5968 99.8244 50.8613 99.8244 50.8613C96.8128 50.1435 96.8981 47.9149 97.4201 45.8168L92.2753 41.4199Z" fill="#B55B52"/>
<path d="M90.7193 51.8002C90.3278 50.9368 89.8911 49.943 90.7896 49.6318C91.7935 49.2905 97.1993 48.9442 99.0665 49.5866C99.3128 49.6549 99.5431 49.7714 99.7441 49.9293C99.9451 50.0872 100.113 50.2834 100.237 50.5065C100.362 50.7297 100.441 50.9753 100.47 51.2292C100.499 51.4832 100.478 51.7404 100.407 51.9859L90.7193 51.8002Z" fill="#263238"/>
<path d="M84.1791 51.9208C80.9517 53.3864 78.944 64.4992 78.944 64.4992L85.2733 66.5069C86.5169 63.5724 87.5501 60.5532 88.3652 57.4722C89.5147 52.8343 87.4818 50.425 84.1791 51.9208Z" fill="#00A7E1"/>
<path d="M123.475 79.4355H127.37L126.688 84.0935C126.688 84.0935 123.636 83.9831 122.251 81.6842L123.475 79.4355Z" fill="#B55B52"/>
<path d="M131.035 81.0565L129.077 84.6554L126.668 84.1032L127.35 79.4453L131.035 81.0565Z" fill="#B55B52"/>
<path d="M91.7432 37.3078C91.9791 41.1426 91.9239 43.4013 93.8614 45.3689C96.7726 48.3303 101.506 46.5735 102.419 42.7438C103.248 39.3005 102.721 33.6086 98.966 32.0827C98.1403 31.7424 97.2412 31.6189 96.3542 31.7238C95.4673 31.8286 94.6218 32.1585 93.8982 32.682C93.1746 33.2055 92.5967 33.9053 92.2196 34.7149C91.8424 35.5245 91.6784 36.417 91.7432 37.3078Z" fill="#B55B52"/>
<path d="M91.3015 42.5245C91.3015 42.5245 87.8282 37.3145 88.5811 33.9164C89.2687 30.8094 96.2807 29.7001 99.1919 30.0113C102.284 30.3476 103.488 31.6778 101.792 34.3581C100.791 34.8326 99.7381 35.1896 98.6549 35.4222C98.6549 35.4222 100.376 37.5353 100.392 38.9357C99.8896 39.1967 98.3386 39.8191 98.3386 39.8191C98.3386 39.8191 96.1402 45.245 96.0749 45.2349C95.2267 45.1346 93.2641 45.1044 92.5614 45.3705C92.0635 44.4583 91.6421 43.5064 91.3015 42.5245Z" fill="#263238"/>
<path d="M96.8178 39.2558C97.071 40.1731 97.6175 40.9823 98.3738 41.5597C99.3777 42.3126 100.126 41.5998 100.05 40.4705C99.985 39.4666 99.3827 37.8454 98.2784 37.5292C97.1742 37.213 96.5267 38.1466 96.8178 39.2558Z" fill="#B55B52"/>
<path opacity="0.3" d="M96.4765 94.0625C91.5425 95.2069 92.461 113.056 93.4097 123.23C93.4549 122.999 93.49 122.783 93.5302 122.572C94.7549 115.877 96.5066 103.398 97.7263 94.3938C97.3465 94.1744 96.9151 94.06 96.4765 94.0625Z" fill="black"/>
<path d="M101.25 177.739C101.722 177.739 102.178 177.674 102.334 177.463C102.374 177.408 102.396 177.341 102.396 177.272C102.396 177.204 102.374 177.137 102.334 177.082C102.304 177.03 102.265 176.986 102.217 176.95C102.17 176.915 102.116 176.89 102.058 176.876C101.446 176.71 100.156 177.443 100.1 177.478C100.085 177.487 100.073 177.501 100.066 177.517C100.059 177.533 100.057 177.551 100.06 177.569C100.064 177.586 100.072 177.602 100.085 177.614C100.097 177.627 100.113 177.635 100.131 177.639C100.5 177.704 100.875 177.737 101.25 177.739ZM101.837 177.026C101.892 177.019 101.948 177.019 102.003 177.026C102.038 177.033 102.072 177.048 102.101 177.069C102.13 177.089 102.155 177.116 102.173 177.147C102.239 177.257 102.214 177.313 102.173 177.343C102.003 177.579 101.069 177.584 100.382 177.488C100.832 177.241 101.327 177.084 101.837 177.026Z" fill="#00A7E1"/>
<path d="M100.136 177.639H100.171C100.617 177.438 101.501 176.635 101.431 176.223C101.431 176.123 101.345 176.003 101.104 175.977C101.015 175.967 100.924 175.974 100.838 176C100.751 176.026 100.671 176.07 100.602 176.128C100.131 176.515 100.035 177.508 100.03 177.549C100.028 177.564 100.03 177.579 100.037 177.594C100.043 177.608 100.053 177.62 100.065 177.629C100.087 177.641 100.112 177.645 100.136 177.639ZM101.034 176.133H101.089C101.245 176.133 101.255 176.208 101.26 176.228C101.3 176.479 100.698 177.107 100.256 177.378C100.302 176.957 100.477 176.561 100.758 176.244C100.837 176.181 100.934 176.146 101.034 176.143V176.133Z" fill="#00A7E1"/>
<path d="M96.08 177.553H99.7692L100.136 169.01H96.4514L96.08 177.553Z" fill="#B55B52"/>
<path d="M99.744 177.127H95.7286C95.6554 177.127 95.5844 177.152 95.527 177.198C95.4696 177.243 95.4293 177.307 95.4124 177.378L94.6846 180.656C94.6671 180.735 94.6678 180.817 94.6866 180.895C94.7053 180.974 94.7417 181.048 94.7928 181.11C94.844 181.173 94.9087 181.224 94.9821 181.258C95.0555 181.292 95.1356 181.309 95.2166 181.308C96.6672 181.308 98.7653 181.203 100.592 181.203C102.731 181.203 104.573 181.318 107.077 181.318C108.583 181.318 109.01 179.787 108.377 179.647C105.491 179.019 103.137 178.949 100.642 177.413C100.376 177.235 100.064 177.136 99.744 177.127Z" fill="#263238"/>
<path opacity="0.2" d="M100.136 169.016L99.9448 173.418H96.2556L96.4463 169.016H100.136Z" fill="black"/>
<path d="M105.717 83.7578C105.717 83.7578 106.219 111.329 105.823 122.572C105.406 134.267 101.305 172.565 101.305 172.565H95.0761C95.0761 172.565 94.8452 134.95 94.5742 123.466C94.268 110.917 92.7572 83.7578 92.7572 83.7578H105.717Z" fill="#263238"/>
<path d="M102.525 170.074C102.55 170.074 102.168 172.669 102.168 172.669H94.5742L94.3633 170.355L102.525 170.074Z" fill="#00A7E1"/>
<path d="M105.496 51.8847C105.496 51.8847 109.923 58.6307 106.214 86.0714H85.3838C85.2482 83.0598 87.7629 65.9589 84.8417 51.694C87.0215 51.2742 89.2263 50.9959 91.4421 50.8608C94.2339 50.7001 97.0326 50.7001 99.8244 50.8608C101.739 51.0537 103.635 51.396 105.496 51.8847Z" fill="#00A7E1"/>
<path opacity="0.2" d="M107.695 65.9234L103.328 58.6855C103.328 58.6855 104.969 68.9451 107.484 73.5729C107.655 70.6767 107.715 68.1369 107.695 65.9234Z" fill="black"/>
<path d="M109.557 57.1641C110.275 59.4579 111.063 61.8069 111.871 64.1058C112.679 66.4046 113.522 68.6884 114.446 70.8819L114.797 71.695C114.827 71.7554 114.854 71.8174 114.877 71.8807C114.898 71.9274 114.921 71.9726 114.948 72.0162C115.17 72.3486 115.43 72.655 115.721 72.9298C116.513 73.6673 117.364 74.3388 118.265 74.9375C119.209 75.59 120.208 76.2224 121.237 76.8197C122.266 77.417 123.33 78.0294 124.344 78.5564L122.391 83.114C119.921 82.2073 117.523 81.1132 115.219 79.8414C113.986 79.1532 112.811 78.3659 111.705 77.4873C111.046 76.9564 110.449 76.3537 109.923 75.6904C109.773 75.4746 109.627 75.2838 109.482 75.0429C109.336 74.802 109.175 74.5008 109.13 74.4004L108.689 73.522C107.539 71.183 106.51 68.844 105.561 66.495C104.613 64.1459 103.729 61.7818 102.881 59.3374L109.557 57.1641Z" fill="#00A7E1"/>
<path d="M100.577 53.5514C99.2873 56.834 107.132 70.0499 107.132 70.0499L112.237 65.1661C112.237 65.1661 111.123 61.0151 109.637 56.0159C108.171 51.102 101.807 50.4143 100.577 53.5514Z" fill="#00A7E1"/>
</svg>
