<svg width="183" height="187" viewBox="0 0 183 187" fill="none" xmlns="http://www.w3.org/2000/svg">
<path d="M25.0713 26.122L45.9571 68.6282C46.0614 68.842 46.1224 69.0743 46.1366 69.3117C46.1509 69.5492 46.118 69.7871 46.04 70.0118C45.962 70.2365 45.8403 70.4436 45.682 70.6211C45.5237 70.7987 45.3318 70.9432 45.1175 71.0463C44.9039 71.15 44.672 71.2105 44.435 71.2244C44.198 71.2382 43.9606 71.2052 43.7363 71.1273C43.5121 71.0493 43.3055 70.9278 43.1283 70.7698C42.951 70.6119 42.8067 70.4205 42.7035 70.2067L21.8303 27.7172C21.7261 27.5035 21.665 27.2712 21.6508 27.0337C21.6366 26.7963 21.6694 26.5583 21.7475 26.3336C21.8255 26.1089 21.9472 25.9018 22.1055 25.7243C22.2638 25.5468 22.4556 25.4023 22.67 25.2991C23.0981 25.0937 23.5899 25.0649 24.0391 25.2188C24.4884 25.3727 24.8591 25.6971 25.0713 26.122Z" fill="#E0E0E0"/>
<path d="M39.8336 57.0444L44.1366 65.8008L46.3257 64.725L42.0227 55.9687L39.8336 57.0444Z" fill="#E0E0E0"/>
<path d="M39.4459 52.2302C39.5453 52.4292 39.6041 52.646 39.6191 52.8679C39.634 53.0899 39.6047 53.3126 39.5328 53.5231C39.4609 53.7337 39.348 53.9278 39.2004 54.0943C39.0529 54.2608 38.8737 54.3963 38.6734 54.493L35.4366 56.0799C35.2376 56.1793 35.0208 56.2382 34.7989 56.2531C34.5769 56.268 34.3542 56.2387 34.1437 56.1668C33.9332 56.095 33.739 55.982 33.5725 55.8345C33.406 55.6869 33.2705 55.5078 33.1738 55.3074C33.0744 55.1084 33.0155 54.8916 33.0006 54.6697C32.9857 54.4477 33.015 54.225 33.0869 54.0145C33.1587 53.804 33.2717 53.6098 33.4193 53.4433C33.5668 53.2768 33.7459 53.1413 33.9463 53.0446L37.1831 51.4535C37.3823 51.3543 37.5993 51.2956 37.8215 51.281C38.0436 51.2663 38.2664 51.296 38.477 51.3683C38.6876 51.4406 38.8817 51.554 39.048 51.7019C39.2143 51.8499 39.3496 52.0295 39.4459 52.2302Z" fill="#E0E0E0"/>
<path d="M46.4022 66.5729L50.9194 64.3521L49.7439 61.9591L47.4811 63.0675L46.7464 61.5645L49.005 60.4562L47.0697 56.5141L45.4828 57.295L44.7439 55.7921L46.3308 55.0112L45.1595 52.6309L40.6423 54.8517L46.4022 66.5729Z" fill="#E0E0E0"/>
<path d="M19.7064 26.7512L21.5246 30.4512L27.9373 27.2998L26.1191 23.5999L19.7064 26.7512Z" fill="#E0E0E0"/>
<path d="M12.8631 13.9816C12.9337 14.1265 13.0136 14.2667 13.1024 14.4014C11.5043 15.3814 10.3294 16.9225 9.80758 18.7231C9.2858 20.5237 9.45469 22.4542 10.2812 24.1369C11.1672 25.9235 12.7234 27.2875 14.6107 27.9315C16.4981 28.5756 18.5635 28.4475 20.3568 27.5752L26.0117 24.7918C26.8991 24.356 27.6919 23.7498 28.345 23.0076C28.998 22.2654 29.4985 21.4018 29.8178 20.4662C30.1371 19.5306 30.2689 18.5412 30.2058 17.5546C30.1427 16.568 29.8859 15.6035 29.45 14.7162C28.6091 13.0074 27.1518 11.6808 25.3717 11.0038C23.5916 10.3268 21.6211 10.3498 19.8572 11.068C19.8026 10.9211 19.7438 10.7742 19.6767 10.6482C19.2313 9.74468 18.4453 9.05507 17.4914 8.7311C16.5376 8.40712 15.4942 8.47532 14.5906 8.92068C13.6871 9.36605 12.9975 10.1521 12.6735 11.1059C12.3495 12.0597 12.4177 13.1032 12.8631 14.0067V13.9816ZM20.9403 13.7087C21.6366 13.3662 22.4075 13.203 23.1828 13.234C23.9582 13.265 24.7135 13.4891 25.3803 13.886C26.0471 14.2828 26.6043 14.84 27.0012 15.5068C27.3981 16.1736 27.6222 16.9289 27.6531 17.7043C27.6841 18.4796 27.521 19.2504 27.1785 19.9468C26.836 20.6431 26.3251 21.2429 25.6921 21.6917C25.0591 22.1405 24.324 22.4241 23.5536 22.5168C22.7832 22.6095 22.0018 22.5084 21.2804 22.2225C21.0233 23.1284 20.4978 23.9351 19.7732 24.5364C19.0485 25.1377 18.1587 25.5054 17.221 25.591C16.2832 25.6766 15.3416 25.4761 14.52 25.0159C13.6985 24.5557 13.0357 23.8574 12.6189 23.013C12.2021 22.1686 12.0508 21.2178 12.1851 20.2858C12.3194 19.3538 12.7329 18.4843 13.3711 17.792C14.0093 17.0996 14.8423 16.6168 15.7604 16.4073C16.6784 16.1977 17.6383 16.2712 18.5138 16.618C18.6913 15.9898 18.9991 15.4061 19.4171 14.9048C19.8352 14.4036 20.3542 13.996 20.9403 13.7087ZM17.7833 11.2905C17.938 11.6119 17.994 11.9718 17.9442 12.325C17.8945 12.6781 17.7413 13.0086 17.504 13.2748C17.2666 13.541 16.9558 13.7309 16.6106 13.8205C16.2654 13.9102 15.9014 13.8957 15.5645 13.7787C15.2276 13.6617 14.9329 13.4476 14.7176 13.1633C14.5023 12.879 14.376 12.5373 14.3547 12.1813C14.3334 11.8253 14.418 11.471 14.5978 11.163C14.7776 10.8551 15.0447 10.6073 15.3652 10.4509C15.7973 10.2426 16.2944 10.2139 16.7477 10.3713C17.2009 10.5287 17.5733 10.8592 17.7833 11.2905Z" fill="#E0E0E0"/>
<path d="M158.983 152.778L169.89 99.2685C170.075 98.3597 169.488 97.4729 168.58 97.2877L167.847 97.1385C166.939 96.9532 166.052 97.5398 165.867 98.4485L154.96 151.958C154.775 152.867 155.362 153.753 156.27 153.939L157.003 154.088C157.911 154.273 158.798 153.687 158.983 152.778Z" fill="#E0E0E0"/>
<path d="M163.246 113.495L165.462 102.623L162.743 102.069L160.527 112.941L163.246 113.495Z" fill="#E0E0E0"/>
<path d="M167.95 120.011L168.089 119.328C168.263 118.476 167.713 117.644 166.861 117.47L162.16 116.511C161.308 116.338 160.476 116.887 160.302 117.739L160.163 118.422C159.989 119.274 160.539 120.105 161.391 120.279L166.093 121.238C166.944 121.412 167.776 120.862 167.95 120.011Z" fill="#E0E0E0"/>
<path d="M163.954 100.351L158.346 99.2051L157.737 102.177L160.541 102.753L160.164 104.616L157.359 104.046L156.36 108.936L158.329 109.339L157.947 111.203L155.978 110.805L155.378 113.76L160.986 114.902L163.954 100.351Z" fill="#E0E0E0"/>
<path d="M160.297 154.767L161.233 150.172L153.273 148.55L152.337 153.145L160.297 154.767Z" fill="#E0E0E0"/>
<path d="M157.565 171.001C157.602 170.821 157.628 170.638 157.64 170.455C159.76 170.683 161.889 170.113 163.611 168.855C165.333 167.597 166.524 165.743 166.952 163.654C167.405 161.429 166.956 159.115 165.704 157.22C164.451 155.326 162.498 154.007 160.273 153.553L153.245 152.121C152.143 151.897 151.009 151.892 149.905 152.106C148.801 152.32 147.751 152.75 146.813 153.37C145.876 153.99 145.07 154.789 144.441 155.721C143.812 156.653 143.373 157.699 143.148 158.801C142.714 160.924 143.102 163.133 144.234 164.981C145.365 166.829 147.156 168.18 149.244 168.759C149.189 168.928 149.143 169.101 149.106 169.275C148.992 169.831 148.99 170.403 149.097 170.959C149.205 171.516 149.422 172.046 149.734 172.519C150.047 172.991 150.45 173.398 150.92 173.715C151.389 174.033 151.917 174.254 152.473 174.367C153.594 174.596 154.761 174.37 155.716 173.739C156.671 173.107 157.336 172.122 157.565 171.001ZM150.109 165.627C149.245 165.451 148.438 165.062 147.762 164.495C147.086 163.928 146.562 163.201 146.239 162.381C145.915 161.56 145.801 160.672 145.907 159.796C146.014 158.92 146.337 158.085 146.848 157.366C147.359 156.647 148.042 156.067 148.834 155.679C149.626 155.29 150.502 155.106 151.384 155.142C152.265 155.178 153.124 155.434 153.881 155.886C154.639 156.338 155.271 156.972 155.722 157.73C156.585 157.098 157.619 156.742 158.687 156.709C159.756 156.675 160.81 156.966 161.711 157.543C162.611 158.12 163.316 158.956 163.733 159.941C164.149 160.927 164.258 162.015 164.044 163.062C163.83 164.11 163.305 165.069 162.536 165.813C161.767 166.556 160.791 167.05 159.737 167.228C158.682 167.406 157.598 167.262 156.628 166.813C155.657 166.363 154.845 165.631 154.299 164.712C153.703 165.148 153.022 165.455 152.301 165.613C151.579 165.77 150.833 165.775 150.109 165.627ZM151.268 170.001C151.349 169.604 151.546 169.239 151.835 168.953C152.124 168.668 152.491 168.474 152.889 168.397C153.288 168.32 153.701 168.363 154.075 168.52C154.449 168.678 154.768 168.943 154.992 169.281C155.216 169.62 155.334 170.018 155.332 170.424C155.33 170.83 155.207 171.226 154.98 171.563C154.752 171.899 154.43 172.16 154.054 172.314C153.678 172.467 153.265 172.505 152.867 172.424C152.334 172.315 151.866 171.998 151.566 171.544C151.266 171.09 151.159 170.535 151.268 170.001Z" fill="#E0E0E0"/>
<path d="M154.687 12.3095L150.875 12.3301L150.978 31.297L154.79 31.2764L154.687 12.3095Z" fill="#E0E0E0"/>
<path d="M127.723 12.3587L117.853 12.4121L117.91 22.8821L127.78 22.8287L127.723 12.3587Z" fill="#EBEBEB"/>
<path d="M137.546 12.306L127.677 12.3594L127.733 22.8294L137.603 22.776L137.546 12.306Z" fill="#F5F5F5"/>
<path d="M117.867 15.3122C124.427 15.3681 130.993 15.3388 137.565 15.224C137.593 15.224 137.619 15.213 137.639 15.1933C137.659 15.1736 137.67 15.1469 137.67 15.1191C137.67 15.0912 137.659 15.0645 137.639 15.0448C137.619 15.0252 137.593 15.0141 137.565 15.0141C131.007 14.9763 124.429 15.0141 117.871 15.1317C117.851 15.1361 117.832 15.1475 117.819 15.1639C117.806 15.1804 117.799 15.2008 117.799 15.2219C117.799 15.243 117.806 15.2635 117.819 15.2799C117.832 15.2963 117.851 15.3077 117.871 15.3122H117.867Z" fill="#E0E0E0"/>
<path d="M129.635 22.6591L111.7 22.7561L111.746 31.2908L129.681 31.1938L129.635 22.6591Z" fill="#EBEBEB"/>
<path d="M147.484 22.5631L129.55 22.6602L129.596 31.1949L147.53 31.0978L147.484 22.5631Z" fill="#F5F5F5"/>
<path d="M111.713 25.1358C123.627 25.2702 135.583 25.1358 147.498 24.9553C147.526 24.9553 147.552 24.9442 147.572 24.9245C147.592 24.9049 147.603 24.8782 147.603 24.8503C147.603 24.8225 147.592 24.7958 147.572 24.7761C147.552 24.7564 147.526 24.7454 147.498 24.7454C135.583 24.6824 123.627 24.6908 111.713 24.9553C111.692 24.9598 111.674 24.9712 111.66 24.9876C111.647 25.004 111.64 25.0245 111.64 25.0455C111.64 25.0666 111.647 25.0871 111.66 25.1035C111.674 25.1199 111.692 25.1313 111.713 25.1358Z" fill="#E0E0E0"/>
<path d="M174.488 31.2949H105.004V34.3512H174.488V31.2949Z" fill="#E0E0E0"/>
<path d="M119.202 32.7637H116.381V43.1961H119.202V32.7637Z" fill="#E0E0E0"/>
<path d="M161.306 32.7637H158.484V43.1961H161.306V32.7637Z" fill="#E0E0E0"/>
<path d="M158.48 4.45016L154.668 4.48828L154.929 30.5756L158.741 30.5374L158.48 4.45016Z" fill="#EBEBEB"/>
<path d="M164.364 10.0949L158.441 10.127L158.555 31.2685L164.479 31.2365L164.364 10.0949Z" fill="#F5F5F5"/>
<path d="M164.324 14.175C163.339 14.2774 162.349 14.3111 161.36 14.2757C160.372 14.3112 159.383 14.2775 158.4 14.175C160.373 14.0406 162.352 14.0406 164.324 14.175Z" fill="#E0E0E0"/>
<path d="M164.324 13.2885C163.339 13.3885 162.349 13.4221 161.36 13.3893C160.372 13.4222 159.383 13.3886 158.4 13.2885C160.372 13.1486 162.352 13.1486 164.324 13.2885Z" fill="#E0E0E0"/>
<path d="M164.324 28.062C162.352 28.1963 160.373 28.1963 158.4 28.062C160.372 27.922 162.352 27.922 164.324 28.062Z" fill="#E0E0E0"/>
<path d="M164.324 27.173C162.352 27.313 160.372 27.313 158.4 27.173C160.373 27.0387 162.352 27.0387 164.324 27.173Z" fill="#E0E0E0"/>
<path d="M161.457 25.2368C161.398 25.2368 161.352 23.1042 161.352 20.4719C161.352 17.8397 161.398 15.707 161.457 15.707C161.515 15.707 161.557 17.8397 161.557 20.4719C161.557 23.1042 161.511 25.2368 161.457 25.2368Z" fill="#E0E0E0"/>
<path d="M170.835 15.291H164.387V31.2482H170.835V15.291Z" fill="#EBEBEB"/>
<path d="M157.54 9.69923C157.54 9.91594 157.475 10.1278 157.355 10.308C157.235 10.4882 157.064 10.6286 156.863 10.7115C156.663 10.7945 156.443 10.8162 156.23 10.7739C156.018 10.7316 155.822 10.6273 155.669 10.474C155.516 10.3208 155.412 10.1255 155.369 9.913C155.327 9.70045 155.349 9.48014 155.432 9.27992C155.515 9.0797 155.655 8.90858 155.835 8.78818C156.015 8.66778 156.227 8.60352 156.444 8.60352C156.735 8.60352 157.013 8.71896 157.219 8.92444C157.424 9.12993 157.54 9.40863 157.54 9.69923Z" fill="#E0E0E0"/>
<path d="M156.78 12.7148H156.104V28.2312H156.78V12.7148Z" fill="#E0E0E0"/>
<path d="M33.0184 106.605L28.1906 126.06H30.1427L35.1553 106.605H33.0184Z" fill="#EBEBEB"/>
<path d="M47.0151 106.605L51.843 126.06H49.8866L44.874 106.605H47.0151Z" fill="#EBEBEB"/>
<path d="M40.9193 101.316H38.6439V126.056H40.9193V101.316Z" fill="#EBEBEB"/>
<path d="M55.7892 81.4766H23.6608V102.06H55.7892V81.4766Z" fill="#E0E0E0"/>
<path d="M47.8001 106.291H31.675V108.277H47.8001V106.291Z" fill="#EBEBEB"/>
<path d="M25.7976 99.372C25.8172 99.497 25.8243 99.6235 25.8186 99.7499H25.7766C25.743 98.7423 25.7178 95.409 25.7178 91.4543C25.7178 89.0698 25.7178 86.9119 25.743 85.325C25.743 84.5568 25.743 83.9271 25.7682 83.4653C25.7682 83.2609 25.7682 83.093 25.7682 82.9615C25.7609 82.9029 25.7609 82.8437 25.7682 82.7852C25.7755 82.8437 25.7755 82.9029 25.7682 82.9615C25.7682 83.093 25.7682 83.2609 25.7682 83.4653C25.7682 83.9271 25.7682 84.5568 25.7934 85.325C25.7934 86.9119 25.7934 89.0698 25.8186 91.4543C25.8186 95.409 25.7934 98.7423 25.7598 99.7499H25.7178C25.7314 99.6215 25.7582 99.4949 25.7976 99.372Z" fill="#F5F5F5"/>
<path d="M28.1906 99.372C28.1976 99.4979 28.1976 99.624 28.1906 99.7499H28.1696C28.1402 98.7423 28.115 95.409 28.115 91.4543C28.115 89.0698 28.115 86.9119 28.115 85.325C28.115 84.5568 28.115 83.9271 28.1402 83.4653C28.1402 83.2595 28.1402 83.0916 28.1402 82.9615C28.1302 82.9031 28.1302 82.8435 28.1402 82.7852C28.1457 82.8438 28.1457 82.9028 28.1402 82.9615C28.1402 83.0916 28.1402 83.2595 28.1402 83.4653C28.1402 83.9271 28.1402 84.5568 28.1654 85.325C28.1654 86.9119 28.1654 89.0698 28.1654 91.4543C28.1654 95.409 28.1654 98.7423 28.1108 99.7499H28.1696C28.1649 99.6235 28.1719 99.4971 28.1906 99.372Z" fill="#F5F5F5"/>
<path d="M30.5793 99.372C30.5989 99.497 30.606 99.6235 30.6003 99.7499H30.5583C30.5247 98.7423 30.4996 95.409 30.4996 91.4543C30.4996 89.0698 30.4996 86.9119 30.5247 85.325C30.5247 84.5568 30.5247 83.9271 30.5499 83.4653C30.5499 83.2609 30.5499 83.093 30.5499 82.9615C30.5454 82.9028 30.5454 82.8438 30.5499 82.7852C30.56 82.8435 30.56 82.9031 30.5499 82.9615C30.5499 83.0916 30.5499 83.2595 30.5499 83.4653C30.5499 83.9271 30.5499 84.5568 30.5751 85.325C30.5751 86.9119 30.5751 89.0698 30.5961 91.4543C30.5961 95.409 30.5709 98.7423 30.5373 99.7499H30.4954C30.5133 99.6219 30.5414 99.4956 30.5793 99.372Z" fill="#F5F5F5"/>
<path d="M32.9723 99.372C32.982 99.4978 32.982 99.6241 32.9723 99.7499H32.9303C32.8967 98.7423 32.8715 95.409 32.8715 91.4543C32.8715 89.0698 32.8715 86.9119 32.8715 85.325C32.8715 84.5568 32.8715 83.9271 32.8967 83.4653C32.8967 83.2595 32.8967 83.0916 32.8967 82.9615C32.8894 82.9029 32.8894 82.8437 32.8967 82.7852C32.9013 82.8438 32.9013 82.9028 32.8967 82.9615C32.8967 83.093 32.8967 83.2609 32.8967 83.4653C32.8967 83.9271 32.8967 84.5568 32.9219 85.325C32.9219 86.9119 32.9219 89.0698 32.9471 91.4543C32.9471 95.409 32.9219 98.7423 32.8883 99.7499H32.8463C32.8749 99.6198 32.9171 99.4932 32.9723 99.372Z" fill="#F5F5F5"/>
<path d="M35.361 99.372C35.3812 99.4969 35.3896 99.6234 35.3862 99.7499H35.3401C35.3065 98.7423 35.2855 95.409 35.2855 91.4543C35.2855 89.0698 35.2855 86.9119 35.2855 85.325C35.2855 84.5568 35.2855 83.9271 35.3107 83.4653C35.3107 83.2595 35.3107 83.0916 35.3107 82.9615C35.3052 82.9028 35.3052 82.8438 35.3107 82.7852C35.3207 82.8435 35.3207 82.9031 35.3107 82.9615C35.3107 83.0916 35.3107 83.2595 35.3107 83.4653C35.3107 83.9271 35.3107 84.5568 35.3359 85.325C35.3359 86.9119 35.3359 89.0698 35.3359 91.4543C35.3359 95.409 35.3107 98.7423 35.2813 99.7499H35.2351C35.2697 99.6216 35.3118 99.4954 35.361 99.372Z" fill="#F5F5F5"/>
<path d="M37.754 99.372C37.7666 99.4977 37.7666 99.6242 37.754 99.7499H37.712C37.6784 98.7423 37.6532 95.409 37.6532 91.4543C37.6532 89.0698 37.6532 86.9119 37.6784 85.325C37.6784 84.5568 37.6784 83.9271 37.7036 83.4653C37.7036 83.2609 37.7036 83.093 37.7036 82.9615C37.6962 82.9029 37.6962 82.8437 37.7036 82.7852C37.7109 82.8437 37.7109 82.9029 37.7036 82.9615C37.7036 83.093 37.7036 83.2609 37.7036 83.4653C37.7036 83.9271 37.7036 84.5568 37.7288 85.325C37.7288 86.9119 37.7288 89.0698 37.754 91.4543C37.754 95.409 37.7288 98.7423 37.6952 99.7499H37.6532C37.6736 99.6208 37.7074 99.4942 37.754 99.372Z" fill="#F5F5F5"/>
<path d="M40.1469 99.372C40.1608 99.4975 40.1678 99.6236 40.1679 99.7499H40.1217C40.0881 98.7423 40.0671 95.409 40.0671 91.4543C40.0671 89.0698 40.0671 86.9119 40.0671 85.325C40.0671 84.5568 40.0881 83.9271 40.0923 83.4653C40.0923 83.2595 40.0923 83.0916 40.0923 82.9615C40.0823 82.9031 40.0823 82.8435 40.0923 82.7852C40.0978 82.8438 40.0978 82.9028 40.0923 82.9615C40.0923 83.0916 40.0923 83.2595 40.0923 83.4653C40.0923 83.9271 40.0923 84.5568 40.1175 85.325C40.1175 86.9119 40.1175 89.0698 40.1385 91.4543C40.1385 95.409 40.1175 98.7423 40.0839 99.7499H40.0377C40.0618 99.6207 40.0984 99.4942 40.1469 99.372Z" fill="#F5F5F5"/>
<path d="M42.5356 99.372C42.5552 99.497 42.5623 99.6235 42.5566 99.7499H42.5146C42.481 98.7423 42.4559 95.409 42.4559 91.4543C42.4559 89.0698 42.4559 86.9119 42.481 85.325C42.481 84.5568 42.481 83.9271 42.5062 83.4653C42.5062 83.2609 42.5062 83.093 42.5062 82.9615C42.5016 82.9028 42.5016 82.8438 42.5062 82.7852C42.5136 82.8437 42.5136 82.9029 42.5062 82.9615C42.5062 83.0916 42.5062 83.2595 42.5062 83.4653C42.5062 83.9271 42.5062 84.5568 42.5062 85.325C42.5062 86.9119 42.5062 89.0698 42.5314 91.4543C42.5314 95.409 42.5062 98.7423 42.4726 99.7499H42.4307C42.4554 99.6213 42.4905 99.495 42.5356 99.372Z" fill="#F5F5F5"/>
<path d="M44.9286 99.372C44.9454 99.4972 44.9524 99.6236 44.9496 99.7499H44.9076C44.874 98.7423 44.8488 95.409 44.8488 91.4543C44.8488 89.0698 44.8488 86.9119 44.8698 85.325C44.8698 84.5568 44.8908 83.9271 44.895 83.4653C44.895 83.2595 44.895 83.0916 44.895 82.9615C44.885 82.9031 44.885 82.8435 44.895 82.7852C44.8996 82.8438 44.8996 82.9028 44.895 82.9615C44.895 83.0916 44.895 83.2595 44.895 83.4653C44.895 83.9271 44.895 84.5568 44.9202 85.325C44.9202 86.9119 44.9202 89.0698 44.9454 91.4543C44.9454 95.409 44.9202 98.7423 44.8866 99.7499H44.8446C44.8596 99.6214 44.8877 99.4948 44.9286 99.372Z" fill="#F5F5F5"/>
<path d="M47.3174 99.372C47.3375 99.4969 47.3459 99.6234 47.3425 99.7499H47.2964C47.2628 98.7423 47.2376 95.409 47.2376 91.4543C47.2376 89.0698 47.2586 86.9119 47.2628 85.325C47.2628 84.5568 47.2838 83.9271 47.288 83.4653C47.288 83.2595 47.288 83.0916 47.288 82.9615C47.2824 82.9028 47.2824 82.8438 47.288 82.7852C47.298 82.8435 47.298 82.9031 47.288 82.9615C47.288 83.0916 47.288 83.2595 47.288 83.4653C47.288 83.9271 47.288 84.5568 47.3132 85.325C47.3132 86.9119 47.3132 89.0698 47.3341 91.4543C47.3341 95.409 47.309 98.7423 47.2796 99.7499H47.2334C47.2542 99.6224 47.2823 99.4963 47.3174 99.372Z" fill="#F5F5F5"/>
<path d="M49.7103 99.372C49.727 99.4972 49.7341 99.6236 49.7313 99.7499H49.6893C49.6557 98.7423 49.6305 95.409 49.6305 91.4543C49.6305 89.0698 49.6305 86.9119 49.6557 85.325C49.6557 84.5568 49.6557 83.9271 49.6809 83.4653C49.6809 83.2609 49.6809 83.093 49.6809 82.9615C49.6735 82.9029 49.6735 82.8437 49.6809 82.7852C49.6855 82.8438 49.6855 82.9028 49.6809 82.9615C49.6809 83.093 49.6809 83.2609 49.6809 83.4653C49.6809 83.9271 49.6809 84.5568 49.7061 85.325C49.7061 86.9119 49.7061 89.0698 49.7313 91.4543C49.7313 95.409 49.7061 98.7423 49.6725 99.7499H49.6305C49.6441 99.6215 49.6708 99.4949 49.7103 99.372Z" fill="#F5F5F5"/>
<path d="M52.099 99.372C52.113 99.4975 52.12 99.6236 52.12 99.7499H52.099C52.0654 98.7423 52.0444 95.409 52.0444 91.4543C52.0444 89.0698 52.0444 86.9119 52.0654 85.325C52.0654 84.5568 52.0654 83.9271 52.0906 83.4653C52.0906 83.2595 52.0906 83.0916 52.0906 82.9615C52.0806 82.9031 52.0806 82.8435 52.0906 82.7852C52.0961 82.8438 52.0961 82.9028 52.0906 82.9615C52.0906 83.0916 52.0906 83.2595 52.0906 83.4653C52.0906 83.9271 52.0906 84.5568 52.1158 85.325C52.1158 86.9119 52.1158 89.0698 52.1368 91.4543C52.1368 95.409 52.1158 98.7423 52.0822 99.7499H52.099C52.0873 99.6242 52.0873 99.4977 52.099 99.372Z" fill="#F5F5F5"/>
<path d="M54.4919 99.372C54.5115 99.497 54.5185 99.6235 54.5129 99.7499H54.4709C54.4373 98.7423 54.4121 95.409 54.4121 91.4543C54.4121 89.0698 54.4121 86.9119 54.4373 85.325C54.4373 84.5568 54.4373 83.9271 54.4625 83.4653C54.4625 83.2609 54.4625 83.093 54.4625 82.9615C54.4579 82.9028 54.4579 82.8438 54.4625 82.7852C54.4698 82.8437 54.4698 82.9029 54.4625 82.9615C54.4625 83.093 54.4625 83.2609 54.4625 83.4653C54.4625 83.9271 54.4625 84.5568 54.4877 85.325C54.4877 86.9119 54.4877 89.0698 54.5129 91.4543C54.5129 95.409 54.4877 98.7423 54.4541 99.7499H54.4121C54.4287 99.622 54.4553 99.4957 54.4919 99.372Z" fill="#F5F5F5"/>
<path d="M94.3072 123.654H10.5541V162.281H94.3072V123.654Z" fill="#F5F5F5"/>
<path d="M92.313 160.459H12.4727V125.689H92.313V160.459ZM12.9932 159.938H91.7924V126.21H12.9932V159.938Z" fill="#E0E0E0"/>
<path d="M114.769 123.654H94.3071V162.281H114.769V123.654Z" fill="#E0E0E0"/>
<path d="M12.733 136.45H92.0528C92.0807 136.45 92.1073 136.439 92.127 136.419C92.1467 136.4 92.1578 136.373 92.1578 136.345C92.1578 136.317 92.1467 136.291 92.127 136.271C92.1073 136.251 92.0807 136.24 92.0528 136.24H12.733C12.7052 136.24 12.6785 136.251 12.6588 136.271C12.6391 136.291 12.6281 136.317 12.6281 136.345C12.6281 136.373 12.6391 136.4 12.6588 136.419C12.6785 136.439 12.7052 136.45 12.733 136.45Z" fill="#E0E0E0"/>
<path d="M52.6532 136.345C52.8716 132.85 52.88 129.345 52.6783 125.85C52.6734 125.825 52.66 125.803 52.6405 125.786C52.621 125.77 52.5965 125.762 52.5713 125.762C52.546 125.762 52.5216 125.77 52.502 125.786C52.4825 125.803 52.4692 125.825 52.4642 125.85C52.2618 129.345 52.2717 132.85 52.4936 136.345C52.4936 136.366 52.502 136.386 52.517 136.401C52.5319 136.416 52.5522 136.425 52.5734 136.425C52.5945 136.425 52.6148 136.416 52.6298 136.401C52.6447 136.386 52.6532 136.366 52.6532 136.345Z" fill="#E0E0E0"/>
<path d="M74.0007 131.098C74.0007 131.312 73.9375 131.52 73.8189 131.698C73.7004 131.875 73.5319 132.014 73.3347 132.095C73.1376 132.177 72.9206 132.198 72.7113 132.157C72.502 132.115 72.3098 132.012 72.1589 131.861C72.008 131.71 71.9053 131.518 71.8636 131.309C71.822 131.1 71.8434 130.883 71.925 130.686C72.0067 130.488 72.145 130.32 72.3224 130.201C72.4998 130.083 72.7084 130.02 72.9218 130.02C73.2076 130.021 73.4814 130.135 73.6835 130.337C73.8856 130.539 73.9996 130.813 74.0007 131.098Z" fill="#E0E0E0"/>
<path d="M32.3678 131.098C32.3686 131.313 32.3058 131.523 32.1873 131.701C32.0688 131.88 31.8999 132.019 31.7021 132.102C31.5042 132.185 31.2863 132.207 31.0759 132.165C30.8656 132.124 30.6722 132.021 30.5203 131.87C30.3684 131.719 30.2648 131.526 30.2227 131.316C30.1805 131.105 30.2017 130.887 30.2836 130.689C30.3654 130.491 30.5043 130.322 30.6825 130.202C30.8607 130.083 31.0703 130.02 31.2847 130.02C31.5712 130.02 31.8461 130.133 32.0491 130.335C32.2521 130.538 32.3667 130.812 32.3678 131.098Z" fill="#E0E0E0"/>
<path d="M53.476 143.075C53.4769 143.289 53.4141 143.499 53.2956 143.678C53.177 143.857 53.0082 143.996 52.8103 144.079C52.6125 144.161 52.3946 144.183 52.1842 144.142C51.9738 144.101 51.7804 143.998 51.6285 143.847C51.4766 143.695 51.3731 143.502 51.3309 143.292C51.2888 143.082 51.31 142.864 51.3919 142.666C51.4737 142.468 51.6125 142.298 51.7907 142.179C51.969 142.06 52.1785 141.996 52.3929 141.996C52.6795 141.996 52.9543 142.11 53.1573 142.312C53.3603 142.514 53.4749 142.788 53.476 143.075Z" fill="#E0E0E0"/>
<path d="M20.571 162.281L16.5281 185.606H18.9547L26.6331 162.281H20.571Z" fill="#E0E0E0"/>
<path d="M88.3836 162.281L91.9856 185.606H89.5633L82.3173 162.281H88.3836Z" fill="#E0E0E0"/>
<path d="M104.572 162.281L108.862 185.606H106.436L98.5095 162.281H104.572Z" fill="#E0E0E0"/>
<path d="M53.4005 154.007C53.4005 154.221 53.3369 154.431 53.2177 154.609C53.0985 154.787 52.9291 154.926 52.7309 155.008C52.5327 155.09 52.3147 155.111 52.1045 155.069C51.8943 155.027 51.7013 154.923 51.55 154.771C51.3987 154.619 51.2959 154.426 51.2546 154.216C51.2132 154.005 51.2353 153.787 51.3179 153.59C51.4005 153.392 51.54 153.223 51.7187 153.104C51.8974 152.986 52.1072 152.923 52.3216 152.924C52.4636 152.924 52.6043 152.952 52.7354 153.006C52.8666 153.061 52.9857 153.141 53.086 153.241C53.1862 153.342 53.2656 153.461 53.3196 153.593C53.3736 153.724 53.4011 153.865 53.4005 154.007Z" fill="#E0E0E0"/>
<path d="M12.733 148.411H92.0528C92.0807 148.411 92.1073 148.4 92.127 148.38C92.1467 148.361 92.1578 148.334 92.1578 148.306C92.1578 148.278 92.1467 148.252 92.127 148.232C92.1073 148.212 92.0807 148.201 92.0528 148.201H12.733C12.7052 148.201 12.6785 148.212 12.6588 148.232C12.6391 148.252 12.6281 148.278 12.6281 148.306C12.6281 148.334 12.6391 148.361 12.6588 148.38C12.6785 148.4 12.7052 148.411 12.733 148.411Z" fill="#E0E0E0"/>
<path d="M182.191 63.4941H161.767V68.8972H182.191V63.4941Z" fill="#F5F5F5"/>
<path d="M173.556 74.5896C173.554 74.5574 173.554 74.5252 173.556 74.493V74.216C173.556 73.9599 173.556 73.6072 173.556 73.1496C173.556 72.2176 173.556 70.8784 173.522 69.1866L173.585 69.2495L153.161 69.2915L153.266 69.1866V70.5594C153.266 71.017 153.266 71.4746 153.266 71.9238V74.5812L153.165 74.4804L167.72 74.5266L172.015 74.556H173.178H173.48H173.589C173.589 74.556 173.56 74.556 173.497 74.556H173.203H172.065L167.792 74.5854L153.165 74.6316H153.064V74.5308C153.064 73.6632 153.064 72.7774 153.064 71.8734V69.1362L153.169 69.0312L173.593 69.0732H173.656V69.1362C173.656 70.8448 173.631 72.1967 173.623 73.137C173.623 73.5862 173.623 73.9389 173.623 74.1866C173.623 74.2957 173.623 74.3839 173.623 74.4553C173.623 74.5266 173.56 74.5938 173.556 74.5896Z" fill="#E0E0E0"/>
<path d="M141.608 121.963C141.604 121.931 141.604 121.898 141.608 121.866V121.589C141.608 121.333 141.608 120.98 141.608 120.523C141.608 119.591 141.587 118.252 141.57 116.56L141.637 116.623L121.213 116.665C121.259 116.618 121.108 116.77 121.314 116.56V121.954L121.209 121.854L135.764 121.9L140.063 121.929H141.226H141.528H141.637H141.541H141.251H140.109L135.835 121.959L121.209 122.005H121.108V116.568C121.318 116.358 121.167 116.509 121.217 116.463L141.641 116.505H141.704V116.568C141.704 118.277 141.675 119.629 141.666 120.569C141.666 121.018 141.666 121.371 141.666 121.618C141.666 121.728 141.666 121.816 141.666 121.887C141.649 121.914 141.63 121.939 141.608 121.963Z" fill="#E0E0E0"/>
<path d="M29.1646 65.6562H8.7406V71.0593H29.1646V65.6562Z" fill="#F5F5F5"/>
<path d="M20.5289 76.7528C20.526 76.7193 20.526 76.6856 20.5289 76.652C20.5289 76.5807 20.5289 76.4883 20.5289 76.375C20.5289 76.1231 20.5289 75.7662 20.5289 75.3128C20.5289 74.3808 20.5289 73.0374 20.4954 71.3456L20.5583 71.4085L0.134341 71.4505C0.18052 71.4044 0.029386 71.5555 0.235095 71.3456V76.7486L0.134341 76.6436L14.6893 76.6898L18.984 76.7192H20.1469H20.4492C20.4853 76.7133 20.5222 76.7133 20.5583 76.7192H20.4618H20.1721H19.0302L14.7355 76.8074L0.109151 76.8535H0V71.3498C0.205709 71.1441 0.0587741 71.2952 0.104954 71.249L20.5289 71.2868H20.6129V71.3498C20.6129 73.0584 20.5877 74.4102 20.5793 75.3548C20.5793 75.804 20.5793 76.1525 20.5793 76.4043C20.5793 76.5135 20.5793 76.6017 20.5793 76.6688C20.5645 76.698 20.5477 76.726 20.5289 76.7528Z" fill="#E0E0E0"/>
<path d="M97.607 10.9293C97.6033 10.8972 97.6033 10.8648 97.607 10.8327V10.5556C97.607 10.2995 97.607 9.94689 97.607 9.49349C97.607 8.55731 97.586 7.2181 97.5734 5.52625L97.6364 5.58922L77.2124 5.6312C77.2586 5.58502 77.1074 5.73615 77.3131 5.52625V10.9293L77.2124 10.8285L91.7674 10.8747L96.0621 10.9041H97.2249H97.5272H97.6364H97.5398H97.2501H96.1082L91.8387 10.9293L77.2124 10.9796H77.1074V5.53464L77.2124 5.42969L97.6364 5.47167H97.6993V5.53464C97.6993 7.24329 97.6741 8.59509 97.6658 9.53967C97.6658 9.98468 97.6658 10.3373 97.6658 10.585V10.8537C97.6485 10.8807 97.6289 10.9059 97.607 10.9293Z" fill="#E0E0E0"/>
<path d="M100.378 5.52667C100.372 5.49335 100.372 5.45923 100.378 5.42591C100.378 5.34615 100.378 5.25379 100.378 5.13624C100.378 4.87176 100.378 4.51072 100.378 4.05312C100.378 3.10853 100.357 1.76932 100.34 0.12365L100.416 0.199217L88.1065 0.245397C88.01 0.337756 88.2283 0.119452 88.2073 0.140443V2.91962C88.2073 3.82222 88.2073 4.69963 88.2073 5.53926L88.1065 5.4427L96.8849 5.48888L99.4457 5.51407H100.134H100.382C100.308 5.51981 100.233 5.51981 100.159 5.51407H99.4877L96.9688 5.54346L88.1233 5.58964H88.0268V5.48888C88.0268 4.64925 88.0268 3.77184 88.0268 2.86924V0.127848C88.0016 0.148839 88.2241 -0.0694646 88.1317 0.0228947L100.403 0.0522824H100.478V0.127848C100.478 1.80711 100.449 3.14632 100.441 4.10349C100.441 4.5527 100.441 4.90954 100.42 5.16982C100.399 5.43011 100.378 5.53087 100.378 5.52667Z" fill="#E0E0E0"/>
<path d="M175.491 185.605C175.491 185.668 137.708 185.714 91.146 185.714C44.5843 185.714 6.7926 185.668 6.7926 185.605C6.7926 185.542 44.5507 185.496 91.146 185.496C137.741 185.496 175.491 185.546 175.491 185.605Z" fill="#263238"/>
<path d="M70.5708 36.6434L68.8915 33.2597C69.9351 30.4173 69.8777 27.2875 68.7307 24.4853C67.5838 21.6831 65.4301 19.4112 62.6932 18.1163C59.9562 16.8214 56.8338 16.597 53.9399 17.4874C51.0459 18.3777 48.5896 20.3183 47.0537 22.9277C45.5179 25.5371 45.0137 28.6266 45.6401 31.589C46.2666 34.5513 47.9784 37.1722 50.4392 38.9364C52.8999 40.7007 55.9316 41.4807 58.9382 41.1232C61.9449 40.7657 64.7091 39.2965 66.6875 37.0044L70.5708 36.6434Z" fill="white"/>
<path d="M70.5708 36.6438L70.3273 36.6732L69.5968 36.753L66.7043 37.0552C66.6936 37.0547 66.6833 37.0507 66.675 37.0439C66.6667 37.0371 66.6608 37.0278 66.6581 37.0174C66.6581 37.0174 66.6581 37.0174 66.6581 36.9922L66.7295 37.0384C65.4174 38.5727 63.7437 39.7558 61.8596 40.4809C61.28 40.7045 60.6833 40.8814 60.0754 41.0099C59.4138 41.1435 58.743 41.2263 58.0687 41.2576C56.5902 41.3274 55.1115 41.1238 53.7068 40.6572C52.0948 40.1199 50.6121 39.2531 49.3531 38.1119C48.0941 36.9707 47.0862 35.5801 46.3937 34.0284C45.6183 32.2678 45.2697 30.3489 45.3762 28.4281C45.4827 26.5072 46.0413 24.6387 47.0066 22.9746L47.3928 22.3323L47.8378 21.7278L48.0603 21.4255L48.3038 21.1484L48.7992 20.5943C48.9671 20.418 49.156 20.2584 49.3366 20.0905C49.5089 19.9175 49.6926 19.7562 49.8865 19.6077C50.2637 19.3021 50.6606 19.0216 51.0746 18.7681C52.6237 17.7874 54.3761 17.173 56.1984 16.9715C58.0207 16.77 59.865 16.9867 61.591 17.6052C64.5653 18.6532 67.017 20.8144 68.4297 23.6337C68.7314 24.2386 68.9854 24.866 69.1896 25.5103C69.3664 26.1171 69.5065 26.7339 69.6094 27.3575C69.8949 29.3516 69.6755 31.3854 68.9713 33.2727V33.2433C69.5003 34.3474 69.9117 35.1996 70.1888 35.7832C70.3231 36.0603 70.4239 36.2786 70.4952 36.4297C70.5666 36.5808 70.596 36.6438 70.596 36.6438C70.596 36.6438 70.5498 36.564 70.4784 36.4213L70.1468 35.7706L68.8873 33.2769C68.8854 33.2722 68.8844 33.2672 68.8844 33.2622C68.8844 33.2571 68.8854 33.2521 68.8873 33.2475C69.5635 31.3665 69.764 29.3474 69.4709 27.3701C69.3678 26.7548 69.2276 26.1464 69.0511 25.5481C68.8467 24.912 68.5926 24.293 68.2912 23.6967C67.1947 21.5332 65.4721 19.7502 63.3477 18.5798C61.2233 17.4094 58.7957 16.9059 56.3811 17.135C54.532 17.3285 52.7515 17.9416 51.1754 18.9276C50.7679 19.181 50.378 19.4615 50.0083 19.7672C49.8168 19.914 49.6345 20.0725 49.4625 20.2416C49.2904 20.4096 49.1057 20.5649 48.9377 20.7412L48.4508 21.287L48.2073 21.5599L47.989 21.8537L47.5691 22.4499L47.1871 23.0838C46.2065 24.7554 45.6528 26.6428 45.575 28.5792C45.4638 31.1874 46.2039 33.761 47.6837 35.9117C49.1634 38.0625 51.3025 39.6735 53.7782 40.5019C55.1641 40.963 56.6219 41.1692 58.0813 41.1106C58.7465 41.079 59.4087 41.0005 60.0628 40.8755C60.6731 40.7492 61.2725 40.5751 61.8554 40.355C63.7233 39.6512 65.3888 38.4976 66.7043 36.9964C66.7128 36.9885 66.7241 36.984 66.7358 36.984C66.7475 36.984 66.7587 36.9885 66.7673 36.9964C66.7725 37.0046 66.7753 37.0141 66.7753 37.0237C66.7753 37.0334 66.7725 37.0429 66.7673 37.051L66.7253 36.9922L69.5926 36.7446L70.3399 36.6816L70.5708 36.6438Z" fill="#263238"/>
<path d="M51.952 29.8936L53.5179 28.3234L56.5406 31.0103L62.4768 25.3008L63.9293 26.8709L56.3181 34.0329L51.952 29.8936Z" fill="#00A7E1"/>
<path d="M63.1653 169.988L55.8774 176.907C55.8774 176.907 63.0814 185.131 62.1746 186.831L44.5844 176.697L55.4576 164.48L63.1653 169.988Z" fill="#455A64"/>
<g opacity="0.6">
<path opacity="0.6" d="M51.0243 172.827C50.8278 172.777 50.6195 172.799 50.4382 172.89C50.2568 172.981 50.1145 173.135 50.0377 173.323C49.9776 173.518 49.994 173.728 50.0837 173.912C50.1734 174.095 50.3296 174.237 50.5205 174.309C50.7298 174.364 50.952 174.34 51.1448 174.242C51.3375 174.144 51.4874 173.978 51.5659 173.776C51.6044 173.567 51.5622 173.351 51.4476 173.172C51.3331 172.992 51.1548 172.863 50.9487 172.811" fill="white"/>
</g>
<g opacity="0.6">
<path opacity="0.6" d="M44.5844 176.697L45.6885 175.438L62.0612 185.668C62.1867 185.865 62.2608 186.09 62.277 186.322C62.2931 186.555 62.2507 186.787 62.1536 186.999L44.5844 176.697Z" fill="white"/>
</g>
<path d="M56.2006 176.988C56.1461 177.068 55.7011 176.846 55.1217 176.854C54.5424 176.862 54.0974 177.081 54.0428 176.997C53.9882 176.913 54.4122 176.51 55.1175 176.51C55.8228 176.51 56.2678 176.93 56.2006 176.988Z" fill="#263238"/>
<path d="M57.5315 178.873C57.5021 178.965 57.0487 178.873 56.5407 179.054C56.0327 179.234 55.7011 179.553 55.6339 179.499C55.5667 179.444 55.7976 178.936 56.4315 178.726C57.0655 178.516 57.5818 178.789 57.5315 178.873Z" fill="#263238"/>
<path d="M57.1997 181.669C57.1157 181.639 57.2627 181.148 57.7623 180.829C58.2618 180.51 58.774 180.569 58.7656 180.661C58.7572 180.753 58.3458 180.85 57.9512 181.119C57.5566 181.387 57.2921 181.711 57.1997 181.669Z" fill="#263238"/>
<path d="M57.3216 174.888C57.2376 174.942 56.9269 174.586 56.4315 174.321C55.9362 174.057 55.4744 173.973 55.4744 173.872C55.4744 173.771 56.0201 173.696 56.5953 174.019C57.1704 174.342 57.4013 174.837 57.3216 174.888Z" fill="#263238"/>
<path d="M58.4718 173.114C58.4508 173.147 58.0897 172.992 57.6321 172.568C57.3558 172.319 57.1118 172.037 56.9058 171.728C56.7833 171.546 56.6738 171.355 56.5784 171.157C56.5157 171.043 56.4704 170.92 56.4441 170.792C56.4245 170.698 56.438 170.599 56.4823 170.514C56.5267 170.428 56.5991 170.36 56.6875 170.322C56.7664 170.29 56.8515 170.278 56.936 170.285C57.0205 170.293 57.1022 170.319 57.1745 170.364C57.2843 170.43 57.3834 170.512 57.4684 170.607C57.8882 171.038 58.1928 171.568 58.3542 172.148C58.4812 172.472 58.5047 172.827 58.4214 173.164C58.3668 173.164 58.3374 172.782 58.1233 172.224C57.9956 171.9 57.8293 171.592 57.6279 171.308C57.5069 171.145 57.3735 170.99 57.2291 170.847C57.078 170.683 56.9226 170.586 56.8093 170.637C56.6959 170.687 56.7631 170.67 56.7673 170.746C56.7865 170.84 56.819 170.93 56.8639 171.014C56.9525 171.201 57.0506 171.383 57.1577 171.56C57.3412 171.859 57.552 172.14 57.7875 172.4C58.1947 172.841 58.5011 173.067 58.4718 173.114Z" fill="#263238"/>
<path d="M58.2871 173.162C58.28 172.815 58.3829 172.474 58.581 172.188C58.7666 171.862 59.0065 171.569 59.2904 171.324C59.4594 171.176 59.6438 171.046 59.8404 170.937C59.9578 170.854 60.0948 170.802 60.2382 170.786C60.3816 170.771 60.5265 170.792 60.659 170.849C60.7345 170.898 60.7944 170.968 60.8316 171.049C60.8688 171.131 60.8818 171.222 60.8689 171.311C60.8501 171.44 60.8133 171.566 60.7598 171.685C60.5102 172.25 60.0468 172.694 59.471 172.919C58.8538 173.154 58.4424 173.036 58.455 173.003C58.7659 172.919 59.0715 172.817 59.3702 172.696C59.6736 172.545 59.9401 172.328 60.1511 172.062C60.2723 171.908 60.3712 171.737 60.4449 171.555C60.5331 171.357 60.5583 171.164 60.4785 171.135C60.3965 171.115 60.3112 171.113 60.2285 171.13C60.1458 171.146 60.0677 171.181 59.9999 171.231C59.8215 171.325 59.6528 171.436 59.4961 171.563C59.2254 171.777 58.9877 172.031 58.7909 172.314C58.4508 172.81 58.3417 173.179 58.2871 173.162Z" fill="#263238"/>
<path d="M118.085 170.584L119.824 179.971C119.824 179.971 130.218 183.367 130.285 185.307L110.508 185.542L109.047 170.584H118.085Z" fill="#455A64"/>
<g opacity="0.6">
<path opacity="0.6" d="M112.133 179.683C111.938 179.74 111.77 179.865 111.661 180.036C111.551 180.206 111.507 180.411 111.536 180.611C111.583 180.81 111.704 180.983 111.874 181.094C112.044 181.206 112.251 181.248 112.452 181.211C112.659 181.153 112.838 181.02 112.954 180.838C113.069 180.656 113.113 180.437 113.077 180.225C113.005 180.025 112.859 179.86 112.67 179.764C112.48 179.667 112.261 179.646 112.057 179.704" fill="white"/>
</g>
<g opacity="0.6">
<path opacity="0.6" d="M110.508 185.543L110.197 184.107L129.63 184.355C129.838 184.461 130.017 184.617 130.149 184.809C130.282 185.001 130.365 185.223 130.39 185.455L110.508 185.543Z" fill="white"/>
</g>
<path d="M120.155 179.875C120.155 179.976 119.656 180.006 119.16 180.295C118.665 180.585 118.396 181.009 118.321 180.971C118.245 180.933 118.392 180.358 119.001 180.001C119.609 179.645 120.18 179.787 120.155 179.875Z" fill="#263238"/>
<path d="M122.259 180.812C122.279 180.908 121.839 181.063 121.499 181.475C121.159 181.886 121.045 182.314 120.944 182.314C120.844 182.314 120.798 181.744 121.238 181.244C121.679 180.744 122.259 180.715 122.259 180.812Z" fill="#263238"/>
<path d="M123.4 183.386C123.312 183.407 123.186 182.907 123.455 182.374C123.724 181.841 124.19 181.631 124.232 181.715C124.274 181.799 123.975 182.085 123.761 182.525C123.547 182.966 123.501 183.378 123.4 183.386Z" fill="#263238"/>
<path d="M119.332 177.688C119.29 177.776 118.841 177.629 118.279 177.654C117.716 177.679 117.279 177.843 117.229 177.755C117.179 177.667 117.607 177.335 118.27 177.31C118.934 177.285 119.383 177.612 119.332 177.688Z" fill="#263238"/>
<path d="M72.4349 102.354C72.1075 102.576 71.3602 113.84 72.4349 116.308L69.7019 136.606C69.7019 136.606 62.3635 148.256 60.8858 149.952C59.4081 151.648 49.8279 168.172 49.8279 168.172L60.6465 177.5C60.6465 177.5 79.4458 152.941 82.4769 148.579C87.2082 141.757 92.8211 116.115 92.8211 116.115L93.5516 103.386L72.4349 102.354Z" fill="#263238"/>
<path d="M87.208 118.592C87.5355 119.192 102.174 141.682 102.174 141.682C102.174 141.682 104.395 153.6 104.886 158.856C105.378 164.113 108.98 177.631 108.98 177.631L120.755 176.707C120.755 176.707 117.573 141.904 115.6 135.124C113.627 128.344 108.153 115.233 108.153 115.233L103.535 102.971L90.2223 103.218L87.208 118.592Z" fill="#263238"/>
<path d="M95.5414 106.66C95.5258 106.784 95.5005 106.906 95.4659 107.025L95.214 108.058C94.9831 108.973 94.6514 110.262 94.2484 111.836C93.4088 115.031 92.2837 119.444 90.9571 124.297C89.6304 129.15 88.3332 133.533 87.3466 136.677C86.8513 138.251 86.444 139.523 86.1502 140.396L85.8101 141.404C85.7761 141.523 85.7311 141.638 85.6758 141.748C85.6967 141.627 85.7276 141.508 85.7681 141.391L86.0704 140.371C86.3433 139.469 86.7253 138.197 87.1997 136.631C88.1485 133.474 89.4163 129.095 90.7471 124.242C92.078 119.389 93.2366 115.006 94.1057 111.794C94.5255 110.22 94.8865 108.936 95.1384 108.016L95.4281 106.992C95.4585 106.879 95.4964 106.768 95.5414 106.66Z" fill="#455A64"/>
<path d="M131.713 53.5627C131.713 53.5627 132.951 52.5845 133.35 52.6139C133.749 52.6433 136.242 53.0044 136.242 53.0044C136.242 53.0044 136.398 54.0539 135.684 54.3981C135.118 54.625 134.517 54.7515 133.908 54.7718L133.316 55.1916L131.713 53.5627Z" fill="#FFCAAE"/>
<path d="M99.219 57.0081L118.724 72.3188L128.379 63.234L128.644 61.4666C128.723 60.9641 128.864 60.4734 129.064 60.0056L131.553 54.082L137.384 63.5363C137.384 63.5363 123.048 82.2558 120.529 82.9107C117.216 83.7755 100.73 72.6127 100.73 72.6127L99.219 57.0081Z" fill="#FFCAAE"/>
<path d="M131.444 59.3008C132.044 59.9345 132.477 60.7077 132.703 61.5506C132.93 62.3935 132.943 63.2795 132.741 64.1287C132.759 63.2822 132.676 62.4365 132.494 61.6098C132.237 60.8011 131.885 60.0259 131.444 59.3008Z" fill="#FF9A6C"/>
<path d="M86.5994 29.4939L86.2174 49.4771C86.083 52.8902 85.9025 57.9406 91.3055 57.907C95.9906 57.5207 97.3508 53.1337 97.4726 49.9305C97.5314 48.4234 97.5817 47.1639 97.5985 46.9918C97.5985 46.9918 102.724 46.7105 103.291 41.6727C103.564 39.2336 103.711 34.1706 103.808 29.5905C103.842 27.223 102.987 24.9288 101.412 23.1617C99.8357 21.3946 97.6539 20.2834 95.2979 20.0481L94.811 20.0019C89.5297 19.7836 86.6708 24.2084 86.5994 29.4939Z" fill="#FFCAAE"/>
<path d="M97.6111 47.0264C95.2807 46.7879 93.0675 45.8861 91.2341 44.4277C91.2341 44.4277 92.4684 48.2732 97.5314 48.3236L97.6111 47.0264Z" fill="#FF935C"/>
<path d="M95.34 32.1887C95.2266 32.2139 94.7396 31.8151 93.9252 31.5842C93.1108 31.3533 92.439 31.3995 92.3677 31.3155C92.2963 31.2316 92.4642 31.2106 92.7581 31.1854C93.1831 31.1575 93.6096 31.2059 94.0176 31.3281C94.4173 31.4394 94.7921 31.626 95.1217 31.8781C95.34 32.0544 95.3903 32.1762 95.34 32.1887Z" fill="#263238"/>
<path d="M94.3407 33.1836C94.3236 33.361 94.2384 33.5249 94.1029 33.6408C93.9675 33.7567 93.7924 33.8155 93.6144 33.8049C93.5269 33.8033 93.4407 33.7842 93.3607 33.7487C93.2808 33.7132 93.2087 33.6621 93.1488 33.5983C93.089 33.5345 93.0425 33.4594 93.0121 33.3773C92.9818 33.2953 92.9682 33.208 92.9721 33.1206C92.9892 32.9432 93.0744 32.7793 93.2099 32.6634C93.3453 32.5475 93.5204 32.4887 93.6984 32.4993C93.7858 32.5009 93.8721 32.52 93.9521 32.5554C94.032 32.5909 94.1041 32.6421 94.164 32.7059C94.2238 32.7696 94.2703 32.8448 94.3007 32.9268C94.331 33.0089 94.3446 33.0962 94.3407 33.1836Z" fill="#263238"/>
<path d="M97.2123 37.4111C97.633 37.323 98.0634 37.2892 98.4927 37.3103C98.6942 37.3103 98.8873 37.2894 98.9335 37.155C98.9699 36.9519 98.9435 36.7425 98.858 36.5547C98.7194 36.0593 98.5767 35.5387 98.4381 34.9888C97.8378 32.7596 97.4264 30.9376 97.5145 30.9124C97.6027 30.8872 98.1653 32.6798 98.774 34.9048L99.1938 36.4791C99.2933 36.7314 99.3022 37.0103 99.219 37.2684C99.1825 37.335 99.1314 37.3926 99.0697 37.437C99.0079 37.4813 98.937 37.5112 98.8622 37.5245C98.7493 37.5386 98.635 37.5386 98.5221 37.5245C98.0824 37.5438 97.6421 37.5057 97.2123 37.4111Z" fill="#263238"/>
<path d="M94.9747 28.2764C94.8866 28.4611 94.2148 28.3016 93.4004 28.3226C92.586 28.3436 91.9185 28.5031 91.8261 28.3226C91.7883 28.2344 91.9185 28.0665 92.1997 27.9028C92.5682 27.7066 92.9788 27.6029 93.3962 27.6005C93.8125 27.5894 94.225 27.6817 94.5969 27.8692C94.8782 28.0203 95.0125 28.1882 94.9747 28.2764Z" fill="#263238"/>
<path d="M102.972 30.0518C102.876 30.1987 102.221 30.014 101.423 29.9678C100.625 29.9216 99.9537 30.0056 99.874 29.8419C99.8404 29.7663 99.9747 29.6319 100.256 29.5186C100.637 29.3779 101.044 29.322 101.448 29.3549C101.855 29.3797 102.252 29.4883 102.615 29.6739C102.897 29.8335 103.01 29.9846 102.972 30.0518Z" fill="#263238"/>
<path d="M86.6372 33.3438C86.549 33.2976 83.0687 31.9962 82.9176 35.6318C82.7665 39.2674 86.4483 38.6713 86.4609 38.5705C86.4734 38.4697 86.6372 33.3438 86.6372 33.3438Z" fill="#FFCAAE"/>
<path d="M85.4071 37.1424C85.4071 37.1424 85.34 37.1844 85.2308 37.2306C85.0786 37.2915 84.9087 37.2915 84.7564 37.2306C84.3786 37.0752 84.0805 36.4497 84.0889 35.7948C84.0927 35.4832 84.1658 35.1763 84.303 34.8964C84.3417 34.7837 84.4075 34.6823 84.4946 34.601C84.5817 34.5197 84.6875 34.4612 84.8026 34.4304C84.876 34.4138 84.9529 34.4236 85.0197 34.4582C85.0866 34.4928 85.139 34.5498 85.1678 34.6193C85.214 34.7201 85.1678 34.7915 85.2056 34.7998C85.2434 34.8082 85.2854 34.7411 85.2644 34.5899C85.2478 34.4997 85.2003 34.4181 85.1301 34.359C85.0329 34.278 84.9076 34.2388 84.7816 34.2499C84.6312 34.2738 84.4895 34.3357 84.3697 34.4297C84.2499 34.5238 84.1562 34.6468 84.0973 34.7873C83.9302 35.0955 83.8408 35.44 83.837 35.7906C83.837 36.5253 84.1771 37.2264 84.6767 37.4027C84.7733 37.4352 84.876 37.4453 84.9772 37.4322C85.0783 37.4191 85.1751 37.3832 85.2602 37.3271C85.3945 37.2306 85.4197 37.1508 85.4071 37.1424Z" fill="#FF935C"/>
<path d="M97.2795 39.8263C97.2795 39.7298 96.5826 39.7004 95.9654 39.2008C95.7028 38.9813 95.4712 38.727 95.277 38.4451C95.1132 38.2268 94.9999 38.0925 94.9663 38.1135C94.9327 38.1345 94.9873 38.294 95.109 38.5333C95.2701 38.8712 95.5038 39.1693 95.7933 39.4065C96.0899 39.6376 96.4442 39.7828 96.8177 39.8263C97.0989 39.8935 97.2753 39.8557 97.2795 39.8263Z" fill="#263238"/>
<path d="M102.813 31.7855C102.729 31.8653 102.107 31.7855 101.289 32.0122C100.47 32.2389 99.92 32.6168 99.8193 32.5874C99.7185 32.558 99.8487 32.453 100.088 32.2809C100.442 32.0392 100.835 31.8616 101.251 31.7561C101.648 31.6404 102.065 31.6019 102.477 31.6428C102.75 31.6764 102.855 31.7309 102.813 31.7855Z" fill="#263238"/>
<path d="M101.721 33.5664C101.704 33.7438 101.619 33.9077 101.483 34.0236C101.348 34.1395 101.173 34.1983 100.995 34.1877C100.907 34.1861 100.821 34.167 100.741 34.1315C100.661 34.096 100.589 34.0449 100.529 33.9811C100.469 33.9173 100.423 33.8422 100.392 33.7601C100.362 33.6781 100.349 33.5908 100.352 33.5034C100.37 33.326 100.455 33.1621 100.59 33.0462C100.726 32.9303 100.901 32.8715 101.079 32.8821C101.166 32.8837 101.252 32.9028 101.332 32.9383C101.412 32.9737 101.484 33.0249 101.544 33.0887C101.604 33.1525 101.651 33.2276 101.681 33.3096C101.711 33.3917 101.725 33.479 101.721 33.5664Z" fill="#263238"/>
<path d="M110.772 25.2755C110.715 25.0703 110.581 24.8947 110.399 24.7843C109.999 24.5926 109.556 24.5087 109.114 24.5408C108.015 24.489 106.941 24.189 105.974 23.6634C106.321 23.5063 106.641 23.2951 106.923 23.0379C107.22 22.7767 107.441 22.4393 107.561 22.062C107.68 21.6847 107.695 21.2818 107.603 20.8969C107.588 20.8246 107.557 20.7567 107.512 20.6985C107.467 20.6402 107.409 20.5932 107.342 20.561C107.12 20.4854 106.923 20.6995 106.755 20.8717C106.55 21.1342 106.279 21.3373 105.97 21.4599C105.661 21.5824 105.324 21.62 104.996 21.5686C104.536 21.5274 104.091 21.384 103.694 21.1487L103.652 21.0984L103.14 20.5526C101.881 19.2302 100.785 18.3066 99.6472 17.8112C97.968 17.0891 95.1678 16.7365 93.3962 17.1521C91.6246 17.5677 90.0125 18.9489 89.7186 20.7457C88.753 19.9061 87.2753 19.8515 86.062 20.3007H86.0326C84.6808 20.7205 83.8832 22.1353 83.455 23.4871C83.4298 23.5585 83.4088 23.634 83.3878 23.7096C82.9171 24.4183 82.2837 25.0041 81.5406 25.4183C81.4105 25.4896 81.2593 25.5778 81.2383 25.7289C81.2173 25.8801 81.3391 26.0018 81.4566 26.09C81.7734 26.3272 82.1391 26.4907 82.5272 26.5686C82.3981 26.8903 82.2422 27.2007 82.0612 27.4963C81.9016 27.7482 81.7127 28.0505 81.8387 28.336C81.8972 28.4349 81.9842 28.5139 82.0883 28.5626C82.1924 28.6113 82.3088 28.6274 82.4222 28.6088C82.648 28.5648 82.8624 28.4747 83.0519 28.3444L82.5775 29.4023C83.0611 29.4962 83.5599 29.476 84.0343 29.3435C84.2429 30.6178 84.5232 31.8792 84.8739 33.1219C85.4323 33.1219 85.9655 33.0211 86.3013 33.3402C86.7589 33.76 86.9478 34.5702 87.7329 34.2889C88.1527 34.1462 88.5179 33.3276 88.6607 32.9245C89.6056 30.256 89.9636 27.415 89.7102 24.5954C90.281 24.0177 90.9581 23.5558 91.7043 23.2352L91.6413 23.2856C93.0687 22.8364 94.6766 22.3956 95.999 23.0925C97.0234 23.634 97.6069 24.7298 98.3584 25.6114C99.0163 26.4149 99.8342 27.0728 100.76 27.5433C101.686 28.0138 102.699 28.2866 103.736 28.3444C103.896 29.8767 103.677 31.8036 103.736 33.231L105.113 30.9724C105.209 30.8107 105.296 30.6439 105.373 30.4728L105.399 30.4224C105.533 30.1538 105.659 29.8851 105.818 29.6206C105.98 29.7582 106.186 29.8333 106.399 29.8324C106.611 29.8315 106.816 29.7547 106.977 29.6157C107.138 29.4768 107.243 29.285 107.275 29.0749C107.307 28.8649 107.262 28.6504 107.149 28.4703C107.033 28.3014 106.891 28.1514 106.729 28.0253C106.9 28.1984 107.111 28.3245 107.345 28.3914C107.578 28.4584 107.824 28.4639 108.06 28.4073C108.294 28.3421 108.5 28.2021 108.646 28.0087C108.792 27.8154 108.871 27.5793 108.871 27.3368C108.853 27.1791 108.797 27.0282 108.707 26.8977C108.617 26.7672 108.496 26.6613 108.354 26.5895C108.979 26.6583 109.609 26.5368 110.164 26.2411C110.52 26.048 110.873 25.7247 110.772 25.2755Z" fill="#263238"/>
<path d="M91.272 21.3613C91.0862 21.4963 90.9121 21.6465 90.7514 21.8105C90.3397 22.2832 90.0576 22.8545 89.9327 23.4688C89.8337 23.8887 89.7788 24.3179 89.769 24.7492C89.769 25.2152 89.769 25.7148 89.7984 26.2396C89.8328 26.7988 89.8328 27.3596 89.7984 27.9188C89.7745 28.2116 89.7282 28.5021 89.6599 28.7878C89.6082 29.0956 89.4781 29.3848 89.282 29.6275C89.1913 29.724 89.077 29.7952 88.9504 29.8342C88.8238 29.8732 88.6893 29.8787 88.56 29.85C88.3136 29.7957 88.0922 29.6614 87.9302 29.4679C87.6649 29.0843 87.5082 28.6361 87.4768 28.1707H87.5818C87.421 28.547 87.206 28.8978 86.9437 29.2119C86.688 29.503 86.3304 29.6848 85.9445 29.7198C85.7659 29.7348 85.5867 29.6984 85.4281 29.6149C85.2787 29.5351 85.1583 29.4102 85.0839 29.258C85.0118 29.1198 84.9784 28.9645 84.9873 28.8088C84.9979 28.6627 85.0587 28.5248 85.1595 28.4184L85.214 28.4688C84.9024 28.8038 84.5251 29.071 84.1057 29.2538C83.9947 29.3006 83.8812 29.3413 83.7657 29.3756C83.7264 29.3895 83.6855 29.398 83.6439 29.4008L83.7573 29.3546C83.837 29.3252 83.9462 29.2832 84.0889 29.2161C84.4968 29.0266 84.8613 28.7551 85.1595 28.4184L85.2098 28.4688C85.1246 28.5734 85.0739 28.7019 85.0649 28.8365C85.0558 28.9711 85.0889 29.1052 85.1595 29.2203C85.2278 29.355 85.3363 29.465 85.4701 29.5351C85.6161 29.6065 85.7782 29.6384 85.9403 29.6275C86.2993 29.5897 86.6299 29.4153 86.8639 29.1405C87.119 28.8321 87.3282 28.4885 87.4852 28.1203L87.5608 27.9608L87.5902 28.1371C87.6187 28.5797 87.7635 29.0069 88.01 29.3756C88.1551 29.5497 88.3548 29.6695 88.5767 29.7156C88.6855 29.7408 88.799 29.737 88.9058 29.7045C89.0126 29.6721 89.109 29.6123 89.1855 29.5309C89.367 29.3029 89.4882 29.033 89.5381 28.7459C89.6024 28.4695 89.6473 28.1889 89.6725 27.9062C89.7059 27.3582 89.7059 26.8086 89.6725 26.2606C89.6725 25.7358 89.6347 25.232 89.6725 24.7618C89.6878 24.3244 89.7483 23.8896 89.853 23.4646C89.9864 22.8369 90.2866 22.2568 90.722 21.7853C90.8805 21.6144 91.0664 21.4712 91.272 21.3613Z" fill="#455A64"/>
<path d="M106.771 26.6947L106.729 26.7283L106.604 26.8165C106.545 26.8543 106.473 26.9004 106.385 26.9466C106.285 27.0051 106.181 27.057 106.075 27.102C105.388 27.3903 104.641 27.5043 103.9 27.4336C102.798 27.3291 101.751 26.9093 100.881 26.2245C99.8339 25.3776 98.9697 24.3263 98.3416 23.1347C97.9889 22.5134 97.7077 21.8753 97.3928 21.2875C97.1067 20.7165 96.7405 20.1892 96.3055 19.7216C95.9109 19.2995 95.4175 18.9821 94.8697 18.798C94.6224 18.7213 94.3645 18.6845 94.1056 18.6889C93.8664 18.6969 93.6293 18.7364 93.4004 18.8064C92.6931 19.0229 92.0934 19.4981 91.7211 20.1372C91.6031 20.3765 91.5089 20.6268 91.4398 20.8845C91.438 20.8678 91.438 20.8509 91.4398 20.8341L91.465 20.6788C91.5125 20.4823 91.583 20.2921 91.6749 20.112C91.8264 19.8309 92.0236 19.577 92.2585 19.3606C92.573 19.0739 92.9451 18.8577 93.35 18.7266C93.5864 18.6501 93.8322 18.6063 94.0805 18.5965C94.3652 18.5893 94.6491 18.6305 94.9201 18.7183C95.4858 18.901 95.9958 19.2246 96.402 19.6586C96.8406 20.129 97.2083 20.6608 97.4936 21.2371C97.8126 21.8291 98.0939 22.463 98.4423 23.0801C99.0679 24.2591 99.9246 25.2999 100.961 26.1406C101.813 26.8201 102.841 27.2412 103.925 27.3538C104.653 27.4299 105.389 27.3306 106.07 27.0642C106.532 26.8627 106.763 26.6947 106.771 26.6947Z" fill="#455A64"/>
<path d="M107.292 24.4902C107.231 24.5328 107.164 24.568 107.095 24.5952C106.92 24.6947 106.737 24.7803 106.549 24.8512C106.277 24.9605 105.996 25.0461 105.709 25.1073C104.991 25.2556 104.249 25.2556 103.531 25.1073C103.237 25.0495 102.949 24.9666 102.67 24.8596C102.481 24.7888 102.297 24.7046 102.12 24.6077C102.055 24.5747 101.993 24.5353 101.935 24.4902C101.935 24.4902 102.221 24.6203 102.695 24.7799C102.969 24.8739 103.25 24.9469 103.535 24.9982C103.888 25.0604 104.246 25.0913 104.605 25.0905C104.964 25.0868 105.322 25.0531 105.676 24.9898C105.96 24.9326 106.241 24.8569 106.515 24.7631C107.007 24.6245 107.28 24.4692 107.292 24.4902Z" fill="#455A64"/>
<path d="M93.4088 50.0391L98.6019 52.1381C99.8614 52.5034 102.305 54.5731 103.761 55.971L109.807 64.0315L100.571 75.2867L93.4088 50.0391Z" fill="#455A64"/>
<path d="M86.1627 46.2363L85.3231 47.5545C85.3231 47.5545 73.1149 50.7367 72.0989 53.1843C70.6799 56.6183 72.5439 67.2858 72.5439 67.2858L75.1216 90.2665L71.5951 102.983L103.921 103.537C103.921 103.537 101.96 70.1952 101.503 66.6687C101.045 63.1423 97.9679 51.1733 97.9679 51.1733L86.1627 46.2363Z" fill="#455A64"/>
<path d="M100.97 60.1621C100.97 60.1621 100.97 60.1999 100.97 60.2713C100.97 60.3426 100.995 60.456 101.012 60.5861C101.04 60.88 101.082 61.283 101.138 61.7952C101.247 62.8447 101.385 64.3687 101.557 66.2494C101.876 70.0278 102.242 75.2167 102.603 80.9681C102.964 86.7196 103.3 91.9253 103.581 95.691C103.724 97.5634 103.837 99.0789 103.917 100.149C103.954 100.666 103.984 101.069 104.005 101.363C104.005 101.493 104.005 101.598 104.005 101.682C104.008 101.717 104.008 101.752 104.005 101.787C103.992 101.753 103.984 101.718 103.984 101.682C103.984 101.598 103.959 101.497 103.942 101.367C103.914 101.087 103.872 100.684 103.816 100.158C103.707 99.1083 103.568 97.5844 103.396 95.7036C103.077 91.9253 102.712 86.7364 102.355 80.9807C101.998 75.2251 101.654 70.0278 101.373 66.262C101.23 64.3896 101.117 62.8741 101.037 61.8036C100.999 61.2872 100.97 60.8842 100.949 60.5903C100.949 60.4602 100.949 60.3552 100.949 60.2713C100.951 60.2342 100.958 60.1975 100.97 60.1621Z" fill="#263238"/>
<path opacity="0.3" d="M73.157 97.3398L76.4147 98.5741L78.2241 92.8814C78.2241 92.8814 81.3308 95.2618 83.5054 94.9511C85.6801 94.6404 88.7825 92.8814 88.7825 92.8814L95.8228 94.1912L103.531 96.8025L102.964 87.2769L82.5734 86.2441L76.4147 86.9662L73.157 97.3398Z" fill="black"/>
<path d="M53.5516 105.421L58.8077 102.902C59.2947 101.277 59.7859 99.6485 60.3232 97.8643L66.6205 100.664L68.7405 94.0818L75.0377 96.8148L77.0864 90.1943C78.9042 91.0339 80.445 91.84 82.057 92.3857C82.9365 92.6839 83.8896 92.6839 84.7691 92.3857C87.0402 91.4705 89.2149 90.3076 91.4861 89.2077C91.8135 89.8333 92.0192 90.1985 92.1998 90.5763C93.2787 92.8391 93.3543 92.8727 95.6632 91.8106C98.1233 90.6813 100.588 89.5604 103.018 88.3807C104.051 87.8769 104.84 87.9609 105.89 88.557C113.908 93.0616 121.973 93.3093 129.723 88.0616C137.061 83.0868 140.273 75.9164 139.19 67.1758C138.107 58.4353 133.153 52.4236 124.962 49.3673C112.049 44.552 98.0268 52.9063 95.8773 66.5377C95.6968 67.6628 95.2854 68.2632 94.2569 68.6914C92.1578 69.5688 90.0965 70.5596 88.0268 71.5125C84.5507 73.1078 84.5549 73.1078 85.6591 76.798C84.9622 77.1716 84.3996 77.5243 83.7783 77.8014C75.7304 81.4831 54.2905 91.0507 47.2544 94.1741L44.8069 102.516L53.5516 105.421ZM133.824 68.0575C133.18 69.7284 132.055 71.1705 130.59 72.2013C129.126 73.232 127.389 73.805 125.598 73.8476C123.808 73.8902 122.045 73.4005 120.534 72.4406C119.022 71.4807 117.829 70.0937 117.106 68.4554C116.383 66.817 116.163 65.0009 116.473 63.2372C116.782 61.4734 117.609 59.8413 118.847 58.5476C120.085 57.2539 121.68 56.3568 123.428 55.9698C125.177 55.5829 127.001 55.7236 128.669 56.374C129.779 56.7985 130.794 57.4388 131.656 58.258C132.517 59.0772 133.207 60.059 133.687 61.1466C134.166 62.2343 134.425 63.4062 134.449 64.5945C134.472 65.7829 134.26 66.9642 133.824 68.0701V68.0575Z" fill="#00A7E1"/>
<path opacity="0.3" d="M86.5952 82.8219L50.2938 98.5608C50.0015 98.6871 49.671 98.6922 49.375 98.5749C49.079 98.4576 48.8417 98.2275 48.7153 97.9352C48.5889 97.643 48.5838 97.3125 48.7011 97.0164C48.8185 96.7204 49.0485 96.4831 49.3408 96.3567L85.638 80.6221C85.7824 80.5588 85.9378 80.5247 86.0955 80.5217C86.2531 80.5187 86.4097 80.5469 86.5564 80.6046C86.7031 80.6624 86.8369 80.7485 86.9502 80.8581C87.0635 80.9678 87.154 81.0987 87.2165 81.2434C87.2798 81.3878 87.3139 81.5432 87.3169 81.7008C87.3199 81.8585 87.2917 82.0151 87.2339 82.1618C87.1762 82.3085 87.09 82.4423 86.9804 82.5556C86.8708 82.6689 86.7399 82.7594 86.5952 82.8219Z" fill="black"/>
<path d="M88.5851 82.9492C88.5851 82.9492 88.5515 82.9744 88.4801 83.0122L88.1569 83.1675L86.8974 83.7511L82.2794 85.8501C78.3878 87.626 73.0141 90.0483 67.057 92.7309C61.0998 95.4135 55.6842 97.7687 51.7421 99.406C49.7732 100.246 48.1695 100.896 47.0612 101.341L45.8017 101.845L45.4659 101.975L45.3525 102.009C45.3525 102.009 45.3861 101.988 45.4575 101.954L45.785 101.807L47.0444 101.262L51.7001 99.2674C55.6254 97.5882 61.0284 95.191 66.9856 92.5504L82.2333 85.7242L86.8512 83.6755L88.1107 83.1339L88.4423 82.9954L88.5851 82.9492Z" fill="#263238"/>
<path d="M92.5775 90.9245C92.5229 90.9497 90.8688 87.6164 88.8789 83.477C86.889 79.3376 85.3273 75.9623 85.3777 75.9203C85.428 75.8783 87.0905 79.2243 89.0762 83.3678C91.0619 87.5114 92.632 90.9245 92.5775 90.9245Z" fill="#263238"/>
<path d="M138.161 70.011C138.161 70.011 138.161 69.8976 138.136 69.6793C138.111 69.461 138.102 69.1293 138.073 68.7095C138.073 68.494 138.06 68.2547 138.035 67.9916C138.006 67.7314 137.951 67.4459 137.905 67.152C137.859 66.8581 137.804 66.5097 137.75 66.1571C137.68 65.7803 137.591 65.4075 137.481 65.0404C137.007 63.1265 136.244 61.2961 135.218 59.6121C133.881 57.3689 132.121 55.4058 130.038 53.8313L129.16 53.1764C128.85 52.9707 128.522 52.786 128.203 52.5886C127.884 52.3913 127.561 52.1688 127.208 52.0135L126.15 51.5055L125.613 51.2494L125.05 51.0437L123.887 50.6239C123.497 50.4938 123.09 50.4098 122.687 50.3007C122.283 50.1826 121.872 50.0901 121.457 50.0236C120.607 49.8642 119.747 49.7646 118.883 49.7255C118.442 49.7255 118.002 49.6667 117.557 49.6709L116.209 49.7423C115.982 49.7423 115.756 49.7423 115.529 49.7843L114.849 49.8892C114.395 49.9648 113.938 50.0194 113.48 50.1117C112.56 50.3177 111.654 50.5841 110.768 50.9094L110.092 51.1571C109.979 51.1991 109.866 51.2368 109.756 51.283L109.429 51.4384L108.115 52.0765C107.695 52.3074 107.275 52.5802 106.856 52.8321C106.646 52.9623 106.436 53.0798 106.226 53.2268L105.63 53.676C104.817 54.277 104.046 54.932 103.321 55.6365L102.288 56.7784L102.028 57.0639L101.793 57.3703L101.327 57.9959L100.848 58.6004L100.428 59.2679L100.008 59.9438L99.8026 60.2797C99.7397 60.3972 99.6851 60.5189 99.6263 60.6365L98.9378 62.0723C98.7531 62.5718 98.5684 63.0714 98.3836 63.5794C96.985 67.743 96.985 72.2495 98.3836 76.4131C98.5684 76.9169 98.7531 77.4207 98.9336 77.9203C99.1141 78.4199 99.3954 78.8774 99.6263 79.356L99.7984 79.7129L100.004 80.0487L100.424 80.7246L100.844 81.3921L101.314 82.0177L101.78 82.6432L102.011 82.9496L102.271 83.2393C102.62 83.6172 102.964 83.9992 103.308 84.377C104.031 85.0815 104.801 85.7365 105.613 86.3376L106.213 86.7868C106.411 86.9379 106.633 87.0512 106.843 87.2066C107.263 87.4585 107.683 87.7271 108.102 87.9622L109.416 88.5962L109.744 88.7515L110.08 88.8816L110.756 89.1293C111.641 89.4532 112.547 89.7183 113.468 89.9228C113.925 90.0193 114.387 90.0697 114.836 90.1453L115.516 90.2502C115.743 90.2796 115.97 90.2796 116.196 90.2922L117.544 90.3636C117.989 90.3636 118.43 90.3258 118.871 90.3132C119.734 90.2723 120.594 90.1727 121.444 90.0151C121.859 89.9452 122.27 89.8513 122.674 89.7339C123.094 89.6247 123.484 89.5407 123.875 89.4148L125.021 88.995L125.588 88.7893L126.125 88.5332L127.179 88.0252C127.531 87.8657 127.846 87.639 128.174 87.4543C128.501 87.2695 128.82 87.068 129.131 86.8665L130.012 86.2074C132.105 84.6357 133.874 82.6741 135.222 80.4308C136.242 78.7362 136.996 76.8957 137.46 74.9732C137.569 74.6073 137.659 74.236 137.729 73.8607C137.783 73.5038 137.834 73.1722 137.884 72.8615C137.934 72.5508 137.985 72.2696 138.014 72.0219C138.044 71.7742 138.039 71.5223 138.052 71.3082C138.081 70.8884 138.098 70.5609 138.115 70.3384C138.132 70.1159 138.14 70.0068 138.14 70.0068C138.14 70.0068 138.14 70.1159 138.14 70.3384C138.14 70.5609 138.119 70.8884 138.102 71.3082C138.102 71.5265 138.081 71.7658 138.073 72.0261C138.065 72.2864 137.993 72.576 137.951 72.8657C137.909 73.1554 137.859 73.508 137.804 73.8649C137.739 74.2429 137.654 74.617 137.548 74.9858C137.083 76.9079 136.329 78.7481 135.311 80.4434C133.973 82.7158 132.208 84.7075 130.113 86.3082L129.227 86.9715C128.917 87.1772 128.589 87.3661 128.266 87.5676C127.943 87.7691 127.62 87.9874 127.267 88.147L126.201 88.6633L125.659 88.9194L125.092 89.1293L123.938 89.5491C123.543 89.6835 123.136 89.7674 122.729 89.8766C122.315 89.9981 121.895 90.0934 121.469 90.1621C120.611 90.3224 119.743 90.4248 118.871 90.4685C118.451 90.4685 117.985 90.5315 117.536 90.5231L116.175 90.4559C115.945 90.4559 115.718 90.4559 115.487 90.414L114.803 90.309C114.345 90.2334 113.879 90.1831 113.421 90.0865C112.491 89.8812 111.575 89.6148 110.68 89.2889L109.996 89.037C109.882 88.995 109.765 88.9572 109.656 88.911L109.324 88.7515L107.997 88.1134C107.578 87.8783 107.158 87.6054 106.717 87.3493C106.503 87.215 106.297 87.1016 106.079 86.9505L105.474 86.4971C104.652 85.8903 103.872 85.2283 103.14 84.5156L102.095 83.3695L101.83 83.0798L101.595 82.7649L101.125 82.1352L100.651 81.5055L100.231 80.8296L99.811 80.1453L99.6011 79.8052L99.4248 79.4442L98.7279 77.9958C98.5432 77.4921 98.3543 76.9841 98.1695 76.4719C96.7534 72.2638 96.7534 67.7078 98.1695 63.4996C98.3585 62.9917 98.5432 62.4837 98.7279 61.9799C98.9126 61.4761 99.1939 61.0101 99.429 60.5273C99.4878 60.4098 99.5423 60.2881 99.6053 60.1705L99.811 59.8263L100.231 59.1462L100.651 58.4703L101.125 57.8405L101.595 57.2108L101.835 56.8959L102.095 56.6063C102.447 56.2242 102.796 55.838 103.14 55.4602C103.874 54.7497 104.654 54.0877 105.474 53.4787L106.079 53.0253C106.28 52.8741 106.499 52.7608 106.717 52.6054C107.137 52.3494 107.557 52.0765 107.997 51.8414L109.324 51.2033L109.656 51.0437C109.765 50.9975 109.882 50.9598 109.996 50.9178L110.68 50.6701C111.574 50.3428 112.488 50.075 113.417 49.8682C113.879 49.7759 114.345 49.7213 114.803 49.6457L115.487 49.545C115.714 49.5156 115.945 49.5156 116.175 49.4988L117.531 49.4316C117.981 49.4316 118.43 49.4694 118.871 49.4862C119.743 49.5302 120.611 49.6325 121.469 49.7927C121.894 49.8634 122.315 49.9587 122.729 50.0782C123.149 50.1915 123.543 50.2755 123.938 50.4056L125.092 50.8254L125.659 51.0353L126.201 51.2914L127.267 51.8078C127.62 51.9715 127.934 52.1982 128.266 52.3913C128.598 52.5845 128.917 52.7776 129.227 52.9833L130.113 53.6508C132.204 55.2432 133.967 57.2264 135.302 59.4904C136.323 61.1847 137.079 63.0252 137.544 64.948C137.649 65.3169 137.734 65.6911 137.8 66.0689C137.855 66.4257 137.901 66.7616 137.947 67.0723C137.993 67.3829 138.044 67.6642 138.069 67.9119C138.094 68.1596 138.09 68.4157 138.098 68.6298C138.098 69.0496 138.128 69.377 138.136 69.6037C138.144 69.8304 138.161 70.011 138.161 70.011Z" fill="#263238"/>
<path d="M135.344 64.8139C135.331 64.7603 135.324 64.7054 135.323 64.6501L135.29 64.1674C135.29 64.0638 135.281 63.9463 135.264 63.8147C135.264 63.6846 135.222 63.546 135.197 63.3949C135.152 63.0429 135.081 62.6949 134.983 62.3538C134.746 61.4079 134.366 60.5034 133.858 59.6711C132.518 57.4661 130.387 55.8551 127.9 55.1663C125.414 54.4776 122.758 54.7629 120.474 55.9642C120.045 56.1979 119.634 56.4631 119.244 56.7576C118.844 57.0538 118.464 57.3763 118.107 57.7232C117.752 58.0875 117.424 58.4761 117.124 58.8861C116.499 59.7242 116.014 60.6586 115.688 61.6527C115 63.7068 115 65.9293 115.688 67.9835C116.014 68.9753 116.497 69.9081 117.12 70.7458C117.423 71.1563 117.752 71.5462 118.107 71.9129C118.464 72.2598 118.844 72.5824 119.244 72.8785C119.635 73.1716 120.046 73.4367 120.474 73.672C120.896 73.8954 121.334 74.0877 121.784 74.2471C123.471 74.8612 125.291 75.0134 127.057 74.6879C128.46 74.4253 129.791 73.8687 130.963 73.0547C132.135 72.2407 133.122 71.1877 133.858 69.965C134.366 69.1327 134.746 68.2283 134.983 67.2824C135.081 66.9413 135.152 66.5932 135.197 66.2412C135.222 66.0859 135.252 65.9474 135.264 65.8214L135.29 65.4688L135.323 64.986C135.324 64.9308 135.331 64.8758 135.344 64.8223C135.35 64.8767 135.35 64.9316 135.344 64.986C135.344 65.1077 135.344 65.2673 135.344 65.4688C135.344 65.5779 135.344 65.6955 135.344 65.8256C135.344 65.9558 135.311 66.0985 135.29 66.2454C135.251 66.6012 135.185 66.9535 135.092 67.2992C134.867 68.259 134.495 69.1781 133.988 70.0238C133.251 71.2711 132.257 72.3476 131.072 73.1821C129.887 74.0165 128.539 74.5899 127.116 74.8642C125.318 75.2056 123.461 75.0607 121.738 74.4444C121.28 74.2806 120.834 74.0857 120.403 73.8609C119.964 73.623 119.543 73.3537 119.143 73.0548C118.735 72.7517 118.346 72.4221 117.981 72.0683C117.618 71.697 117.282 71.3014 116.973 70.8844C116.33 70.0243 115.829 69.066 115.491 68.0464C114.786 65.9477 114.786 63.6759 115.491 61.5771C115.826 60.5647 116.321 59.6123 116.956 58.7559C117.266 58.3384 117.602 57.9415 117.964 57.5679C118.33 57.2153 118.718 56.8872 119.127 56.5855C119.526 56.2867 119.947 56.0173 120.386 55.7795C120.817 55.5547 121.263 55.3597 121.721 55.1959C123.444 54.5796 125.301 54.4347 127.099 54.7761C128.52 55.0481 129.867 55.6192 131.05 56.4516C132.234 57.2839 133.227 58.3585 133.963 59.604C134.47 60.4496 134.842 61.3687 135.067 62.3286C135.16 62.6742 135.226 63.0265 135.264 63.3823C135.264 63.5376 135.311 63.6804 135.319 63.8021C135.327 63.9239 135.319 64.0498 135.319 64.159C135.319 64.3605 135.319 64.52 135.319 64.6417C135.334 64.698 135.342 64.7558 135.344 64.8139Z" fill="#263238"/>
<path opacity="0.3" d="M108.153 50.1362V89.7163C109.953 90.5753 111.855 91.2057 113.812 91.5929L113.392 48.4023C111.575 48.74 109.812 49.3233 108.153 50.1362Z" fill="white"/>
<path d="M105.281 88.2626C105.218 88.2626 105.172 80.135 105.172 70.1098C105.172 60.0846 105.218 51.957 105.281 51.957C105.344 51.957 105.39 60.0846 105.39 70.1098C105.39 80.135 105.34 88.2626 105.281 88.2626Z" fill="white"/>
<path d="M100.953 56.2188C100.864 56.3948 100.758 56.562 100.638 56.7183C100.42 57.029 100.117 57.4908 99.769 58.0743C99.3574 58.7538 98.9818 59.4545 98.6439 60.1734C98.2316 61.0532 97.87 61.9559 97.5607 62.877C97.2639 63.8031 97.0186 64.7449 96.8261 65.6982C96.6623 66.5798 96.549 67.3774 96.4902 68.0533C96.4314 68.7292 96.3937 69.2792 96.3853 69.6612C96.3914 69.8581 96.3774 70.055 96.3433 70.249C96.3119 70.0533 96.2978 69.8552 96.3013 69.657C96.3013 69.2792 96.3013 68.725 96.3349 68.0407C96.3895 67.2425 96.4876 66.4479 96.6288 65.6604C96.9838 63.7277 97.5996 61.8522 98.4591 60.0852C98.813 59.3649 99.2054 58.6642 99.6346 57.9862C100.008 57.411 100.327 56.9618 100.567 56.6638C100.682 56.504 100.811 56.355 100.953 56.2188Z" fill="white"/>
<path d="M94.7859 69.998C93.5769 70.696 92.3326 71.3307 91.0579 71.8998C89.8138 72.5358 88.5372 73.1061 87.2334 73.6085C88.4416 72.9079 89.686 72.2717 90.9614 71.7025C92.206 71.0689 93.4825 70.4999 94.7859 69.998Z" fill="white"/>
<path d="M83.9252 78.8809C83.9252 78.8809 83.9 78.9019 83.8412 78.9354L83.5893 79.0656L82.5985 79.5568C81.7379 79.9766 80.4995 80.5811 78.9336 81.3116C75.8353 82.7767 71.528 84.7583 66.7589 86.8741C61.9898 88.99 57.607 90.833 54.4332 92.1386C52.8463 92.7935 51.5616 93.3141 50.6548 93.6667L49.6263 94.0656L49.3576 94.1663L49.2653 94.1915C49.2653 94.1915 49.2904 94.1705 49.3492 94.1453L49.6095 94.0236L50.6255 93.6038L54.3618 92.0127C57.5188 90.6735 61.8723 88.8053 66.6582 86.6936C71.4441 84.5819 75.7556 82.6172 78.8748 81.1898L82.565 79.5106L83.5725 79.0572L83.837 78.9438L83.9252 78.8809Z" fill="white"/>
<path d="M125.52 53.7601C125.52 53.8021 124.794 53.6552 123.627 53.6971C122.106 53.7472 120.616 54.1485 119.276 54.8694C117.935 55.5904 116.779 56.6116 115.898 57.8533C115.218 58.8021 114.945 59.4864 114.907 59.4654C114.947 59.2988 115.008 59.1379 115.088 58.9868C115.28 58.5605 115.509 58.1517 115.772 57.7651C116.638 56.4769 117.806 55.4203 119.175 54.6877C120.544 53.9552 122.071 53.5689 123.623 53.5628C124.091 53.559 124.558 53.5927 125.021 53.6635C125.191 53.675 125.359 53.7074 125.52 53.7601Z" fill="white"/>
<path d="M128.74 51.5841C128.56 51.5232 128.385 51.4445 128.22 51.349C127.897 51.181 127.418 50.9585 126.818 50.6983C126.217 50.438 125.491 50.1735 124.672 49.9132C123.778 49.6461 122.868 49.4316 121.948 49.2709C121.027 49.1194 120.097 49.0241 119.164 48.9854C118.403 48.9595 117.641 48.9735 116.881 49.0274C116.23 49.0736 115.701 49.1282 115.34 49.1785C115.154 49.2177 114.964 49.236 114.773 49.2331C114.953 49.1686 115.138 49.1222 115.327 49.0946C115.688 49.019 116.213 48.9392 116.864 48.8721C117.631 48.7965 118.402 48.767 119.173 48.7839C120.115 48.8146 121.055 48.9043 121.986 49.0526C122.914 49.2163 123.831 49.4393 124.731 49.7201C125.464 49.956 126.182 50.2364 126.881 50.5597C127.477 50.8368 127.947 51.0845 128.262 51.2734C128.431 51.3614 128.591 51.4654 128.74 51.5841Z" fill="white"/>
<path opacity="0.3" d="M78.136 82.1973L79.5675 74.9513L81.2552 74.8841L82.099 65.4551L80.2854 72.9614L78.4424 72.5499L76.7002 81.9034L78.136 82.1973Z" fill="black"/>
<path d="M92.9176 85.0948C92.9176 85.0948 95.4365 83.2644 96.2761 82.9579C97.1157 82.6514 100.054 82.1183 101.083 81.4004C101.203 81.455 101.306 81.5398 101.383 81.6464C101.46 81.753 101.508 81.8777 101.523 82.0085C101.537 82.1392 101.517 82.2715 101.465 82.3923C101.413 82.5131 101.331 82.6183 101.226 82.6976C100.382 83.5051 99.3821 84.131 98.287 84.5364C97.5481 84.7547 97.7832 85.2879 98.3122 85.4726C98.8412 85.6573 102.615 86.3122 102.615 86.3122C102.615 86.3122 107.002 86.4088 107.363 86.8538C107.434 86.946 107.482 87.0528 107.505 87.1663C107.528 87.2799 107.525 87.3972 107.497 87.5094C107.468 87.6217 107.414 87.726 107.34 87.8146C107.265 87.9031 107.171 87.9737 107.065 88.0209C106.805 88.1132 103.039 88.3651 103.039 88.3651L101.104 88.1342C101.104 88.1342 107.12 89.2467 107.464 89.7505C107.53 89.831 107.577 89.9259 107.599 90.0277C107.622 90.1294 107.621 90.235 107.595 90.336C107.569 90.437 107.52 90.5305 107.451 90.609C107.383 90.6874 107.296 90.7485 107.2 90.7874C106.893 90.9722 104.24 90.4558 104.24 90.4558L100.625 90.0066L107.204 91.8916C107.204 91.8916 107.8 92.1476 107.674 92.643C107.548 93.1384 106.734 93.2434 106.734 93.2434L99.7774 91.8916C99.7774 91.8916 103.19 94.2845 103.316 94.5784C103.476 94.9982 102.775 95.376 102.506 95.2039C102.237 95.0318 97.8882 93.1594 97.8882 93.1594L92.8966 90.8882L89.5927 90.926L91.0284 84.8051L92.9176 85.0948Z" fill="#FFCAAE"/>
<path d="M77.9638 91.0985L92.1493 90.8886L91.8764 84.9818L76.7001 81.9046L78.8874 70.7501L68.5389 68.3613C67.3265 73.6426 66.525 79.0099 66.1418 84.415C66.1418 84.415 65.4323 88.8861 70.4953 90.1287C72.9541 90.6557 75.4519 90.98 77.9638 91.0985Z" fill="#FFCAAE"/>
<path d="M66.0117 69.7701L80.2854 72.9607C80.2854 72.9607 82.7791 63.666 82.8631 61.0883C82.947 58.5107 79.4164 50.3537 74.4374 52.0035C74.4374 52.0035 72.9345 51.7013 71.5617 53.7122C71.0117 54.5224 66.0117 69.7701 66.0117 69.7701Z" fill="#455A64"/>
<path d="M82.2417 59.7491C82.2814 59.054 82.2291 58.3567 82.0864 57.6752C81.9149 56.9468 81.6555 56.242 81.3139 55.5762C80.949 54.7303 80.3703 53.9939 79.6346 53.4393C78.8833 52.9172 78.0211 52.5766 77.1157 52.4443C76.3695 52.3362 75.6144 52.301 74.8613 52.3394C74.3529 52.3561 73.847 52.4193 73.35 52.5283C72.9974 52.6081 72.8126 52.6836 72.8043 52.6668C72.7959 52.65 72.8462 52.6333 72.9344 52.5955C73.0618 52.535 73.1938 52.4844 73.329 52.4443C73.8247 52.3029 74.3343 52.2157 74.8487 52.1841C75.6143 52.1235 76.3841 52.1447 77.1451 52.247C78.0882 52.3718 78.9878 52.7201 79.769 53.263C80.5258 53.842 81.1177 54.6091 81.486 55.488C81.8257 56.1762 82.0741 56.9059 82.2249 57.6584C82.328 58.1665 82.3619 58.6862 82.3256 59.2034C82.3156 59.3442 82.2974 59.4844 82.2711 59.6232C82.2627 59.6987 82.2501 59.7491 82.2417 59.7491Z" fill="#263238"/>
<path d="M82.2418 64.3711C82.2418 64.3711 82.2418 64.4299 82.2208 64.5432C82.1998 64.6566 82.1662 64.8329 82.1284 65.026C82.036 65.4752 81.9101 66.0797 81.7506 66.827C81.4063 68.3887 80.9319 70.5256 80.3862 72.9857V73.0864H80.2812L77.4223 72.4525L69.345 70.6137L66.9017 70.0344L66.2426 69.8665C66.1629 69.8506 66.0854 69.8253 66.0117 69.7909C66.0924 69.791 66.1727 69.8009 66.251 69.8203L66.9227 69.9504L69.3786 70.4626L77.4727 72.2426L80.3064 72.8765L80.1805 72.9563L81.6204 66.8186C81.801 66.0797 81.9521 65.4752 82.0612 65.0302L82.1872 64.5558C82.197 64.4921 82.2154 64.4299 82.2418 64.3711Z" fill="#263238"/>
<path d="M138.329 63.2164C138.483 63.2587 138.645 63.2584 138.799 63.2155C138.953 63.1726 139.092 63.0888 139.202 62.9729C139.664 62.5531 140.432 61.5036 140.101 61.1048C139.765 60.814 139.358 60.6195 138.921 60.5422C138.921 60.5422 139.534 59.7698 139.269 59.203C139.226 59.0966 139.163 58.9997 139.082 58.9179C139.002 58.8361 138.906 58.7711 138.8 58.7266C138.694 58.6821 138.581 58.659 138.466 58.6587C138.351 58.6583 138.238 58.6806 138.132 58.7244C138.241 58.491 138.299 58.2371 138.303 57.9794C138.306 57.7217 138.255 57.4662 138.153 57.2299C138.107 57.1052 138.037 56.9911 137.946 56.8944C137.855 56.7978 137.745 56.7205 137.624 56.6673L136.893 56.3483C136.893 56.3483 137.544 55.3743 136.801 54.564C136.639 54.389 136.445 54.2466 136.23 54.1442C135.774 53.8991 135.251 53.8076 134.739 53.8832C134.227 53.9589 133.753 54.1976 133.388 54.564C133.975 55.1476 134.647 55.7983 134.492 56.2811C134.492 56.2811 131.406 58.3256 132.204 59.4087C132.716 60.1098 133.253 59.7949 133.253 59.7949C133.253 59.7949 132.489 60.4918 132.892 60.9536C133.021 61.0902 133.19 61.1815 133.375 61.2139C133.569 61.2728 133.773 61.2883 133.973 61.2592C134.173 61.2302 134.365 61.1574 134.534 61.046L135.042 60.7605C134.982 60.9323 134.97 61.1173 135.007 61.2955C135.043 61.4737 135.128 61.6385 135.252 61.7723C135.287 61.8016 135.325 61.8283 135.365 61.852C135.552 61.9654 135.767 62.0221 135.986 62.0154C136.204 62.0087 136.416 61.9388 136.595 61.8143L137.741 61.1174L137.842 61.6799C137.842 61.6799 137.166 62.4398 138.329 63.2164Z" fill="#FFCAAE"/>
<path d="M138.329 63.2181C138.184 63.1391 138.053 63.0386 137.938 62.9201C137.795 62.7783 137.691 62.6018 137.636 62.4079C137.602 62.2709 137.599 62.1279 137.628 61.9897C137.657 61.8515 137.718 61.7218 137.804 61.6102V61.6522C137.771 61.4759 137.737 61.287 137.699 61.0897L137.787 61.1275L137.103 61.5892L136.729 61.8411C136.595 61.9413 136.444 62.018 136.284 62.0678C136.108 62.1227 135.921 62.1342 135.739 62.1013C135.557 62.0684 135.385 61.9921 135.239 61.8789C135.079 61.7508 134.972 61.5686 134.937 61.3667C134.902 61.1639 134.913 60.9558 134.97 60.758L135.096 60.8588C134.849 60.9931 134.622 61.1442 134.336 61.2786C134.04 61.4023 133.711 61.4244 133.4 61.3416C133.232 61.3109 133.072 61.242 132.934 61.14C132.858 61.0836 132.797 61.0101 132.755 60.9255C132.712 60.8409 132.69 60.7476 132.691 60.6531C132.704 60.4725 132.765 60.2986 132.867 60.1493C132.961 59.997 133.072 59.8562 133.199 59.7295L133.316 59.889C133.208 59.943 133.089 59.9711 132.968 59.9711C132.847 59.9711 132.728 59.943 132.619 59.889C132.406 59.7864 132.227 59.6246 132.103 59.423C132.038 59.317 131.998 59.198 131.985 59.0746C131.972 58.9512 131.987 58.8265 132.027 58.7093C132.099 58.4841 132.209 58.2726 132.351 58.0838C132.944 57.3435 133.652 56.7041 134.45 56.1904L134.408 56.2492C134.435 56.051 134.382 55.8502 134.261 55.6909C134.138 55.499 133.997 55.3191 133.841 55.1535C133.677 54.9772 133.509 54.8092 133.341 54.6413L133.266 54.5699L133.337 54.4902C133.694 54.1005 134.178 53.8493 134.702 53.7807C135.204 53.7166 135.714 53.7876 136.179 53.9864C136.416 54.0675 136.632 54.1999 136.812 54.374C136.992 54.5482 137.132 54.7598 137.221 54.994C137.287 55.2267 137.302 55.4709 137.265 55.7101C137.228 55.9492 137.14 56.1775 137.006 56.3793L136.964 56.2324L137.716 56.5641C137.848 56.6264 137.966 56.7147 138.064 56.8236C138.161 56.9325 138.235 57.0598 138.283 57.198C138.379 57.4461 138.425 57.7111 138.417 57.9772C138.409 58.2434 138.348 58.5052 138.237 58.7471L138.127 58.617C138.257 58.5657 138.397 58.5426 138.537 58.5491C138.676 58.5556 138.813 58.5916 138.938 58.6547C139.166 58.792 139.337 59.0087 139.416 59.2635C139.469 59.506 139.443 59.7592 139.341 59.9856C139.257 60.1929 139.145 60.3878 139.009 60.5649L138.967 60.4473C139.3 60.5142 139.62 60.6377 139.912 60.8126C140.059 60.8919 140.177 61.0172 140.247 61.1694C140.283 61.3215 140.273 61.4807 140.218 61.627C140.04 62.071 139.773 62.4738 139.433 62.8109C139.239 63.0432 138.965 63.1933 138.665 63.2307C138.588 63.2435 138.51 63.2435 138.434 63.2307C138.383 63.2307 138.358 63.2055 138.358 63.2013C138.458 63.2167 138.56 63.2167 138.661 63.2013C138.947 63.1471 139.203 62.9885 139.378 62.7563C139.694 62.4208 139.942 62.0274 140.109 61.5976C140.146 61.4731 140.146 61.3402 140.109 61.2156C140.047 61.091 139.947 60.9895 139.823 60.9259C139.544 60.7658 139.238 60.655 138.921 60.5985L138.812 60.5733L138.879 60.4809C139.016 60.3214 139.118 60.1356 139.18 59.9348C139.242 59.7341 139.263 59.5227 139.24 59.3138C139.167 59.101 139.017 58.9229 138.82 58.8143C138.718 58.7635 138.605 58.735 138.491 58.7306C138.377 58.7263 138.263 58.7462 138.157 58.7891L137.938 58.8688L138.048 58.6589C138.139 58.438 138.186 58.2012 138.186 57.962C138.186 57.7229 138.139 57.4861 138.048 57.2652C138.01 57.1516 137.949 57.0472 137.869 56.9583C137.788 56.8695 137.691 56.7981 137.582 56.7488L136.83 56.4213L136.725 56.3751L136.788 56.2702C136.902 56.0938 136.978 55.8953 137.01 55.6876C137.042 55.4799 137.029 55.2678 136.973 55.0653C136.892 54.8605 136.768 54.6758 136.608 54.5242C136.449 54.3727 136.258 54.2579 136.049 54.1879C135.618 54.0058 135.146 53.9406 134.681 53.999C134.207 54.0615 133.77 54.2889 133.446 54.6413V54.4902C133.619 54.6581 133.786 54.8302 133.954 55.0065C134.123 55.1841 134.274 55.3766 134.408 55.5817C134.485 55.6857 134.54 55.8048 134.569 55.9313C134.598 56.0578 134.6 56.189 134.576 56.3164V56.3542L134.542 56.3793C133.77 56.8788 133.082 57.4964 132.502 58.2097C132.25 58.554 132.044 58.999 132.258 59.318C132.359 59.4846 132.505 59.6198 132.678 59.7085C132.758 59.7468 132.846 59.7667 132.934 59.7667C133.023 59.7667 133.11 59.7468 133.19 59.7085L133.778 59.4104L133.308 59.868C133.074 60.0625 132.917 60.333 132.863 60.6321C132.842 60.9007 133.14 61.0813 133.413 61.1316C133.689 61.2142 133.986 61.1994 134.252 61.0897C134.5 60.9763 134.752 60.8168 134.996 60.6698L135.176 60.5733L135.117 60.7706C135.051 60.9295 135.035 61.105 135.072 61.2732C135.109 61.4414 135.196 61.5943 135.323 61.711C135.448 61.8118 135.597 61.8806 135.755 61.9113C135.913 61.942 136.076 61.9338 136.23 61.8873C136.509 61.7709 136.773 61.62 137.015 61.4381L137.708 60.9931L137.779 60.9427V61.0267C137.808 61.2282 137.842 61.4171 137.871 61.5934C137.792 61.6931 137.735 61.8091 137.705 61.9332C137.675 62.0573 137.673 62.1864 137.699 62.3113C137.749 62.4961 137.842 62.6661 137.972 62.8067C138.19 63.1342 138.337 63.2181 138.329 63.2181Z" fill="#FF9A6C"/>
<path d="M137.049 56.0551C137.044 56.322 136.971 56.5833 136.839 56.8149C136.557 57.3957 136.16 57.9128 135.672 58.3347C135.19 58.752 134.665 59.1166 134.106 59.422C133.886 59.5674 133.647 59.6805 133.396 59.7578C133.584 59.5734 133.796 59.4152 134.026 59.2877C134.551 58.9508 135.052 58.5777 135.525 58.1709C135.992 57.7641 136.389 57.2833 136.7 56.7478C136.931 56.3322 137.015 56.0425 137.049 56.0551Z" fill="#FF9A6C"/>
<path d="M138.161 58.5371C138.19 58.5371 138.132 58.8016 137.829 59.0451C137.527 59.2886 137.12 59.5573 136.658 59.8847C136.116 60.291 135.532 60.6373 134.916 60.9175C135.41 60.4553 135.954 60.0484 136.536 59.7042C136.998 59.3935 137.435 59.1248 137.737 58.9317C137.891 58.8146 138.033 58.6824 138.161 58.5371Z" fill="#FF9A6C"/>
<path d="M139.001 60.5101C139.034 60.5562 138.774 60.7997 138.384 60.9719C137.993 61.144 137.636 61.1734 137.624 61.1146C137.611 61.0558 137.922 60.9341 138.295 60.7703C138.669 60.6066 138.975 60.4597 139.001 60.5101Z" fill="#FF9A6C"/>
<path d="M138.82 61.1179C138.82 61.1809 138.53 61.2396 138.245 61.4453C137.959 61.6511 137.804 61.8987 137.745 61.8652C137.687 61.8316 137.775 61.4999 138.119 61.2564C138.463 61.0129 138.828 61.0759 138.82 61.1179Z" fill="#FF9A6C"/>
</svg>
