<svg width="196" height="188" viewBox="0 0 196 188" fill="none" xmlns="http://www.w3.org/2000/svg">
<path d="M46.8089 0.114258H6.26746V36.3842H46.8089V0.114258Z" fill="#FAFAFA"/>
<path d="M46.83 36.3797C46.83 36.3797 46.83 36.1475 46.83 35.7043C46.83 35.2611 46.83 34.6111 46.83 33.7627C46.83 32.0744 46.83 29.5714 46.8047 26.4015C46.8047 20.0702 46.7794 11.008 46.7583 0.105522L46.8511 0.19838H6.3308L6.43633 0.0886378C6.43633 13.2873 6.43633 25.7051 6.43633 36.3628L6.34347 36.2657L35.6658 36.3163L43.8754 36.3797H46.0661H46.6316H46.0703H43.9007L35.649 36.405L6.26749 36.4514H6.17041V36.3797C6.17041 25.722 6.17041 13.3042 6.17041 0.105522V0H6.28437H46.8047H46.8976V0.0886378C46.8976 11.0122 46.8596 20.0913 46.8511 26.4395C46.8511 29.6009 46.83 32.0828 46.8258 33.7838C46.8258 34.628 46.8258 35.2696 46.8258 35.7085C46.8258 36.1475 46.83 36.3797 46.83 36.3797Z" fill="#E0E0E0"/>
<path d="M21.8129 6.55865C21.8129 6.62196 19.6771 6.66839 17.0475 6.66839C14.4179 6.66839 12.278 6.62196 12.278 6.55865C12.278 6.49533 14.4137 6.45312 17.0475 6.45312C19.6814 6.45312 21.8129 6.49955 21.8129 6.55865Z" fill="#E0E0E0"/>
<path d="M38.9919 9.28552C38.9919 9.34462 33.1291 9.39105 25.9072 9.39105C18.6853 9.39105 12.8225 9.34462 12.8225 9.28552C12.8225 9.22643 18.6811 9.17578 25.9072 9.17578C33.1333 9.17578 38.9919 9.22221 38.9919 9.28552Z" fill="#E0E0E0"/>
<path d="M14.0592 13.8994H12.3497V15.6089H14.0592V13.8994Z" fill="#E0E0E0"/>
<path d="M18.2633 13.8994H16.5538V15.6089H18.2633V13.8994Z" fill="#E0E0E0"/>
<path d="M22.5473 13.8193H20.8379V15.5288H22.5473V13.8193Z" fill="#E0E0E0"/>
<path d="M26.6712 13.8994H24.9617V15.6089H26.6712V13.8994Z" fill="#E0E0E0"/>
<path d="M30.8752 13.8994H29.1657V15.6089H30.8752V13.8994Z" fill="#E0E0E0"/>
<path d="M35.0834 13.8994H33.3739V15.6089H35.0834V13.8994Z" fill="#E0E0E0"/>
<path d="M39.2873 13.8994H37.5779V15.6089H39.2873V13.8994Z" fill="#EBEBEB"/>
<path d="M14.0592 17.5293H12.3497V19.2387H14.0592V17.5293Z" fill="#EBEBEB"/>
<path d="M18.2633 17.5293H16.5538V19.2387H18.2633V17.5293Z" fill="#E0E0E0"/>
<path d="M22.4671 17.5293H20.7577V19.2387H22.4671V17.5293Z" fill="#EBEBEB"/>
<path d="M26.6712 17.5293H24.9617V19.2387H26.6712V17.5293Z" fill="#E0E0E0"/>
<path d="M30.8752 17.5293H29.1657V19.2387H30.8752V17.5293Z" fill="#E0E0E0"/>
<path d="M35.1594 17.4492H33.45V19.1587H35.1594V17.4492Z" fill="#E0E0E0"/>
<path d="M39.2873 17.5293H37.5779V19.2387H39.2873V17.5293Z" fill="#E0E0E0"/>
<path d="M14.0592 21.1592H12.3497V22.8686H14.0592V21.1592Z" fill="#E0E0E0"/>
<path d="M18.3434 21.083H16.6339V22.7925H18.3434V21.083Z" fill="#E0E0E0"/>
<path d="M22.4671 21.1592H20.7577V22.8686H22.4671V21.1592Z" fill="#E0E0E0"/>
<path d="M26.6712 21.1592H24.9617V22.8686H26.6712V21.1592Z" fill="#EBEBEB"/>
<path d="M30.8752 21.1592H29.1657V22.8686H30.8752V21.1592Z" fill="#E0E0E0"/>
<path d="M35.0834 21.1592H33.3739V22.8686H35.0834V21.1592Z" fill="#E0E0E0"/>
<path d="M39.2873 21.1592H37.5779V22.8686H39.2873V21.1592Z" fill="#E0E0E0"/>
<path d="M14.0592 24.7891H12.3497V26.4985H14.0592V24.7891Z" fill="#E0E0E0"/>
<path d="M18.2633 24.7891H16.5538V26.4985H18.2633V24.7891Z" fill="#E0E0E0"/>
<path d="M22.4671 24.7891H20.7577V26.4985H22.4671V24.7891Z" fill="#E0E0E0"/>
<path d="M26.7514 24.7129H25.0419V26.4223H26.7514V24.7129Z" fill="#E0E0E0"/>
<path d="M30.8752 24.7891H29.1657V26.4985H30.8752V24.7891Z" fill="#E0E0E0"/>
<path d="M35.0834 24.7891H33.3739V26.4985H35.0834V24.7891Z" fill="#EBEBEB"/>
<path d="M39.2873 24.7891H37.5779V26.4985H39.2873V24.7891Z" fill="#E0E0E0"/>
<path d="M14.0592 28.4229H12.3497V30.1323H14.0592V28.4229Z" fill="#E0E0E0"/>
<path d="M18.2633 28.4229H16.5538V30.1323H18.2633V28.4229Z" fill="#EBEBEB"/>
<path d="M22.4671 28.4229H20.7577V30.1323H22.4671V28.4229Z" fill="#E0E0E0"/>
<path d="M26.6712 28.4229H24.9617V30.1323H26.6712V28.4229Z" fill="#E0E0E0"/>
<path d="M30.8752 28.4229H29.1657V30.1323H30.8752V28.4229Z" fill="#E0E0E0"/>
<path d="M35.1594 28.3428H33.45V30.0522H35.1594V28.3428Z" fill="#E0E0E0"/>
<path d="M39.2873 28.4229H37.5779V30.1323H39.2873V28.4229Z" fill="#E0E0E0"/>
<path d="M190.551 0.852539H161.832V29.5713H190.551V0.852539Z" fill="white"/>
<path d="M190.551 29.5761C190.551 29.5761 190.551 29.5254 190.551 29.4368C190.551 29.3482 190.551 29.2089 190.551 29.0147C190.551 28.6602 190.551 28.141 190.551 27.4699C190.551 26.1108 190.551 24.1354 190.525 21.624C190.525 16.5969 190.496 9.42989 190.475 0.831986L190.572 0.929066H161.87L161.979 0.819324C161.979 11.3377 161.979 21.1935 161.979 29.5423L161.887 29.4453L182.674 29.4959L188.52 29.5212H190.069H190.466H190.605H190.09H188.558L182.738 29.5465L161.887 29.593H161.79V29.5001C161.79 21.1512 161.79 11.2955 161.79 0.79822V0.688477H161.899H190.601H190.698V0.781336C190.677 9.40457 190.66 16.5927 190.648 21.6324C190.648 24.1354 190.648 26.1065 190.622 27.4572C190.622 28.1241 190.622 28.6348 190.622 28.9852C190.622 29.154 190.622 29.2806 190.622 29.3735C190.622 29.4664 190.551 29.5761 190.551 29.5761Z" fill="#E0E0E0"/>
<path d="M190.428 8.20513C190.428 8.26422 184.025 8.31487 176.128 8.31487C168.231 8.31487 161.832 8.26422 161.832 8.20513C161.832 8.14604 168.231 8.09961 176.128 8.09961C184.025 8.09961 190.428 8.14604 190.428 8.20513Z" fill="#E0E0E0"/>
<path d="M164.626 5.19566C165.076 5.19566 165.441 4.83094 165.441 4.38103C165.441 3.93113 165.076 3.56641 164.626 3.56641C164.176 3.56641 163.811 3.93113 163.811 4.38103C163.811 4.83094 164.176 5.19566 164.626 5.19566Z" fill="#E0E0E0"/>
<path d="M167.108 5.19566C167.558 5.19566 167.922 4.83094 167.922 4.38103C167.922 3.93113 167.558 3.56641 167.108 3.56641C166.658 3.56641 166.293 3.93113 166.293 4.38103C166.293 4.83094 166.658 5.19566 167.108 5.19566Z" fill="#E0E0E0"/>
<path d="M170.404 4.38104C170.404 4.54216 170.357 4.69966 170.267 4.83363C170.178 4.96759 170.05 5.07201 169.902 5.13366C169.753 5.19532 169.589 5.21145 169.431 5.18002C169.273 5.14859 169.128 5.071 169.014 4.95707C168.9 4.84315 168.822 4.69799 168.791 4.53997C168.759 4.38195 168.776 4.21815 168.837 4.0693C168.899 3.92045 169.003 3.79322 169.137 3.70371C169.271 3.61419 169.429 3.56642 169.59 3.56642C169.697 3.56586 169.803 3.58655 169.902 3.62729C170.001 3.66803 170.091 3.72801 170.167 3.80377C170.243 3.87953 170.303 3.96955 170.344 4.06864C170.384 4.16773 170.405 4.27391 170.404 4.38104V4.38104Z" fill="#E0E0E0"/>
<path d="M167.648 16.6517C168.937 16.6517 169.982 15.6066 169.982 14.3175C169.982 13.0284 168.937 11.9834 167.648 11.9834C166.359 11.9834 165.314 13.0284 165.314 14.3175C165.314 15.6066 166.359 16.6517 167.648 16.6517Z" fill="#EBEBEB"/>
<path d="M169.982 22.8732C169.982 23.3349 169.845 23.7861 169.589 24.17C169.333 24.5538 168.968 24.853 168.541 25.0297C168.115 25.2063 167.646 25.2526 167.193 25.1625C166.74 25.0724 166.324 24.8501 165.998 24.5237C165.671 24.1973 165.449 23.7813 165.359 23.3286C165.269 22.8758 165.315 22.4065 165.492 21.98C165.668 21.5535 165.968 21.1889 166.351 20.9324C166.735 20.676 167.187 20.5391 167.648 20.5391C168.267 20.5391 168.861 20.785 169.299 21.2227C169.736 21.6605 169.982 22.2541 169.982 22.8732V22.8732Z" fill="#EBEBEB"/>
<path d="M186.262 14.1273C186.262 14.1864 183.071 14.2371 179.133 14.2371C175.195 14.2371 172.004 14.1864 172.004 14.1273C172.004 14.0682 175.195 14.0176 179.133 14.0176C183.071 14.0176 186.262 14.064 186.262 14.1273Z" fill="#E0E0E0"/>
<path d="M177.141 22.843C175.456 22.989 173.761 22.989 172.076 22.843C173.761 22.6969 175.456 22.6969 177.141 22.843V22.843Z" fill="#E0E0E0"/>
<path d="M186.262 33.9405C191.263 33.9405 195.316 29.887 195.316 24.8868C195.316 19.8865 191.263 15.833 186.262 15.833C181.262 15.833 177.208 19.8865 177.208 24.8868C177.208 29.887 181.262 33.9405 186.262 33.9405Z" fill="#E0E0E0"/>
<path d="M187.115 21.4502H186.271V28.1698H187.115V21.4502Z" fill="white"/>
<path d="M190.053 24.3877H183.333V25.2319H190.053V24.3877Z" fill="white"/>
<path d="M17.154 100.988C21.7588 99.0395 23.9118 93.7266 21.9629 89.1218C20.0139 84.517 14.7011 82.364 10.0963 84.3129C5.49148 86.2619 3.33847 91.5747 5.28741 96.1795C7.23634 100.784 12.5492 102.937 17.154 100.988Z" fill="#E0E0E0"/>
<path d="M14.4771 89.2168H13.6329V95.9364H14.4771V89.2168Z" fill="white"/>
<path d="M17.4148 92.1543H10.6952V92.9985H17.4148V92.1543Z" fill="white"/>
<path d="M123.405 132.839H61.9154V161.195H123.405V132.839Z" fill="#F5F5F5"/>
<path d="M121.961 159.861H63.321V134.329H121.961V159.861ZM63.7135 159.477H121.539V134.726H63.7135V159.477Z" fill="#E0E0E0"/>
<path d="M138.427 132.839H123.405V161.195H138.427V132.839Z" fill="#E0E0E0"/>
<path d="M63.5151 142.23H121.763C121.783 142.23 121.803 142.222 121.817 142.208C121.831 142.194 121.839 142.174 121.839 142.154C121.839 142.134 121.831 142.115 121.817 142.1C121.803 142.086 121.783 142.078 121.763 142.078H63.5151C63.495 142.078 63.4756 142.086 63.4614 142.1C63.4472 142.115 63.4391 142.134 63.4391 142.154C63.4391 142.174 63.4472 142.194 63.4614 142.208C63.4756 142.222 63.495 142.23 63.5151 142.23Z" fill="#E0E0E0"/>
<path d="M92.8375 142.155C92.9937 139.589 92.9937 137.017 92.8375 134.452C92.8334 134.434 92.8234 134.418 92.8093 134.407C92.7951 134.396 92.7775 134.39 92.7594 134.39C92.7413 134.39 92.7238 134.396 92.7096 134.407C92.6954 134.418 92.6855 134.434 92.6813 134.452C92.5273 137.017 92.5273 139.589 92.6813 142.155C92.6813 142.17 92.6876 142.185 92.6986 142.196C92.7097 142.208 92.7248 142.214 92.7404 142.214C92.7561 142.214 92.7711 142.208 92.7822 142.196C92.7933 142.185 92.7995 142.17 92.7995 142.155H92.8375Z" fill="#E0E0E0"/>
<path d="M108.497 138.301C108.497 138.458 108.45 138.612 108.363 138.742C108.276 138.873 108.152 138.974 108.007 139.034C107.862 139.095 107.703 139.11 107.549 139.08C107.395 139.049 107.253 138.973 107.142 138.862C107.031 138.751 106.956 138.61 106.925 138.456C106.895 138.302 106.91 138.143 106.97 137.998C107.03 137.853 107.132 137.729 107.263 137.642C107.393 137.554 107.546 137.508 107.703 137.508C107.914 137.508 108.116 137.591 108.265 137.74C108.413 137.889 108.497 138.091 108.497 138.301V138.301Z" fill="#E0E0E0"/>
<path d="M77.9336 138.301C77.9336 138.458 77.8871 138.612 77.7999 138.742C77.7127 138.873 77.5887 138.974 77.4438 139.034C77.2988 139.095 77.1392 139.11 76.9853 139.08C76.8313 139.049 76.69 138.973 76.579 138.862C76.468 138.751 76.3924 138.61 76.3618 138.456C76.3312 138.302 76.3469 138.143 76.407 137.998C76.467 137.853 76.5687 137.729 76.6992 137.642C76.8297 137.554 76.9831 137.508 77.1401 137.508C77.3505 137.508 77.5524 137.591 77.7012 137.74C77.85 137.889 77.9336 138.091 77.9336 138.301V138.301Z" fill="#E0E0E0"/>
<path d="M93.4242 147.097C93.4242 147.254 93.3777 147.408 93.2905 147.538C93.2033 147.669 93.0793 147.77 92.9344 147.83C92.7894 147.89 92.6298 147.906 92.4759 147.876C92.3219 147.845 92.1806 147.769 92.0696 147.658C91.9586 147.547 91.883 147.406 91.8524 147.252C91.8218 147.098 91.8375 146.939 91.8976 146.794C91.9576 146.649 92.0593 146.525 92.1898 146.437C92.3203 146.35 92.4737 146.304 92.6307 146.304C92.8411 146.304 93.043 146.387 93.1918 146.536C93.3406 146.685 93.4242 146.887 93.4242 147.097V147.097Z" fill="#E0E0E0"/>
<path d="M69.2682 161.195L66.1025 178.999H67.8837L73.717 161.195H69.2682Z" fill="#E0E0E0"/>
<path d="M119.053 161.195L121.7 179.028H119.919L114.6 161.195H119.053Z" fill="#E0E0E0"/>
<path d="M130.939 161.195L133.94 179.028H132.159L126.486 161.195H130.939Z" fill="#E0E0E0"/>
<path d="M93.3693 155.121C93.3693 155.278 93.3226 155.431 93.2352 155.562C93.1479 155.693 93.0237 155.794 92.8784 155.854C92.7332 155.914 92.5734 155.93 92.4194 155.899C92.2653 155.868 92.124 155.792 92.0132 155.68C91.9023 155.569 91.8271 155.427 91.797 155.273C91.7668 155.119 91.7831 154.959 91.8438 154.814C91.9046 154.669 92.0069 154.546 92.138 154.459C92.269 154.372 92.4228 154.326 92.58 154.327C92.7897 154.328 92.9904 154.412 93.1384 154.561C93.2863 154.71 93.3693 154.911 93.3693 155.121V155.121Z" fill="#E0E0E0"/>
<path d="M63.5152 151.015H121.763C121.781 151.01 121.796 151 121.808 150.986C121.819 150.972 121.825 150.955 121.825 150.936C121.825 150.918 121.819 150.901 121.808 150.887C121.796 150.872 121.781 150.863 121.763 150.858H63.5152C63.4976 150.863 63.4818 150.872 63.4706 150.887C63.4594 150.901 63.4532 150.918 63.4532 150.936C63.4532 150.955 63.4594 150.972 63.4706 150.986C63.4818 151 63.4976 151.01 63.5152 151.015V151.015Z" fill="#E0E0E0"/>
<path d="M186.722 179.078C186.722 179.138 145.442 179.188 94.53 179.188C43.6179 179.188 2.32941 179.138 2.32941 179.078C2.32941 179.019 43.6011 178.969 94.53 178.969C145.459 178.969 186.722 179.015 186.722 179.078Z" fill="#263238"/>
<path d="M155.032 14.7354H28.4523V126.259H155.032V14.7354Z" fill="white"/>
<path d="M155.032 82.6367H28.4523V101.479H155.032V82.6367Z" fill="white"/>
<path d="M155.032 61.0801H28.4523V82.6403H155.032V61.0801Z" fill="#F5F5F5"/>
<path d="M155.032 104.56H28.4523V126.12H155.032V104.56Z" fill="#F5F5F5"/>
<path d="M104.88 67.7914C104.88 67.8547 89.9504 67.9053 71.5347 67.9053C53.1191 67.9053 38.1899 67.8547 38.1899 67.7914C38.1899 67.7281 53.1149 67.6816 71.5347 67.6816C89.9546 67.6816 104.88 67.7323 104.88 67.7914Z" fill="#263238"/>
<path d="M66.3473 73.7933C66.3473 73.8524 60.016 73.9031 52.1779 73.9031C44.3397 73.9031 38.0084 73.8524 38.0084 73.7933C38.0084 73.7342 44.3397 73.6836 52.1779 73.6836C60.016 73.6836 66.3473 73.7342 66.3473 73.7933Z" fill="#263238"/>
<path d="M104.88 89.0599C104.88 89.119 89.9504 89.1697 71.5347 89.1697C53.1191 89.1697 38.1899 89.119 38.1899 89.0599C38.1899 89.0008 53.1149 88.9502 71.5347 88.9502C89.9546 88.9502 104.88 88.9966 104.88 89.0599Z" fill="#263238"/>
<path d="M66.3473 95.0502C66.3473 95.1135 60.016 95.1599 52.1779 95.1599C44.3397 95.1599 38.0084 95.1135 38.0084 95.0502C38.0084 94.9869 44.3397 94.9404 52.1779 94.9404C60.016 94.9404 66.3473 94.9995 66.3473 95.0502Z" fill="#263238"/>
<path d="M104.88 110.326C104.88 110.385 89.9504 110.435 71.5347 110.435C53.1191 110.435 38.1899 110.385 38.1899 110.326C38.1899 110.266 53.1149 110.216 71.5347 110.216C89.9546 110.216 104.88 110.245 104.88 110.326Z" fill="#263238"/>
<path d="M66.3473 116.323C66.3473 116.386 60.016 116.432 52.1779 116.432C44.3397 116.432 38.0084 116.386 38.0084 116.323C38.0084 116.259 44.3397 116.213 52.1779 116.213C60.016 116.213 66.3473 116.264 66.3473 116.323Z" fill="#263238"/>
<path d="M155.032 14.5957H28.4523V25.2365H155.032V14.5957Z" fill="#E0E0E0"/>
<path d="M155.032 24.2275H28.4523V34.8683H155.032V24.2275Z" fill="#F5F5F5"/>
<path d="M36.071 19.5812C36.0685 19.8454 35.9878 20.103 35.8391 20.3215C35.6903 20.5399 35.4803 20.7094 35.2353 20.8086C34.9904 20.9078 34.7215 20.9323 34.4627 20.8789C34.2039 20.8255 33.9667 20.6967 33.781 20.5086C33.5953 20.3206 33.4694 20.0818 33.4193 19.8223C33.3692 19.5628 33.397 19.2943 33.4993 19.0506C33.6016 18.807 33.7737 18.599 33.994 18.4531C34.2143 18.3071 34.4729 18.2297 34.7372 18.2305C34.9138 18.2305 35.0886 18.2655 35.2515 18.3336C35.4145 18.4017 35.5623 18.5014 35.6864 18.6271C35.8104 18.7527 35.9083 18.9018 35.9743 19.0655C36.0404 19.2293 36.0732 19.4046 36.071 19.5812Z" fill="#263238"/>
<path d="M40.9757 19.5803C40.9731 19.8451 40.8921 20.1032 40.7428 20.3219C40.5935 20.5406 40.3827 20.7101 40.137 20.8089C39.8913 20.9077 39.6218 20.9314 39.3627 20.877C39.1035 20.8225 38.8663 20.6924 38.6812 20.5031C38.496 20.3138 38.3712 20.0738 38.3225 19.8135C38.2738 19.5532 38.3034 19.2843 38.4077 19.0409C38.5119 18.7975 38.686 18.5904 38.908 18.446C39.1299 18.3016 39.3897 18.2263 39.6545 18.2296C40.0087 18.2341 40.3466 18.3787 40.5942 18.6319C40.8419 18.8851 40.979 19.2261 40.9757 19.5803V19.5803Z" fill="#263238"/>
<path d="M45.876 19.5811C45.8735 19.8452 45.793 20.1027 45.6444 20.321C45.4959 20.5394 45.2861 20.7089 45.0414 20.8082C44.7967 20.9076 44.528 20.9323 44.2693 20.8792C44.0106 20.8262 43.7734 20.6978 43.5875 20.5101C43.4017 20.3225 43.2755 20.0841 43.2249 19.8249C43.1743 19.5657 43.2015 19.2973 43.3031 19.0536C43.4048 18.8098 43.5762 18.6016 43.796 18.4551C44.0158 18.3086 44.2739 18.2305 44.538 18.2305C44.7148 18.2305 44.8898 18.2655 45.053 18.3335C45.2162 18.4015 45.3642 18.5012 45.4887 18.6268C45.6131 18.7524 45.7114 18.9014 45.7779 19.0652C45.8443 19.229 45.8777 19.4044 45.876 19.5811V19.5811Z" fill="#263238"/>
<path d="M155.057 126.284C155.057 125.575 155.032 82.8089 154.994 14.6166L155.057 14.701L28.541 14.7263L28.617 14.6166C28.617 54.2548 28.617 92.0062 28.617 126.284L28.5452 126.183L155.07 126.284L28.5452 126.385H28.4692V126.284C28.4692 92.0062 28.4692 54.2548 28.4692 14.6166V14.5068H28.5579L155.074 14.5279H155.137V14.6166C155.078 82.8089 155.057 125.554 155.057 126.284Z" fill="#263238"/>
<path d="M138.651 41.1406H108.691C107.346 41.1406 106.256 42.231 106.256 43.5761V50.4856C106.256 51.8307 107.346 52.9211 108.691 52.9211H138.651C139.996 52.9211 141.086 51.8307 141.086 50.4856V43.5761C141.086 42.231 139.996 41.1406 138.651 41.1406Z" fill="#00A7E1"/>
<path d="M114.364 46.9653H113.608V47.7124H113.258V46.9653H112.498V46.6361H113.258V45.8848H113.608V46.6361H114.364V46.9653Z" fill="white"/>
<path d="M118.082 47.5272H116.529L116.208 48.2574H115.786L117.107 45.3408H117.53L118.855 48.2574H118.433L118.082 47.5272ZM117.935 47.1938L117.318 45.7629L116.69 47.1938H117.935Z" fill="white"/>
<path d="M121.278 45.1631V48.257H120.894V47.9066C120.803 48.0286 120.685 48.1267 120.548 48.1922C120.411 48.2576 120.26 48.2886 120.108 48.2823C119.81 48.2823 119.523 48.1636 119.312 47.9522C119.1 47.7409 118.982 47.4542 118.982 47.1553C118.982 46.8564 119.1 46.5698 119.312 46.3584C119.523 46.1471 119.81 46.0284 120.108 46.0284C120.255 46.022 120.402 46.0509 120.536 46.1126C120.669 46.1743 120.786 46.2669 120.877 46.3829V45.1631H121.278ZM120.881 47.1511C120.873 47.0059 120.824 46.866 120.737 46.7488C120.651 46.6317 120.532 46.5424 120.396 46.4921C120.26 46.4418 120.111 46.4326 119.97 46.4658C119.828 46.4989 119.699 46.5729 119.599 46.6786C119.499 46.7843 119.433 46.917 119.407 47.0602C119.382 47.2034 119.4 47.3509 119.457 47.4844C119.515 47.6179 119.611 47.7314 119.733 47.811C119.854 47.8905 119.997 47.9326 120.142 47.932C120.243 47.934 120.344 47.9149 120.437 47.8758C120.531 47.8367 120.615 47.7786 120.684 47.705C120.754 47.6315 120.807 47.5442 120.841 47.4489C120.875 47.3535 120.889 47.252 120.881 47.1511V47.1511Z" fill="white"/>
<path d="M124.123 45.1631V48.257H123.738V47.9066C123.647 48.0284 123.527 48.1262 123.39 48.1917C123.253 48.2571 123.101 48.2882 122.949 48.2823C122.65 48.2823 122.364 48.1636 122.152 47.9522C121.941 47.7409 121.822 47.4542 121.822 47.1553C121.822 46.8564 121.941 46.5698 122.152 46.3584C122.364 46.1471 122.65 46.0284 122.949 46.0284C123.097 46.0224 123.244 46.0514 123.378 46.113C123.512 46.1746 123.63 46.2671 123.722 46.3829V45.1631H124.123ZM123.726 47.1511C123.733 47.0486 123.72 46.9455 123.686 46.8485C123.652 46.7514 123.598 46.6624 123.529 46.587C123.459 46.5116 123.374 46.4514 123.28 46.4103C123.185 46.3691 123.084 46.3479 122.981 46.3479C122.878 46.3479 122.776 46.3691 122.682 46.4103C122.588 46.4514 122.503 46.5116 122.433 46.587C122.363 46.6624 122.309 46.7514 122.276 46.8485C122.242 46.9455 122.228 47.0486 122.236 47.1511C122.228 47.2537 122.242 47.3567 122.276 47.4538C122.309 47.5509 122.363 47.6399 122.433 47.7153C122.503 47.7907 122.588 47.8508 122.682 47.892C122.776 47.9331 122.878 47.9543 122.981 47.9543C123.084 47.9543 123.185 47.9331 123.28 47.892C123.374 47.8508 123.459 47.7907 123.529 47.7153C123.598 47.6399 123.652 47.5509 123.686 47.4538C123.72 47.3567 123.733 47.2537 123.726 47.1511Z" fill="white"/>
<path d="M126.642 45.7038H125.642V45.3408H128.052V45.7038H127.052V48.2363H126.63L126.642 45.7038Z" fill="white"/>
<path d="M130.082 46.9318V48.2656H129.707V47.9744C129.621 48.0825 129.51 48.1679 129.383 48.2231C129.257 48.2783 129.118 48.3016 128.981 48.2909C128.478 48.2909 128.162 48.025 128.162 47.6409C128.162 47.2568 128.39 46.9951 129.052 46.9951H129.686V46.9149C129.686 46.5773 129.487 46.3831 129.09 46.3831C128.837 46.3798 128.59 46.4632 128.39 46.6195L128.225 46.3198C128.489 46.1255 128.81 46.0258 129.137 46.037C129.74 46.0285 130.082 46.3198 130.082 46.9318ZM129.686 47.5903V47.2821H129.065C128.673 47.2821 128.559 47.4341 128.559 47.624C128.559 47.814 128.744 47.9828 129.048 47.9828C129.183 47.9917 129.317 47.9577 129.432 47.8856C129.546 47.8136 129.635 47.7073 129.686 47.5818V47.5903Z" fill="white"/>
<path d="M130.547 48.0251L130.716 47.7086C130.946 47.8571 131.214 47.9363 131.488 47.9365C131.859 47.9365 132.016 47.8225 132.016 47.6368C132.016 47.1387 130.618 47.5693 130.618 46.6913C130.618 46.2946 130.973 46.0287 131.539 46.0287C131.82 46.0229 132.098 46.0913 132.345 46.227L132.172 46.5436C131.981 46.424 131.759 46.3638 131.534 46.3705C131.184 46.3705 131.015 46.4972 131.015 46.6745C131.015 47.1936 132.417 46.7673 132.417 47.6284C132.417 48.0293 132.049 48.2826 131.458 48.2826C131.136 48.2892 130.818 48.1996 130.547 48.0251V48.0251Z" fill="white"/>
<path d="M133.78 47.2274L133.32 47.6495V48.2531H132.936V45.1592H133.337V47.143L134.54 46.0456H135.025L134.096 46.9573L135.118 48.2531H134.624L133.78 47.2274Z" fill="white"/>
<path d="M42.4234 46.0329H41.1572V45.29H44.593V46.0329H43.3267V49.2323H42.415L42.4234 46.0329Z" fill="#263238"/>
<path d="M47.4843 48.3882H45.6524L45.3063 49.2323H44.3693L46.1251 45.29H47.0284L48.7885 49.2323H47.8346L47.4843 48.3882ZM47.1972 47.6959L46.5726 46.1849L45.9479 47.6959H47.1972Z" fill="#263238"/>
<path d="M48.8898 48.8436L49.2021 48.1555C49.5833 48.4235 50.0363 48.5706 50.5021 48.5776C51.0424 48.5776 51.2619 48.3961 51.2619 48.1555C51.2619 47.4211 48.97 47.9276 48.97 46.4672C48.97 45.7961 49.5102 45.2389 50.6288 45.2389C51.1081 45.2282 51.5812 45.3494 51.9963 45.5893L51.7178 46.2815C51.3858 46.0866 51.0094 45.9805 50.6245 45.9734C50.0843 45.9734 49.8775 46.176 49.8775 46.4208C49.8775 47.1468 52.1652 46.6487 52.1652 48.1091C52.1652 48.7676 51.6207 49.3332 50.4768 49.3332C49.9106 49.3335 49.3574 49.1629 48.8898 48.8436V48.8436Z" fill="#263238"/>
<path d="M54.225 47.6833L53.6973 48.2362V49.2323H52.7899V45.29H53.6973V47.1303L55.4448 45.29H56.4578L54.8243 47.0459L56.5507 49.2323H55.487L54.225 47.6833Z" fill="#263238"/>
<path d="M56.5633 48.8434L56.8714 48.1554C57.2529 48.4227 57.7057 48.5697 58.1714 48.5775C58.7117 48.5775 58.9312 48.396 58.9312 48.1554C58.9312 47.421 56.6435 47.9275 56.6435 46.4671C56.6435 45.796 57.1838 45.2388 58.3023 45.2388C58.7815 45.2292 59.2543 45.3503 59.6699 45.5891L59.3871 46.2814C59.0566 46.0867 58.6815 45.9805 58.2981 45.9732C57.7578 45.9732 57.5468 46.1758 57.5468 46.4207C57.5468 47.1466 59.8387 46.6486 59.8387 48.109C59.8387 48.7675 59.2942 49.3331 58.1503 49.3331C57.584 49.3339 57.0307 49.1632 56.5633 48.8434Z" fill="#263238"/>
<path d="M143.914 69.3408H125.423C123.36 69.3408 121.687 71.0132 121.687 73.0763V73.0805C121.687 75.1436 123.36 76.816 125.423 76.816H143.914C145.977 76.816 147.65 75.1436 147.65 73.0805V73.0763C147.65 71.0132 145.977 69.3408 143.914 69.3408Z" fill="#E0E0E0"/>
<path d="M143.91 98.3967H125.423C124.932 98.3967 124.446 98.3001 123.993 98.1124C123.54 97.9247 123.128 97.6495 122.781 97.3026C122.434 96.9558 122.159 96.544 121.971 96.0907C121.784 95.6375 121.687 95.1518 121.687 94.6612V94.6612C121.687 93.6705 122.081 92.7204 122.781 92.0199C123.482 91.3193 124.432 90.9258 125.423 90.9258H143.91C144.4 90.9258 144.886 91.0224 145.339 91.2101C145.793 91.3979 146.204 91.673 146.551 92.0199C146.898 92.3667 147.173 92.7785 147.361 93.2317C147.549 93.685 147.645 94.1707 147.645 94.6612V94.6612C147.645 95.1518 147.549 95.6375 147.361 96.0907C147.173 96.544 146.898 96.9558 146.551 97.3026C146.204 97.6495 145.793 97.9247 145.339 98.1124C144.886 98.3001 144.4 98.3967 143.91 98.3967Z" fill="#EBEBEB"/>
<path d="M143.914 112.068H125.423C123.36 112.068 121.687 113.741 121.687 115.804V115.808C121.687 117.871 123.36 119.544 125.423 119.544H143.914C145.977 119.544 147.65 117.871 147.65 115.808V115.804C147.65 113.741 145.977 112.068 143.914 112.068Z" fill="#E0E0E0"/>
<path d="M25.3036 148.3C21.9269 149.487 17.4781 148.427 14.5741 146.304C11.6702 144.181 9.58085 141.146 7.73211 138.065C6.93859 136.748 6.17039 135.38 5.91714 133.844C5.66389 132.308 6.03532 130.628 7.20872 129.623C9.03636 128.087 11.8517 128.863 13.903 130.045C17.1367 131.931 19.8635 134.574 21.8488 137.748C23.834 140.921 25.0182 144.53 25.2994 148.262" fill="#00A7E1"/>
<path d="M21.6525 156.425C19.6139 159.113 16.1105 160.312 12.7423 160.468C9.37403 160.624 6.03954 159.692 2.88655 158.48C1.7427 158.058 0.49332 157.442 0.100779 156.281C-0.0229289 155.833 -0.0329104 155.361 0.071739 154.907C0.176389 154.454 0.392367 154.034 0.700142 153.685C1.32397 152.995 2.10406 152.464 2.97519 152.136C6.07331 150.815 9.62728 150.752 12.89 151.6C16.1527 152.449 19.006 154.335 21.6525 156.425" fill="#00A7E1"/>
<path d="M25.3458 133.754C22.539 133.814 20.4116 131.353 19.1369 128.846C17.3668 125.343 16.7747 121.362 17.4486 117.496C17.7061 116.056 18.2463 114.512 19.5337 113.819C20.8211 113.127 22.539 113.579 23.6322 114.579C24.7254 115.579 25.3205 117.006 25.7426 118.42C27.2537 123.304 26.9287 128.913 25.3205 133.754" fill="#00A7E1"/>
<path d="M34.5895 149.301C29.7988 141.146 29.001 131.151 31.829 122.144C32.2891 120.684 33.1544 119.008 34.6866 118.911C36.3749 118.801 37.447 120.692 37.9155 122.325C39.5574 128.057 39.2071 134.144 38.8441 140.091C38.6204 143.759 37.3626 146.891 34.5895 149.301" fill="#00A7E1"/>
<path d="M39.5616 152.653C40.4527 149.858 41.9598 147.3 43.9717 145.166C45.9836 143.032 48.449 141.377 51.1859 140.323C52.4522 139.846 54.0772 139.572 55.0227 140.547C55.9682 141.522 55.6685 143.08 55.0733 144.291C54.1068 146.216 52.5408 147.761 50.9791 149.246C49.5609 150.597 48.0878 151.952 46.2939 152.737C44.5001 153.522 41.1993 153.725 39.5616 152.653" fill="#00A7E1"/>
<path d="M9.85522 131.704C9.87981 131.733 9.90821 131.758 9.93964 131.78L10.1971 131.978L11.2017 132.729L11.9319 133.27C12.1936 133.472 12.4679 133.692 12.7761 133.949C13.367 134.443 14.0676 134.979 14.7725 135.638L15.9037 136.667C16.292 137.026 16.6719 137.431 17.0771 137.832C17.9002 138.626 18.6979 139.55 19.559 140.504C21.3659 142.633 23.0163 144.89 24.4974 147.258C25.947 149.641 27.2236 152.125 28.3173 154.691C28.7858 155.885 29.2586 157.012 29.5836 158.105C29.7608 158.65 29.955 159.165 30.1027 159.675L30.5248 161.144C30.8076 162.077 30.9722 162.942 31.1495 163.677C31.2339 164.052 31.3226 164.403 31.3859 164.728C31.4492 165.053 31.4956 165.352 31.542 165.618C31.6349 166.142 31.7109 166.555 31.7657 166.855L31.8291 167.176C31.8317 167.213 31.8418 167.249 31.8586 167.281C31.8634 167.245 31.8634 167.208 31.8586 167.172C31.8586 167.087 31.8333 166.977 31.8164 166.847C31.7742 166.547 31.7151 166.129 31.6349 165.606C31.5969 165.336 31.5505 165.036 31.4998 164.707C31.4492 164.377 31.3605 164.031 31.2846 163.651C31.1157 162.896 30.9638 162.022 30.6894 161.089C30.5586 160.617 30.4277 160.123 30.2673 159.608C30.1069 159.093 29.9339 158.574 29.7566 158.029C29.4232 156.932 28.9589 155.796 28.4904 154.593C27.4119 152.012 26.1421 149.515 24.6916 147.122C23.2042 144.75 21.5407 142.492 19.7152 140.369C18.871 139.415 18.0268 138.491 17.208 137.702C16.7859 137.301 16.4187 136.895 16.0219 136.541L14.8781 135.519C14.1647 134.857 13.4556 134.329 12.852 133.831C12.5481 133.595 12.2696 133.362 12.0079 133.164L11.265 132.641L10.2351 131.923L9.96497 131.742C9.88899 131.721 9.85945 131.699 9.85522 131.704Z" fill="#263238"/>
<path d="M3.51123 154.307C3.62271 154.301 3.73317 154.283 3.84046 154.252C4.05572 154.214 4.36385 154.134 4.77327 154.067C5.91915 153.849 7.07823 153.708 8.24282 153.644C12.0924 153.427 15.9417 154.075 19.5083 155.54C23.0623 157.036 26.2354 159.311 28.7942 162.196C29.5687 163.068 30.285 163.99 30.9384 164.956C31.1748 165.294 31.3352 165.573 31.4618 165.75C31.5199 165.845 31.5833 165.936 31.6518 166.024C31.6109 165.921 31.56 165.822 31.4998 165.729C31.3858 165.539 31.2381 165.252 31.0102 164.906C30.3767 163.917 29.6713 162.976 28.8997 162.09C26.3631 159.141 23.1713 156.827 19.58 155.333C15.9887 153.838 12.0974 153.205 8.2175 153.484C7.04883 153.564 5.88771 153.73 4.74372 153.982C4.32164 154.062 4.0304 154.159 3.81513 154.214C3.59987 154.269 3.51123 154.303 3.51123 154.307Z" fill="#263238"/>
<path d="M21.2051 117.074C21.2002 117.116 21.2002 117.159 21.2051 117.201L21.281 117.568C21.3528 117.906 21.4583 118.374 21.5934 118.974C21.8719 120.189 22.2898 121.949 22.8216 124.119C23.8769 128.458 25.409 134.435 27.0087 141.057C27.8023 144.375 28.5198 147.54 29.1192 150.423C29.7185 153.306 30.2462 155.91 30.6303 158.122C30.8371 159.215 30.9932 160.233 31.141 161.077C31.2887 161.921 31.4069 162.706 31.4955 163.322C31.5842 163.939 31.6644 164.403 31.7192 164.745C31.7446 164.897 31.7657 165.019 31.7825 165.112C31.7854 165.155 31.7953 165.198 31.8121 165.239C31.8168 165.196 31.8168 165.154 31.8121 165.112C31.8121 165.015 31.7868 164.892 31.7699 164.736L31.6348 163.322C31.5588 162.702 31.4533 161.946 31.314 161.068C31.1747 160.19 31.0355 159.194 30.8371 158.093C30.4741 155.889 29.9929 153.277 29.3724 150.381C28.752 147.486 28.0513 144.324 27.262 141.007C25.6623 134.38 24.1048 128.411 23.0074 124.081C22.4629 121.928 22.0239 120.177 21.7116 118.953C21.5638 118.357 21.4414 117.893 21.357 117.56C21.319 117.408 21.2852 117.289 21.2599 117.197C21.2456 117.154 21.2272 117.113 21.2051 117.074V117.074Z" fill="#263238"/>
<path d="M32.2089 164.593C32.222 164.562 32.2319 164.529 32.2385 164.496C32.2385 164.416 32.2765 164.318 32.306 164.2C32.3609 163.926 32.4411 163.546 32.5424 163.065C32.745 162.081 33.0109 160.651 33.319 158.874C33.9353 155.328 34.6613 150.398 35.1087 144.919C35.3282 142.18 35.4463 139.563 35.5012 137.183C35.5561 134.802 35.5012 132.654 35.4463 130.851C35.4463 129.952 35.3619 129.138 35.3239 128.424C35.2859 127.711 35.2395 127.095 35.1931 126.592C35.1467 126.09 35.1129 125.723 35.0833 125.44C35.0833 125.318 35.0833 125.221 35.0496 125.14C35.054 125.107 35.054 125.073 35.0496 125.039C35.0449 125.073 35.0449 125.107 35.0496 125.14C35.0496 125.225 35.0496 125.322 35.0496 125.444C35.0496 125.727 35.0833 126.111 35.1129 126.601C35.1424 127.09 35.1804 127.715 35.2057 128.433C35.2311 129.15 35.2817 129.956 35.2944 130.855C35.3493 132.654 35.3535 134.798 35.2944 137.187C35.2353 139.576 35.1002 142.176 34.8723 144.911C34.4249 150.398 33.7242 155.307 33.1502 158.84C32.8632 160.617 32.6184 162.052 32.4411 163.061C32.3609 163.542 32.2933 163.905 32.2469 164.2C32.2469 164.323 32.2131 164.42 32.2005 164.5C32.1977 164.531 32.2006 164.563 32.2089 164.593V164.593Z" fill="#263238"/>
<path d="M31.8544 165.631C31.9021 165.54 31.9431 165.445 31.9768 165.348L32.2933 164.529L32.517 163.934C32.6141 163.723 32.7154 163.491 32.8252 163.246C32.9349 163.001 33.0531 162.735 33.1755 162.452C33.2979 162.17 33.4625 161.891 33.5976 161.587L34.0872 160.633L34.6697 159.633C35.0538 158.932 35.5519 158.232 36.0288 157.472C37.1501 155.873 38.3606 154.338 39.6545 152.875C40.9631 151.424 42.3451 150.04 43.7952 148.73C44.4874 148.148 45.1163 147.57 45.7537 147.08L46.6612 146.358L47.5054 145.725C48.0456 145.303 48.5606 144.965 49.008 144.666C49.4554 144.366 49.8522 144.1 50.1687 143.906L50.9116 143.433C51.0019 143.383 51.0867 143.324 51.1648 143.256C51.0689 143.293 50.977 143.34 50.8905 143.395L50.1265 143.817C49.7888 144.003 49.3921 144.239 48.9404 144.547C48.4888 144.856 47.9612 145.176 47.4125 145.582L46.5388 146.206L45.6186 146.924C44.977 147.405 44.3524 147.983 43.6433 148.561C42.1777 149.868 40.7842 151.253 39.4688 152.711C38.1735 154.184 36.9683 155.735 35.86 157.354C35.3788 158.122 34.885 158.827 34.5051 159.54L33.931 160.553L33.4541 161.515C33.3063 161.823 33.1502 162.11 33.032 162.393C32.9138 162.676 32.7998 162.946 32.6943 163.195C32.5888 163.444 32.4917 163.681 32.4031 163.896C32.3144 164.111 32.2554 164.318 32.192 164.499C32.0781 164.841 31.9894 165.12 31.9177 165.344C31.887 165.437 31.8657 165.533 31.8544 165.631V165.631Z" fill="#263238"/>
<path d="M11.6322 141.163C11.6322 141.196 12.2147 141.196 13.1475 141.251C14.361 141.315 15.5692 141.456 16.7648 141.673C17.958 141.905 19.1352 142.212 20.2892 142.593C20.7607 142.775 21.2411 142.933 21.7285 143.066C21.6192 142.984 21.4983 142.919 21.3697 142.872C21.1334 142.758 20.783 142.61 20.3399 142.45C19.1916 142.028 18.0098 141.703 16.807 141.479C15.6015 141.25 14.3786 141.124 13.1517 141.104C12.6832 141.104 12.3075 141.104 12.0374 141.125C11.9012 141.116 11.7645 141.129 11.6322 141.163V141.163Z" fill="#263238"/>
<path d="M8.0191 158.815C8.54366 157.739 9.20629 156.736 9.99025 155.831C11.3325 154.366 12.852 153.721 12.8098 153.645C12.467 153.736 12.1398 153.878 11.839 154.067C11.0921 154.499 10.4136 155.039 9.82564 155.671C9.23962 156.297 8.75153 157.009 8.37788 157.781C8.20053 158.103 8.07921 158.453 8.0191 158.815V158.815Z" fill="#263238"/>
<path d="M20.3441 123.697C20.2977 123.744 21.1883 124.617 22.1422 125.808C23.0961 126.998 23.7883 128.028 23.8305 127.994C23.4359 127.148 22.9213 126.363 22.3026 125.664C21.7479 124.918 21.0882 124.255 20.3441 123.697V123.697Z" fill="#263238"/>
<path d="M23.2396 118.688C22.8718 119.93 22.6536 121.213 22.5896 122.507C22.8002 121.895 22.9418 121.26 23.0117 120.616C23.1612 119.984 23.2377 119.337 23.2396 118.688V118.688Z" fill="#263238"/>
<path d="M32.2005 134.385C32.6008 135.4 33.069 136.387 33.6018 137.339C34.0709 138.323 34.6068 139.274 35.2058 140.184C34.8067 139.169 34.3385 138.181 33.8044 137.23C33.3354 136.246 32.7995 135.295 32.2005 134.385V134.385Z" fill="#263238"/>
<path d="M37.5441 129.057C37.0836 129.731 36.6852 130.446 36.3538 131.192C35.957 131.904 35.6278 132.652 35.3704 133.425C35.831 132.753 36.2281 132.039 36.5564 131.294C36.9548 130.58 37.2854 129.832 37.5441 129.057V129.057Z" fill="#263238"/>
<path d="M45.3738 147.271C45.3738 147.334 46.3404 147.153 47.5264 147.069C48.7125 146.984 49.6833 147.031 49.6875 146.967C48.9761 146.797 48.2398 146.755 47.5138 146.845C46.7811 146.862 46.0571 147.006 45.3738 147.271Z" fill="#263238"/>
<path d="M40.0218 163.373L37.3542 177.399C37.2686 177.849 37.0287 178.255 36.6758 178.547C36.3229 178.839 35.8791 178.999 35.421 178.999H27.5449C27.0793 178.999 26.6286 178.834 26.2731 178.534C25.9175 178.233 25.6802 177.816 25.6033 177.357L23.286 163.373H40.0218Z" fill="#263238"/>
<path d="M39.1565 167.932H24.0838L23.286 163.373H40.0218L39.1565 167.932Z" fill="#455A64"/>
<path d="M39.1565 167.932L38.8399 169.595H24.3159L24.0837 167.932H39.1565Z" fill="#FAFAFA"/>
<path d="M155.378 166.307L155.712 174.479C155.712 174.479 147.515 177.564 147.43 179.079L163.301 179.004V166.248L155.378 166.307Z" fill="#263238"/>
<path d="M160.616 173.769C160.769 173.815 160.9 173.916 160.983 174.052C161.066 174.189 161.096 174.351 161.068 174.508C161.026 174.662 160.927 174.794 160.792 174.878C160.656 174.961 160.494 174.991 160.338 174.959C160.176 174.911 160.038 174.805 159.951 174.66C159.863 174.516 159.833 174.344 159.865 174.179C159.922 174.021 160.039 173.891 160.191 173.819C160.342 173.746 160.516 173.736 160.675 173.79" fill="#E0E0E0"/>
<path d="M163.301 179.003L163.25 177.736L148.055 178.289C148.055 178.289 147.35 178.602 147.43 179.1L163.301 179.003Z" fill="#455A64"/>
<path d="M155.454 174.402C155.454 174.478 155.842 174.512 156.226 174.757C156.611 175.002 156.813 175.331 156.885 175.301C156.957 175.272 156.838 174.82 156.37 174.529C155.901 174.238 155.437 174.33 155.454 174.402Z" fill="white"/>
<path d="M153.791 175.094C153.791 175.17 154.112 175.301 154.378 175.626C154.644 175.951 154.72 176.301 154.8 176.297C154.88 176.293 154.922 175.854 154.589 175.453C154.255 175.052 153.795 175.022 153.791 175.094Z" fill="white"/>
<path d="M152.858 177.091C152.926 177.091 153.031 176.72 152.833 176.298C152.635 175.875 152.267 175.707 152.234 175.774C152.2 175.842 152.428 176.061 152.588 176.412C152.749 176.762 152.774 177.087 152.858 177.091Z" fill="white"/>
<path d="M155.585 172.528C155.619 172.6 155.973 172.49 156.429 172.528C156.885 172.566 157.206 172.692 157.248 172.625C157.29 172.557 156.957 172.283 156.442 172.258C155.927 172.232 155.547 172.469 155.585 172.528Z" fill="white"/>
<path d="M179.787 168.21L181.847 177.889L181.269 186.014C181.259 186.152 181.278 186.291 181.324 186.422C181.37 186.553 181.443 186.674 181.538 186.775C181.632 186.877 181.747 186.958 181.874 187.014C182.001 187.069 182.139 187.098 182.278 187.098V187.098C182.439 187.099 182.597 187.06 182.74 186.987C182.883 186.913 183.007 186.807 183.101 186.676C184.316 184.988 188.757 178.686 188.588 177.986C188.364 177.175 187.094 167.632 187.094 167.632L179.787 168.21Z" fill="#263238"/>
<path d="M182.273 187.098L188.436 177.327L188.516 177.749C188.585 178.105 188.523 178.473 188.343 178.788C187.862 179.632 186.486 181.928 183.126 186.681C183.03 186.814 182.903 186.922 182.756 186.996C182.609 187.069 182.446 187.106 182.282 187.103L182.273 187.098Z" fill="#455A64"/>
<g opacity="0.6">
<path opacity="0.6" d="M185.849 174.566C185.748 174.679 185.693 174.824 185.693 174.975C185.693 175.126 185.748 175.272 185.849 175.385C185.955 175.493 186.099 175.556 186.251 175.56C186.402 175.565 186.55 175.511 186.663 175.41C186.771 175.291 186.83 175.136 186.83 174.975C186.83 174.815 186.771 174.66 186.663 174.541C186.54 174.442 186.384 174.395 186.227 174.408C186.07 174.422 185.924 174.495 185.819 174.612" fill="white"/>
</g>
<path d="M183.692 182.422C183.399 182.164 183.062 181.962 182.696 181.827C182.312 181.756 181.918 181.756 181.535 181.827C181.535 181.806 181.632 181.709 181.856 181.633C182.149 181.547 182.461 181.547 182.755 181.633C183.05 181.714 183.317 181.878 183.523 182.106C183.671 182.279 183.713 182.422 183.692 182.422Z" fill="white"/>
<path d="M183.244 183.861C182.935 183.76 182.621 183.675 182.303 183.608C181.979 183.61 181.655 183.628 181.332 183.663C181.619 183.453 181.973 183.357 182.327 183.393C182.68 183.43 183.007 183.597 183.244 183.861Z" fill="white"/>
<path d="M184.667 180.519C183.766 180.051 182.747 179.857 181.737 179.961C182.228 179.766 182.764 179.715 183.283 179.814C183.802 179.912 184.282 180.157 184.667 180.519V180.519Z" fill="white"/>
<path d="M184.287 177.522C184.287 177.585 183.692 177.462 182.987 177.572C182.282 177.682 181.763 177.948 181.721 177.893C182.074 177.607 182.498 177.422 182.948 177.356C183.399 177.291 183.858 177.348 184.278 177.522H184.287Z" fill="white"/>
<path d="M183.755 174.668C183.306 174.605 182.849 174.605 182.4 174.668C181.967 174.8 181.554 174.99 181.172 175.234C181.172 175.234 181.235 175.073 181.434 174.904C181.7 174.683 182.015 174.53 182.354 174.457C182.69 174.378 183.039 174.378 183.375 174.457C183.628 174.55 183.763 174.643 183.755 174.668Z" fill="white"/>
<path d="M182.32 174.132C182.265 174.019 182.236 173.895 182.235 173.769C182.205 173.425 182.242 173.078 182.345 172.748C182.402 172.502 182.537 172.281 182.729 172.119C182.799 172.073 182.88 172.048 182.964 172.048C183.047 172.048 183.128 172.073 183.198 172.119C183.328 172.224 183.413 172.375 183.434 172.541C183.473 172.871 183.396 173.205 183.216 173.485C183.036 173.764 182.764 173.972 182.447 174.073C182.131 174.167 181.795 174.166 181.481 174.068C181.166 173.97 180.888 173.781 180.682 173.524C180.63 173.459 180.593 173.384 180.572 173.303C180.552 173.222 180.549 173.138 180.564 173.056C180.591 172.977 180.641 172.909 180.707 172.858C180.773 172.808 180.853 172.778 180.935 172.773C181.185 172.779 181.429 172.852 181.64 172.984C181.944 173.145 182.216 173.358 182.447 173.613C182.538 173.7 182.612 173.805 182.662 173.921C182.339 173.604 181.972 173.334 181.573 173.119C181.382 173.015 181.17 172.957 180.952 172.95C180.906 172.951 180.862 172.967 180.825 172.995C180.789 173.023 180.762 173.062 180.75 173.107C180.744 173.16 180.75 173.215 180.767 173.267C180.783 173.318 180.811 173.366 180.847 173.406C181.031 173.623 181.275 173.781 181.547 173.863C181.82 173.944 182.11 173.946 182.383 173.866C182.647 173.774 182.872 173.597 183.025 173.364C183.177 173.13 183.249 172.853 183.227 172.575C183.212 172.462 183.157 172.358 183.071 172.283C183.034 172.256 182.989 172.241 182.943 172.241C182.896 172.241 182.851 172.256 182.814 172.283C182.651 172.421 182.534 172.605 182.48 172.811C182.352 173.239 182.297 173.686 182.32 174.132V174.132Z" fill="white"/>
<path d="M149.536 99.8491C149.536 99.8491 149.469 104.154 149.756 109.713C149.866 111.866 154.399 171.701 154.399 171.701L164.183 171.946L162.836 116.023L164.525 116.446C164.525 116.446 169.678 135.093 170.801 139.361C172.135 144.426 179.315 173.22 179.315 173.22L188.259 173.55L182.375 139.821L177.297 107.713L176.28 98.376L149.536 99.8491Z" fill="#455A64"/>
<path d="M164.525 110.367C164.393 110.457 164.251 110.53 164.103 110.587C163.715 110.771 163.305 110.903 162.883 110.979C162.584 111.033 162.278 111.033 161.979 110.979C161.629 110.913 161.305 110.748 161.047 110.502C160.781 110.217 160.593 109.868 160.502 109.489C160.397 109.105 160.342 108.708 160.27 108.307C159.996 106.687 159.823 105.209 159.726 104.137C159.679 103.601 159.65 103.166 159.633 102.871C159.616 102.715 159.616 102.558 159.633 102.402C159.678 102.552 159.705 102.706 159.713 102.862C159.755 103.204 159.81 103.626 159.873 104.129C160.004 105.197 160.202 106.661 160.473 108.278C160.612 109.08 160.701 109.89 161.182 110.388C161.41 110.589 161.679 110.737 161.971 110.821C162.263 110.905 162.57 110.923 162.87 110.874C163.285 110.81 163.691 110.701 164.081 110.549C164.221 110.471 164.37 110.41 164.525 110.367V110.367Z" fill="#263238"/>
<path d="M161.768 102.715C161.768 102.715 161.832 102.669 161.971 102.66C162.167 102.663 162.357 102.73 162.511 102.85C162.632 102.939 162.73 103.055 162.799 103.188C162.867 103.321 162.905 103.468 162.908 103.618C162.892 103.807 162.822 103.987 162.705 104.136C162.589 104.285 162.431 104.397 162.253 104.458C162.074 104.519 161.881 104.527 161.697 104.481C161.514 104.434 161.348 104.336 161.22 104.197C161.13 104.077 161.069 103.94 161.041 103.793C161.012 103.647 161.017 103.496 161.055 103.352C161.099 103.159 161.21 102.987 161.367 102.867C161.477 102.783 161.553 102.774 161.557 102.783C161.376 102.939 161.251 103.149 161.199 103.382C161.175 103.503 161.177 103.627 161.206 103.747C161.236 103.866 161.291 103.978 161.367 104.074C161.469 104.18 161.6 104.254 161.744 104.284C161.888 104.315 162.037 104.302 162.174 104.247C162.315 104.207 162.44 104.125 162.534 104.012C162.627 103.899 162.684 103.76 162.697 103.614C162.698 103.491 162.672 103.369 162.621 103.256C162.57 103.144 162.495 103.044 162.402 102.964C162.221 102.818 162 102.731 161.768 102.715Z" fill="#263238"/>
<path d="M177.175 107.134C177.067 107.168 176.954 107.184 176.841 107.18C176.535 107.2 176.227 107.2 175.921 107.18C173.886 107.002 171.973 106.132 170.501 104.715C170.279 104.503 170.073 104.274 169.885 104.031C169.809 103.948 169.745 103.854 169.695 103.753C169.725 103.732 170.029 104.099 170.603 104.597C171.349 105.255 172.188 105.8 173.093 106.214C174.002 106.62 174.967 106.889 175.955 107.011C176.698 107.113 177.175 107.096 177.175 107.134Z" fill="#263238"/>
<path d="M153.483 102.69C153.387 103.029 153.257 103.357 153.095 103.669C152.749 104.4 152.325 105.091 151.828 105.729C151.374 106.322 150.847 106.856 150.258 107.316C150.04 107.508 149.792 107.663 149.524 107.776C149.739 107.569 149.966 107.375 150.203 107.194C150.763 106.706 151.275 106.166 151.731 105.581C152.209 104.954 152.632 104.288 152.998 103.589C153.301 103.036 153.462 102.673 153.483 102.69Z" fill="#263238"/>
<path d="M159.105 40.8494C159.254 38.9458 160.113 37.1679 161.513 35.8695C162.914 34.5712 164.751 33.8476 166.66 33.8428H167.053C171.295 34.0791 173.465 37.8146 173.11 42.0481L172.19 55.213L164.63 63.0723L162.697 58.3745V55.2468C162.697 55.2468 158.62 54.6221 158.556 50.549C158.548 48.5778 158.818 44.5173 159.105 40.8494Z" fill="#FFBE9D"/>
<path d="M162.684 55.243C164.576 55.2442 166.429 54.7037 168.024 53.6855C168.024 53.6855 166.758 56.6402 162.706 56.2645L162.684 55.243Z" fill="#EB996E"/>
<path d="M160.194 44.248C160.194 44.3989 160.252 44.544 160.357 44.6526C160.462 44.7613 160.605 44.825 160.755 44.8305C160.829 44.8362 160.904 44.8272 160.974 44.8039C161.044 44.7805 161.109 44.7434 161.165 44.6947C161.221 44.6459 161.266 44.5866 161.299 44.52C161.332 44.4535 161.351 44.3811 161.355 44.3071C161.357 44.1552 161.3 44.0084 161.194 43.8986C161.089 43.7889 160.945 43.7248 160.793 43.7204C160.719 43.7147 160.645 43.7239 160.574 43.7474C160.503 43.771 160.438 43.8085 160.382 43.8577C160.327 43.9069 160.281 43.9668 160.249 44.0338C160.216 44.1008 160.198 44.1737 160.194 44.248V44.248Z" fill="#263238"/>
<path d="M159.983 42.842C160.059 42.918 160.498 42.5888 161.123 42.5888C161.747 42.5888 162.212 42.9011 162.279 42.8251C162.347 42.7492 162.237 42.6521 162.039 42.5086C161.768 42.3195 161.444 42.2205 161.114 42.2258C160.788 42.2251 160.47 42.3287 160.207 42.5212C160.013 42.669 159.949 42.8083 159.983 42.842Z" fill="#263238"/>
<path d="M165.859 44.3994C165.858 44.5514 165.917 44.6975 166.023 44.807C166.128 44.9164 166.272 44.9806 166.424 44.9861C166.498 44.9912 166.573 44.9816 166.643 44.9578C166.713 44.934 166.778 44.8965 166.834 44.8474C166.89 44.7984 166.935 44.7387 166.968 44.6719C167 44.6052 167.019 44.5326 167.023 44.4585C167.024 44.3065 166.965 44.1603 166.859 44.0509C166.754 43.9415 166.61 43.8772 166.458 43.8718C166.384 43.866 166.309 43.8752 166.238 43.8988C166.168 43.9224 166.103 43.9599 166.047 44.0091C165.991 44.0582 165.946 44.1181 165.913 44.1852C165.881 44.2522 165.862 44.325 165.859 44.3994V44.3994Z" fill="#263238"/>
<path d="M166.141 42.9393C166.217 43.0153 166.656 42.6903 167.281 42.6903C167.906 42.6903 168.37 42.9984 168.437 42.9224C168.505 42.8465 168.395 42.7536 168.197 42.6059C167.925 42.4203 167.602 42.323 167.272 42.3273C166.946 42.3255 166.628 42.4291 166.365 42.6227C166.175 42.7705 166.108 42.9055 166.141 42.9393Z" fill="#263238"/>
<path d="M163.883 47.5946C163.554 47.4891 163.212 47.4281 162.866 47.4131C162.706 47.4131 162.554 47.3625 162.524 47.2569C162.511 47.091 162.548 46.9251 162.63 46.78L163.102 45.5601C163.752 43.8254 164.225 42.3987 164.153 42.3734C164.082 42.3481 163.499 43.7325 162.845 45.4673C162.689 45.8894 162.541 46.3115 162.397 46.6956C162.297 46.8891 162.269 47.1119 162.317 47.3245C162.34 47.3806 162.376 47.4307 162.421 47.4709C162.466 47.5112 162.52 47.5405 162.579 47.5566C162.667 47.58 162.758 47.5927 162.849 47.5946C163.192 47.6374 163.54 47.6374 163.883 47.5946Z" fill="#263238"/>
<path d="M165.728 48.0206C165.626 48.0206 165.626 48.6959 165.044 49.1771C164.461 49.6583 163.74 49.5992 163.735 49.6878C163.731 49.7765 163.896 49.8187 164.204 49.8229C164.603 49.8308 164.991 49.6944 165.297 49.4388C165.593 49.1965 165.782 48.8481 165.825 48.468C165.859 48.1979 165.774 48.0164 165.728 48.0206Z" fill="#263238"/>
<path d="M165.977 40.487C166.036 40.6558 166.66 40.5714 167.399 40.66C168.138 40.7487 168.729 40.9471 168.826 40.7909C168.868 40.7191 168.762 40.5587 168.526 40.3941C168.205 40.1926 167.843 40.067 167.466 40.0268C167.089 39.9865 166.708 40.0328 166.352 40.162C166.082 40.2717 165.947 40.4068 165.977 40.487Z" fill="#263238"/>
<path d="M160.211 41.0228C160.321 41.1664 160.751 41.0228 161.27 41.0228C161.79 41.0228 162.229 41.1157 162.33 40.968C162.376 40.8962 162.305 40.7527 162.11 40.6176C161.859 40.458 161.564 40.3785 161.266 40.3897C160.962 40.3945 160.666 40.4949 160.422 40.6767C160.219 40.8118 160.16 40.9553 160.211 41.0228Z" fill="#263238"/>
<path d="M157.594 37.283C157.625 37.096 157.723 36.9267 157.87 36.8069C158.017 36.6872 158.202 36.6253 158.392 36.633C158.194 36.5827 158.006 36.4969 157.839 36.3797C157.755 36.3144 157.69 36.2268 157.653 36.1269C157.616 36.027 157.607 35.9187 157.628 35.8141C157.725 35.4976 158.126 35.4216 158.442 35.3203C158.859 35.19 159.224 34.9315 159.485 34.5817C159.861 34.0836 159.992 33.442 160.308 32.8933C160.516 32.5448 160.799 32.2475 161.138 32.0232C161.476 31.799 161.86 31.6535 162.262 31.5976C162.664 31.5417 163.073 31.5767 163.46 31.7002C163.846 31.8236 164.2 32.0323 164.495 32.3108C164.799 31.9803 165.177 31.727 165.598 31.5719C166.019 31.4169 166.471 31.3647 166.917 31.4196C167.362 31.4745 167.788 31.635 168.159 31.8876C168.53 32.1403 168.835 32.4778 169.05 32.8722C169.587 32.6296 170.179 32.536 170.765 32.6013C171.351 32.6665 171.908 32.8882 172.378 33.2431C172.849 33.5979 173.215 34.0729 173.439 34.6181C173.663 35.1633 173.736 35.7587 173.65 36.3418L171.16 37.9668C171.133 37.7767 171.067 37.5943 170.965 37.4315C170.863 37.2687 170.728 37.1291 170.569 37.0216C170.41 36.9142 170.23 36.8414 170.041 36.8079C169.852 36.7744 169.658 36.781 169.472 36.8272C168.712 37.072 168.248 37.971 167.454 38.0554C166.834 38.1187 166.293 37.6544 165.69 37.5109C164.935 37.4042 164.168 37.5932 163.55 38.0385C162.94 38.4813 162.274 38.8418 161.57 39.1106C160.702 39.3077 159.793 39.225 158.974 38.8743C158.614 38.7584 158.282 38.5654 158.004 38.3087C157.857 38.184 157.743 38.0254 157.672 37.8466C157.6 37.6679 157.574 37.4744 157.594 37.283Z" fill="#263238"/>
<path d="M170.666 36.8016L159.042 37.0675C159.433 36.2789 160.013 35.599 160.73 35.0879C162.24 33.9188 164.081 33.2556 165.989 33.1927C167.885 33.159 171.747 35.4636 173.123 36.7678C174.22 37.8146 174.216 38.7221 174.216 38.7221C174.389 40.2289 173.549 41.9426 173.211 43.4199C173.042 44.1839 172.709 46.4927 172.709 46.4927C172.067 46.4927 171.831 45.982 171.924 45.3489L172.042 42.8628C171.4 42.3528 170.944 41.6466 170.742 40.8522C170.54 40.0579 170.603 39.2192 170.924 38.4646C171.08 38.2367 171.434 37.2237 170.666 36.8016Z" fill="#263238"/>
<path d="M172.24 42.6735C172.777 40.5969 173.253 38.3767 172.57 36.3422L172.912 36.3169L173.059 36.4182C173.384 36.2976 173.738 36.2838 174.071 36.3788C174.404 36.4738 174.698 36.6726 174.91 36.9464C175.122 37.2201 175.241 37.5544 175.25 37.9005C175.259 38.2466 175.157 38.5865 174.959 38.8705C175.304 38.8571 175.642 38.9708 175.909 39.1903C176.176 39.4097 176.353 39.7195 176.406 40.0608C176.42 40.5389 176.304 41.0117 176.069 41.4284C175.835 41.844 175.698 42.3072 175.668 42.7833C175.659 43.0218 175.735 43.2556 175.882 43.4438C176.028 43.6321 176.237 43.7628 176.47 43.8132C176.363 44.0575 176.176 44.2579 175.939 44.3808C175.703 44.5037 175.431 44.5417 175.17 44.4885C175.353 44.8892 175.646 45.2301 176.014 45.472C175.271 46.008 174.228 45.8645 173.393 45.472C172.878 45.2818 172.452 44.9093 172.194 44.4252C172.022 43.8513 172.039 43.2376 172.24 42.6735V42.6735Z" fill="#263238"/>
<path d="M172.498 45.0663C172.57 45.0368 175.301 44.2222 175.216 47.0164C175.132 49.8106 172.354 49.1479 172.35 49.0677C172.346 48.9875 172.498 45.0663 172.498 45.0663Z" fill="#FFBE9D"/>
<path d="M172.988 48.0381C172.988 48.0381 173.038 48.0719 173.118 48.1141C173.235 48.1606 173.365 48.1606 173.481 48.1141C173.664 48.0038 173.814 47.8475 173.917 47.6608C174.02 47.4741 174.072 47.2636 174.068 47.0504C174.081 46.8124 174.04 46.5746 173.95 46.354C173.927 46.2663 173.883 46.1855 173.822 46.1186C173.761 46.0517 173.685 46.0006 173.6 45.9699C173.544 45.9535 173.485 45.9567 173.432 45.979C173.379 46.0013 173.335 46.0414 173.308 46.0923C173.266 46.1725 173.283 46.2274 173.27 46.2316C173.258 46.2358 173.211 46.1809 173.237 46.067C173.253 45.999 173.294 45.9391 173.351 45.8981C173.389 45.8695 173.432 45.8491 173.479 45.8382C173.525 45.8273 173.574 45.8262 173.621 45.8348C173.734 45.8607 173.84 45.9155 173.926 45.9939C174.013 46.0722 174.078 46.1715 174.115 46.2822C174.228 46.5262 174.279 46.7946 174.262 47.0631C174.268 47.3112 174.2 47.5555 174.068 47.7656C173.936 47.9758 173.745 48.1424 173.519 48.2449C173.447 48.2616 173.372 48.2627 173.299 48.2481C173.226 48.2336 173.158 48.2037 173.097 48.1605C172.992 48.1057 172.979 48.0423 172.988 48.0381Z" fill="#EB996E"/>
<path d="M175.322 42.6734C175.322 42.6734 175.398 42.5679 175.364 42.3484C175.332 42.1975 175.267 42.0556 175.174 41.9329C175.08 41.8103 174.961 41.71 174.824 41.6393C174.424 41.4638 173.993 41.3719 173.557 41.3692C173.31 41.3767 173.064 41.325 172.84 41.2186C172.616 41.1122 172.421 40.954 172.27 40.7572C172.026 40.315 171.934 39.8048 172.008 39.3052C172.063 38.8367 172.173 38.4061 172.224 38.0389C172.325 37.6459 172.307 37.2317 172.173 36.8486C172.183 37.2393 172.151 37.63 172.076 38.0136C172.004 38.3724 171.877 38.786 171.81 39.2799C171.718 39.8279 171.817 40.3907 172.089 40.8753C172.251 41.1242 172.489 41.3138 172.768 41.4156C173.017 41.5017 173.277 41.5515 173.541 41.5633C173.961 41.555 174.379 41.6251 174.773 41.7702C174.896 41.8292 175.006 41.9123 175.097 42.0145C175.187 42.1167 175.257 42.236 175.301 42.3653C175.317 42.4672 175.324 42.5703 175.322 42.6734Z" fill="#455A64"/>
<path d="M175.959 41.4452C175.959 41.4452 176.018 41.3651 176.039 41.192C176.053 40.9817 176.015 40.7712 175.927 40.5796C175.84 40.388 175.705 40.2212 175.537 40.0946C175.375 39.9788 175.191 39.8983 174.997 39.8582C174.808 39.8249 174.628 39.7561 174.465 39.6556C174.391 39.5945 174.333 39.5176 174.293 39.4306C174.254 39.3436 174.235 39.2488 174.237 39.1533C174.237 38.9423 174.237 38.7312 174.237 38.4949C174.214 37.9208 174.036 37.3636 173.722 36.8825C173.656 36.7727 173.565 36.6809 173.455 36.6154C173.345 36.5498 173.221 36.5125 173.093 36.5068C172.912 36.5068 172.836 36.5997 172.844 36.6039C172.852 36.6081 172.937 36.5701 173.089 36.6039C173.197 36.6229 173.299 36.6667 173.386 36.7319C173.474 36.7971 173.546 36.8819 173.595 36.9796C173.763 37.2727 173.884 37.5903 173.954 37.9208C173.998 38.1163 174.022 38.3157 174.026 38.516C174.026 38.7186 174.026 38.9381 174.026 39.1786C174.025 39.3055 174.052 39.4309 174.106 39.5456C174.16 39.6604 174.24 39.7614 174.338 39.8413C174.527 39.9549 174.737 40.0308 174.954 40.065C175.116 40.0883 175.27 40.1454 175.408 40.2327C175.545 40.32 175.663 40.4355 175.752 40.5715C175.909 40.8348 175.981 41.1397 175.959 41.4452V41.4452Z" fill="#455A64"/>
<path d="M159.468 34.5691C159.468 34.5691 159.679 34.7126 160.042 34.5311C160.243 34.4154 160.417 34.2586 160.553 34.0711C160.723 33.8347 160.936 33.6328 161.182 33.4759C161.504 33.2852 161.875 33.1914 162.249 33.2056C162.623 33.2198 162.985 33.3415 163.292 33.5561C163.643 33.7967 163.955 34.1386 164.364 34.4003C164.575 34.5503 164.815 34.6539 165.069 34.7042C165.338 34.7407 165.612 34.7057 165.863 34.6029C166.357 34.4087 166.745 34.0922 167.171 33.9233C167.583 33.7499 168.024 33.6568 168.471 33.649C169.236 33.629 169.986 33.8636 170.603 34.3159C171.019 34.6201 171.368 35.0066 171.628 35.4513C171.814 35.7721 171.882 35.9662 171.899 35.9578C171.915 35.9493 171.899 35.9071 171.865 35.8101C171.822 35.6737 171.768 35.541 171.704 35.4133C171.462 34.9362 171.116 34.5194 170.691 34.1935C170.057 33.7016 169.274 33.4397 168.471 33.4506C167.998 33.4522 167.529 33.5454 167.091 33.7249C166.631 33.9107 166.247 34.2272 165.783 34.4003C165.568 34.4917 165.333 34.5224 165.103 34.4889C164.879 34.4459 164.668 34.3552 164.482 34.223C164.103 33.9655 163.782 33.6279 163.402 33.3788C163.044 33.1276 162.615 32.9988 162.178 33.0116C161.799 33.0228 161.429 33.1334 161.106 33.3324C160.85 33.5035 160.632 33.7246 160.464 33.9824C160.343 34.1662 160.187 34.3241 160.004 34.4467C159.845 34.5484 159.656 34.5917 159.468 34.5691V34.5691Z" fill="#455A64"/>
<path d="M143.133 71.5103L128.711 60.114L126.655 57.9571C126.655 57.9571 121.742 53.3691 121.328 52.8668C120.847 52.2885 120.45 52.3814 120.252 52.5713C119.935 52.871 120.041 53.4788 120.438 53.9853C120.577 54.1626 122.852 56.8513 122.852 56.8513C122.482 56.7286 122.104 56.6313 121.721 56.56C120.898 56.387 119.716 56.8808 118.766 57.7123C117.817 58.5438 117.639 58.8646 117.947 59.2445C118.009 59.3131 118.084 59.3672 118.169 59.403C118.254 59.4388 118.345 59.4553 118.437 59.4513C118.74 59.4533 119.033 59.3436 119.26 59.1432C120.78 57.8263 121.886 58.299 121.886 58.299L122.156 58.5818C122.156 58.5818 120.657 58.6958 120.142 59.6033C120.067 59.733 120.018 59.8765 119.999 60.0254C119.789 60.2026 119.629 60.4314 119.535 60.6892C119.441 60.9471 119.416 61.225 119.462 61.4956C119.508 61.7662 119.623 62.0202 119.798 62.2324C119.972 62.4446 120.198 62.6077 120.455 62.7056C120.574 62.7654 120.708 62.7877 120.84 62.7696C120.972 62.7515 121.095 62.6939 121.193 62.6043C121.269 62.4844 121.315 62.3485 121.328 62.2076C121.339 62.1344 121.356 62.0624 121.379 61.9923L122.244 62.6761C122.244 62.6761 124.266 64.1112 125.076 64.8372L137.157 77.9683C137.554 78.3996 138.033 78.7476 138.566 78.9919C139.099 79.2362 139.676 79.3719 140.262 79.3911C140.848 79.4104 141.432 79.3128 141.98 79.104C142.528 78.8952 143.029 78.5795 143.454 78.1751V78.1751C143.911 77.7378 144.269 77.2074 144.503 76.6199C144.738 76.0324 144.844 75.4014 144.813 74.7696C144.783 74.1378 144.617 73.5198 144.327 72.9575C144.037 72.3953 143.63 71.9017 143.133 71.5103V71.5103Z" fill="#FFBE9D"/>
<path d="M128.111 60.2993C127.982 60.4406 127.811 60.538 127.624 60.5781C127.436 60.6182 127.241 60.5989 127.065 60.523C126.702 60.4006 126.393 60.1558 126.039 60.008C124.988 59.5606 123.7 60.008 122.662 59.5015C122.514 59.434 122.362 59.3032 122.396 59.147C122.43 58.9908 122.607 58.9486 122.751 58.9233L126.478 58.21" fill="#FFBE9D"/>
<path d="M126.486 58.2098C126.345 58.2013 126.203 58.2126 126.064 58.2435C125.803 58.2815 125.427 58.3406 124.963 58.4208L123.325 58.712L122.856 58.7965C122.658 58.8026 122.47 58.8859 122.333 59.0286C122.297 59.0814 122.277 59.1439 122.277 59.208C122.277 59.2721 122.297 59.3346 122.333 59.3874C122.395 59.4714 122.476 59.5394 122.569 59.5858C122.738 59.6657 122.915 59.728 123.097 59.7715C123.773 59.8628 124.454 59.9079 125.136 59.9066C125.425 59.9234 125.709 59.9846 125.98 60.088C126.214 60.1915 126.442 60.307 126.664 60.4342C126.828 60.5381 127.014 60.6047 127.207 60.6295C127.4 60.6543 127.596 60.6366 127.782 60.5777C128.048 60.4637 128.103 60.2949 128.094 60.2991C127.993 60.3829 127.879 60.4499 127.757 60.4975C127.582 60.5373 127.401 60.5402 127.225 60.5061C127.049 60.4719 126.882 60.4014 126.735 60.2991C126.514 60.1615 126.286 60.0361 126.052 59.9234C125.77 59.8045 125.47 59.7318 125.165 59.7082C124.493 59.6993 123.822 59.6499 123.156 59.5604C122.992 59.5222 122.832 59.467 122.679 59.3958C122.54 59.3241 122.451 59.2059 122.506 59.1426C122.561 59.0793 122.725 59.0286 122.886 58.9991L123.354 58.9062L124.979 58.5728C125.444 58.4715 125.824 58.3913 126.073 58.3279C126.215 58.3054 126.354 58.2657 126.486 58.2098V58.2098Z" fill="#EB996E"/>
<path d="M122.211 58.5686C122.037 58.4008 121.828 58.2739 121.599 58.1971C121.348 58.1334 121.083 58.1512 120.843 58.2478C120.546 58.3728 120.27 58.5421 120.024 58.7501C119.771 58.9675 119.497 59.1585 119.205 59.3199C118.959 59.4546 118.68 59.5202 118.399 59.5098C118.303 59.5053 118.209 59.4785 118.125 59.4317C118.04 59.3848 117.968 59.3191 117.914 59.2397C117.871 59.1836 117.846 59.1159 117.842 59.0455C117.842 59.0455 117.88 59.1088 117.956 59.2059C118.012 59.2709 118.081 59.323 118.159 59.3587C118.237 59.3944 118.322 59.4128 118.408 59.4127C118.667 59.4077 118.922 59.3366 119.146 59.2059C119.427 59.0418 119.693 58.8525 119.94 58.6403C120.192 58.4253 120.477 58.2515 120.784 58.1254C121.055 58.022 121.353 58.0145 121.628 58.1043C121.806 58.1631 121.967 58.2645 122.097 58.3997C122.189 58.501 122.219 58.5644 122.211 58.5686Z" fill="#EB996E"/>
<path d="M120.273 53.7871C120.441 53.9505 120.593 54.1284 120.729 54.3189L121.793 55.6274L122.877 56.919C123.032 57.0905 123.173 57.274 123.3 57.4677C123.112 57.3261 122.941 57.1648 122.789 56.9865C122.489 56.67 122.092 56.2268 121.67 55.7203C121.248 55.2138 120.885 54.7368 120.632 54.3822C120.49 54.1984 120.369 53.9987 120.273 53.7871Z" fill="#EB996E"/>
<path d="M122.109 59.6918C122.043 59.7218 121.974 59.7444 121.902 59.7593C121.813 59.7816 121.729 59.8224 121.656 59.8791C121.584 59.9358 121.524 60.0072 121.48 60.0886C121.458 60.1448 121.451 60.2057 121.459 60.2655C121.467 60.3254 121.491 60.3821 121.527 60.4304C121.62 60.5501 121.726 60.6591 121.843 60.7555C121.995 60.8754 122.099 61.0463 122.135 61.2366C122.141 61.3414 122.123 61.4463 122.082 61.543C122.041 61.6396 121.978 61.7255 121.898 61.7938C121.819 61.8598 121.727 61.9088 121.629 61.9378C121.53 61.9669 121.426 61.9753 121.324 61.9626C121.135 61.9458 120.956 61.8722 120.809 61.7516C120.588 61.5468 120.397 61.3108 120.244 61.0509C120.135 60.8776 120.056 60.6881 120.007 60.4895C119.982 60.346 120.007 60.2658 120.007 60.2658C120.007 60.2658 120.007 60.346 120.058 60.4769C120.121 60.6619 120.21 60.8368 120.324 60.996C120.48 61.2398 120.669 61.4613 120.885 61.6545C121.013 61.7604 121.172 61.8211 121.337 61.8272C121.503 61.8333 121.666 61.7845 121.801 61.6883C121.863 61.637 121.912 61.5723 121.945 61.4992C121.978 61.426 121.994 61.3463 121.991 61.2662C121.962 61.1088 121.877 60.9676 121.75 60.8694C121.627 60.7629 121.518 60.6409 121.425 60.5064C121.381 60.4425 121.353 60.3678 121.347 60.2899C121.34 60.2121 121.354 60.1339 121.387 60.0632C121.439 59.9708 121.512 59.8919 121.6 59.8332C121.688 59.7745 121.789 59.7376 121.894 59.7256C121.963 59.7006 122.036 59.6891 122.109 59.6918V59.6918Z" fill="#EB996E"/>
<path d="M121.286 61.8448C121.286 61.8448 121.354 61.8828 121.4 62.0094C121.428 62.0999 121.435 62.1957 121.421 62.2893C121.406 62.383 121.37 62.472 121.316 62.5497C121.229 62.6616 121.114 62.7489 120.983 62.8029C120.852 62.8569 120.709 62.8759 120.569 62.8578C120.235 62.8075 119.934 62.6325 119.724 62.3682C119.509 62.1087 119.379 61.7886 119.353 61.4522C119.338 61.225 119.374 60.9974 119.458 60.7857C119.542 60.5741 119.672 60.3837 119.838 60.2282C119.935 60.1438 119.999 60.11 120.003 60.1184C119.842 60.2922 119.707 60.4884 119.602 60.7009C119.491 60.9588 119.453 61.2424 119.494 61.5203C119.534 61.7982 119.65 62.0596 119.83 62.2753C120.021 62.5174 120.294 62.6798 120.598 62.7312C120.718 62.7484 120.84 62.7355 120.954 62.6934C121.067 62.6514 121.168 62.5817 121.248 62.4906C121.299 62.4248 121.335 62.349 121.354 62.2682C121.373 62.1874 121.374 62.1035 121.358 62.0221C121.32 61.9081 121.278 61.849 121.286 61.8448Z" fill="#EB996E"/>
<path d="M124.659 62.1019C124.659 62.1019 124.73 61.9922 124.92 61.8866C125.181 61.7543 125.477 61.7099 125.764 61.76L125.693 61.8613C125.605 61.725 125.525 61.5841 125.452 61.4392C125.177 60.9539 125.046 60.4008 125.072 59.8438C125.186 60.371 125.356 60.8846 125.579 61.3759C125.651 61.5194 125.731 61.6545 125.807 61.7769L125.891 61.912L125.739 61.8782C125.475 61.8257 125.201 61.8506 124.95 61.95C124.768 62.0386 124.671 62.1272 124.659 62.1019Z" fill="#EB996E"/>
<path d="M120.767 57.5352C120.805 57.5352 120.864 57.8053 120.708 58.105C120.552 58.4047 120.286 58.5271 120.286 58.4933C120.286 58.4595 120.455 58.3076 120.586 58.0417C120.716 57.7758 120.729 57.5352 120.767 57.5352Z" fill="#EB996E"/>
<path d="M142.479 79.0914L150.807 73.3257C150.807 73.3257 150.077 95.6541 150.077 95.8609C150.077 95.8609 148.553 96.4645 148.81 98.06L149.233 100.31C158.404 102.42 167.492 103.783 176.74 100.377L177.791 82.5905L181.054 60.8615L173.612 57.6958L172.346 54.7412L164.639 63.0437L162.668 57.6832L162.722 55.6614L160.857 57.6874L151.824 59.1731L140.571 68.2944L136.882 65.3103L131.315 73.0429L137.646 79.4333C139.25 79.8659 140.952 79.7455 142.479 79.0914V79.0914Z" fill="#00A7E1"/>
<path d="M163.507 62.0593C163.266 62.1959 163.076 62.4079 162.967 62.6629C162.852 62.9557 162.796 63.2684 162.803 63.583C162.823 64.0125 162.763 64.442 162.625 64.8493L162.532 65.0688L162.44 64.8493C162.19 64.2223 161.992 63.5757 161.849 62.9161C161.532 61.5485 161.33 60.2949 161.19 59.3875C161.097 58.9002 161.045 58.4061 161.034 57.9102C161.169 58.387 161.273 58.872 161.346 59.3621C161.519 60.2612 161.747 61.5063 162.064 62.8655C162.203 63.5131 162.391 64.1494 162.625 64.7691H162.44C162.57 64.3902 162.636 63.9921 162.634 63.5914C162.639 63.2583 162.715 62.9302 162.857 62.6291C162.944 62.4286 163.092 62.2603 163.28 62.1479C163.423 62.0551 163.503 62.0508 163.507 62.0593Z" fill="#263238"/>
<path d="M173.194 58.7207C173.127 58.8538 173.041 58.9773 172.941 59.0879C172.764 59.3158 172.519 59.6409 172.181 60.0376C171.531 60.8311 170.628 61.9159 169.615 63.1062L168.003 64.9887L167.88 65.1322L167.834 64.9465C167.602 64.0306 167.412 63.2581 167.294 62.7094C167.243 62.4393 167.091 62.2873 166.943 62.2873C166.871 62.2836 166.8 62.3044 166.741 62.3464C166.741 62.3464 166.77 62.2367 166.943 62.224C166.995 62.2235 167.046 62.2333 167.094 62.2529C167.142 62.2725 167.185 62.3014 167.222 62.338C167.311 62.4384 167.374 62.5585 167.408 62.6883C167.564 63.2286 167.779 63.9926 168.024 64.9085L167.855 64.8663L169.446 62.9711C170.459 61.7808 171.384 60.713 172.063 59.9448C172.401 59.5607 172.679 59.2525 172.874 59.0415C172.967 58.9219 173.075 58.8142 173.194 58.7207V58.7207Z" fill="#263238"/>
<path d="M162.06 93.674C162.041 93.5796 162.034 93.4832 162.039 93.387C162.039 93.1802 162.039 92.9101 162.039 92.5766C162.039 91.8717 162.039 90.8503 162.039 89.5882C162.068 87.0557 162.186 83.582 162.461 79.7452C162.735 75.9084 163.149 72.4389 163.495 69.9401C163.668 68.6738 163.82 67.6819 163.938 66.9855L164.073 66.1878C164.09 66.0939 164.111 66.0009 164.136 65.9092C164.149 66.0031 164.149 66.0981 164.136 66.192C164.111 66.3988 164.077 66.6689 164.039 66.9982C163.946 67.7241 163.82 68.7287 163.664 69.9528C163.36 72.4557 162.984 75.9169 162.697 79.7536C162.41 83.5904 162.275 87.0642 162.195 89.584C162.165 90.825 162.144 91.838 162.127 92.5682C162.127 92.903 162.119 93.1732 162.102 93.3786C162.094 93.4779 162.08 93.5766 162.06 93.674V93.674Z" fill="#263238"/>
<path d="M159.949 98.7979C159.764 98.1916 159.698 97.5552 159.755 96.9239C159.733 96.2932 159.798 95.6625 159.949 95.0498C160.009 95.6745 160.009 96.3034 159.949 96.9281C159.924 97.958 159.992 98.7895 159.949 98.7979Z" fill="#263238"/>
<path d="M170.653 92.6562C170.438 92.7602 170.213 92.845 169.982 92.9095C169.56 93.0614 168.902 93.2641 168.108 93.4962C166.033 94.0943 163.928 94.5832 161.802 94.9608C159.677 95.3363 157.534 95.6026 155.382 95.7586C154.538 95.8135 153.884 95.8472 153.42 95.8557C153.181 95.8756 152.941 95.8756 152.702 95.8557C152.937 95.8093 153.176 95.7825 153.415 95.7755L155.37 95.6109C157.012 95.4589 159.282 95.1888 161.764 94.7667C164.246 94.3446 166.471 93.7832 168.066 93.3611L169.957 92.8462C170.184 92.767 170.417 92.7035 170.653 92.6562V92.6562Z" fill="#263238"/>
<path d="M150.782 78.4411C150.722 78.4411 150.684 75.3345 150.697 71.5062C150.71 67.6779 150.773 64.5713 150.832 64.5713C150.891 64.5713 150.929 67.6779 150.917 71.5062C150.904 75.3345 150.845 78.4411 150.782 78.4411Z" fill="#263238"/>
<g opacity="0.3">
<path opacity="0.3" d="M165.356 63.7903C165.584 63.7821 165.808 63.851 165.992 63.9858C166.176 64.1206 166.309 64.3135 166.369 64.5332C166.454 64.9848 166.39 65.4618 166.509 65.9092C166.627 66.3566 167.036 66.7914 167.488 66.6985C167.757 66.6099 167.985 66.4289 168.134 66.1878C169.02 64.9877 169.731 63.6674 170.244 62.2666C170.244 62.3004 167.906 64.9511 167.906 64.9511C167.819 64.2807 167.643 63.6249 167.382 63.001C167.306 62.7984 167.213 62.4523 167.019 62.3637C166.703 62.2159 166.281 62.6802 166.07 62.963C165.854 63.249 165.609 63.5121 165.339 63.7481" fill="black"/>
</g>
<g opacity="0.3">
<path opacity="0.3" d="M161.545 61.3798C161.587 62.864 161.872 64.3312 162.389 65.7231C162.434 65.8647 162.512 65.9935 162.617 66.0987C162.67 66.1543 162.741 66.1906 162.817 66.2021C162.894 66.2135 162.971 66.1994 163.039 66.162C163.209 65.8771 163.351 65.5759 163.461 65.263C163.676 64.6594 164.554 64.6045 164.554 64.6045C164.408 63.9228 164.216 63.2516 163.98 62.5954C163.938 62.4872 163.862 62.3951 163.765 62.3322C163.667 62.2693 163.552 62.2388 163.436 62.2451C163.284 62.2958 163.148 62.3864 163.042 62.5074C162.937 62.6284 162.866 62.7753 162.836 62.9331C162.706 64.0136 162.722 64.5117 162.562 64.8915C162.14 63.735 161.819 62.359 161.549 61.3418" fill="black"/>
</g>
<g opacity="0.3">
<path opacity="0.3" d="M168.02 93.3613C168.12 93.2897 168.204 93.1989 168.269 93.0942C168.333 92.9896 168.376 92.8731 168.395 92.7517C168.414 92.6302 168.408 92.5062 168.378 92.387C168.349 92.2677 168.296 92.1555 168.222 92.057C168.065 91.8652 167.86 91.7181 167.629 91.6307C167.397 91.5432 167.146 91.5185 166.901 91.5589C166.413 91.6438 165.955 91.8499 165.567 92.1583C165.166 92.4495 164.799 92.7788 164.377 93.0362C163.343 93.6736 162.085 93.8171 160.869 93.8382C159.656 93.7879 158.44 93.8416 157.235 93.9986C156.045 94.2308 154.855 94.8428 154.281 95.9149C154.276 95.8938 164.656 95.1551 168.02 93.3613Z" fill="black"/>
</g>
<path d="M181.054 60.8613C181.054 60.8613 184.194 63.0984 184.954 65.1244C185.713 67.1504 188.52 81.0666 188.976 83.443C189.554 86.4313 189.571 90.1288 185.27 91.5344C183.671 92.0535 173.874 91.2558 173.874 91.2558L174.195 84.2956L179.483 84.494C179.483 84.494 179.167 84.0254 179.927 83.4599L178.238 74.4061C178.238 74.4061 178.859 64.791 178.935 64.563C179.011 64.3351 181.054 60.8613 181.054 60.8613Z" fill="#00A7E1"/>
<path d="M181.223 61.1016C180.293 61.4839 179.455 62.0572 178.761 62.7843C178.067 63.5114 177.534 64.3761 177.196 65.3224C177.219 65.0293 177.296 64.7431 177.424 64.4783C177.984 63.1136 179.039 62.0114 180.378 61.3928C180.64 61.2458 180.926 61.1472 181.223 61.1016V61.1016Z" fill="#263238"/>
<path d="M182.936 85.9034C182.902 85.9034 182.831 85.6713 182.62 85.3463C182.339 84.9241 181.972 84.566 181.543 84.2953C181.123 84.0129 180.646 83.8243 180.146 83.7423C179.762 83.6875 179.517 83.7423 179.509 83.6959C179.711 83.5934 179.939 83.5565 180.163 83.5904C180.7 83.6304 181.218 83.8093 181.666 84.1096C182.121 84.3967 182.495 84.7946 182.755 85.2661C182.876 85.4561 182.94 85.6777 182.936 85.9034V85.9034Z" fill="#263238"/>
<path d="M177.255 68.9062C177.319 69.0873 177.367 69.2738 177.398 69.4634C177.487 69.8855 177.593 70.3878 177.723 71.004C177.985 72.3083 178.331 74.1106 178.698 76.1028C179.066 78.0951 179.391 79.9016 179.614 81.2143C179.716 81.839 179.8 82.3582 179.863 82.7676C179.905 82.9562 179.926 83.1486 179.927 83.3416C179.862 83.1604 179.812 82.974 179.779 82.7845C179.695 82.3624 179.589 81.8601 179.458 81.2438C179.196 79.9396 178.85 78.1373 178.483 76.145C178.116 74.1528 177.791 72.3463 177.567 71.0336C177.466 70.4089 177.382 69.8897 177.318 69.4803C177.277 69.2917 177.256 69.0993 177.255 68.9062V68.9062Z" fill="#263238"/>
<path d="M173.878 91.2509C173.862 91.0712 173.862 90.8904 173.878 90.7107C173.878 90.3266 173.878 89.8327 173.912 89.2376C173.95 87.9713 174.013 86.245 174.102 84.2823V84.1768H174.212L175.081 84.2105L179.496 84.4005H179.526L179.547 84.4216C180.204 84.9568 180.704 85.6598 180.995 86.456C181.072 86.6761 181.133 86.9019 181.176 87.1314C181.196 87.2113 181.203 87.294 181.197 87.3762C181.172 87.3762 181.121 87.0427 180.897 86.494C180.583 85.7349 180.078 85.0692 179.433 84.5609L179.488 84.582L175.073 84.43L174.203 84.392L174.313 84.2907C174.224 86.2492 174.131 87.9924 174.055 89.2376C174.013 89.8327 173.979 90.3266 173.954 90.7107C173.949 90.893 173.924 91.0742 173.878 91.2509V91.2509Z" fill="#263238"/>
<path d="M166.15 82.8348L162.06 74.4859C161.923 74.2084 161.712 73.9746 161.449 73.8112C161.186 73.6479 160.883 73.5613 160.574 73.5615H150.271C150.183 73.5611 150.098 73.5835 150.021 73.6265C149.945 73.6694 149.882 73.7315 149.837 73.8065C149.792 73.8815 149.768 73.9668 149.766 74.0542C149.765 74.1415 149.786 74.2277 149.828 74.3044L156.792 87.3131C156.889 87.4916 157.032 87.6407 157.207 87.7447C157.381 87.8486 157.581 87.9037 157.784 87.904H168.459L166.15 82.8348Z" fill="#455A64"/>
<path d="M149.895 74.3678H150.102H150.689H152.858L160.004 74.3087C160.335 74.3059 160.661 74.3842 160.954 74.5366C161.224 74.709 161.443 74.951 161.587 75.2373C161.887 75.8071 162.136 76.4023 162.397 76.9257L163.765 79.8381L164.698 81.7923C164.803 82.0076 164.892 82.1806 164.964 82.3199C164.99 82.383 165.024 82.4426 165.065 82.4972C165.052 82.4296 165.029 82.3643 164.997 82.303C164.938 82.1595 164.858 81.9823 164.765 81.7628C164.55 81.2689 164.25 80.5978 163.887 79.779C163.524 78.9601 163.043 77.9471 162.558 76.8539C162.3 76.301 162.06 75.7227 161.752 75.1276C161.592 74.8113 161.35 74.5442 161.051 74.3551C160.731 74.1847 160.375 74.0962 160.013 74.0977C157.21 74.0977 154.69 74.1779 152.837 74.2159L150.672 74.275L150.081 74.3003C150.016 74.3134 149.953 74.3362 149.895 74.3678V74.3678Z" fill="#263238"/>
<path d="M156.239 76.1956C156.19 76.2137 156.146 76.2428 156.111 76.2808C156.075 76.3187 156.048 76.3644 156.033 76.4143C156.018 76.4642 156.015 76.5169 156.023 76.5683C156.032 76.6197 156.052 76.6684 156.083 76.7106C156.14 76.7988 156.223 76.8665 156.321 76.9037C156.419 76.941 156.527 76.9457 156.627 76.9174C156.695 76.9023 156.758 76.8687 156.808 76.8202C156.858 76.7718 156.893 76.7105 156.91 76.643C156.917 76.5409 156.89 76.4394 156.834 76.3541C156.777 76.2687 156.694 76.2042 156.598 76.1703C156.478 76.1494 156.355 76.1581 156.239 76.1956Z" fill="white"/>
<path d="M174.085 84.5783L171.527 84.3293C171.527 84.3293 170.366 83.0123 169.911 82.6156C169.455 82.2188 166.846 80.9272 166.846 80.9272C166.846 80.9272 165.491 79.4879 165.314 79.509C165.137 79.5301 164.58 79.7032 164.82 80.4165C165.049 81.1259 165.349 81.8104 165.715 82.4594L160.561 83.1938C160.4 83.2139 160.246 83.2694 160.108 83.3562C159.971 83.443 159.855 83.5591 159.768 83.6961C159.654 83.8861 159.62 84.0844 159.878 84.1731C160.81 84.3881 161.754 84.5487 162.706 84.6543L161.693 84.5192C161.693 84.5192 161.595 85.4816 162.271 85.853C162.53 85.9692 162.773 86.1196 162.993 86.3004C163.052 86.7304 163.205 87.1423 163.44 87.5076C163.752 87.8326 166.842 88.9806 166.842 88.9806C166.842 88.9806 168.771 89.3099 169.704 89.1495L173.882 89.7868L174.085 84.5783Z" fill="#FFBE9D"/>
<path d="M165.217 82.5516C165.707 82.5854 166.2 82.5854 166.69 82.5516C167.182 82.5819 167.676 82.5464 168.159 82.446C167.673 82.362 167.178 82.3351 166.686 82.3658C166.189 82.3389 165.691 82.4018 165.217 82.5516V82.5516Z" fill="#EB996E"/>
<path d="M166.184 84.7594C165.474 84.5946 164.745 84.5293 164.018 84.5652C163.419 84.5652 162.879 84.5652 162.486 84.5652C162.275 84.5505 162.062 84.559 161.853 84.5906C162.054 84.6639 162.268 84.6983 162.482 84.6919C162.879 84.7214 163.419 84.7341 164.018 84.7383C165.213 84.7425 166.175 84.8058 166.184 84.7594Z" fill="#EB996E"/>
<path d="M166.386 86.4524C166.386 86.3975 165.626 86.4524 164.698 86.4144C163.769 86.3764 163.009 86.2287 163.009 86.2836C163.548 86.4926 164.12 86.5999 164.698 86.6001C165.265 86.6577 165.838 86.6075 166.386 86.4524V86.4524Z" fill="#EB996E"/>
<path d="M166.302 88.3807C166.352 88.3807 166.403 88.1739 166.416 87.908C166.428 87.6421 166.395 87.431 166.344 87.4268C166.293 87.4226 166.243 87.6379 166.23 87.8996C166.217 88.1612 166.251 88.3807 166.302 88.3807Z" fill="#EB996E"/>
<path d="M166.492 86.06C166.542 86.06 166.551 85.8785 166.618 85.6886C166.686 85.4986 166.783 85.3636 166.749 85.3214C166.715 85.2791 166.525 85.3889 166.445 85.6295C166.365 85.8701 166.445 86.0727 166.492 86.06Z" fill="#EB996E"/>
<path d="M166.808 83.7173C166.863 83.7173 166.901 83.6033 166.947 83.4725C166.994 83.3416 167.036 83.2276 166.998 83.1939C166.96 83.1601 166.834 83.2445 166.774 83.4091C166.715 83.5737 166.758 83.7215 166.808 83.7173Z" fill="#EB996E"/>
</svg>
