<svg width="35" height="31" viewBox="0 0 35 31" fill="none" xmlns="http://www.w3.org/2000/svg">
<path d="M4.375 5.5625C4.375 5.85258 4.49023 6.13078 4.69535 6.3359C4.90047 6.54102 5.17867 6.65625 5.46875 6.65625H29.5312C29.8213 6.65625 30.0995 6.54102 30.3046 6.3359C30.5098 6.13078 30.625 5.85258 30.625 5.5625C30.625 5.27242 30.5098 4.99422 30.3046 4.7891C30.0995 4.58398 29.8213 4.46875 29.5312 4.46875H5.46875C5.17867 4.46875 4.90047 4.58398 4.69535 4.7891C4.49023 4.99422 4.375 5.27242 4.375 5.5625ZM8.75 1.1875C8.75 1.47758 8.86523 1.75578 9.07035 1.9609C9.27547 2.16602 9.55367 2.28125 9.84375 2.28125H25.1562C25.4463 2.28125 25.7245 2.16602 25.9296 1.9609C26.1348 1.75578 26.25 1.47758 26.25 1.1875C26.25 0.89742 26.1348 0.61922 25.9296 0.414102C25.7245 0.208984 25.4463 0.09375 25.1562 0.09375H9.84375C9.55367 0.09375 9.27547 0.208984 9.07035 0.414102C8.86523 0.61922 8.75 0.89742 8.75 1.1875ZM14.7984 13.385C14.6329 13.2815 14.4426 13.2243 14.2475 13.2191C14.0523 13.214 13.8593 13.2612 13.6885 13.3559C13.5178 13.4505 13.3755 13.5891 13.2764 13.7574C13.1773 13.9256 13.125 14.1173 13.125 14.3125V25.25C13.125 25.4452 13.1773 25.6369 13.2764 25.8051C13.3755 25.9734 13.5178 26.112 13.6885 26.2066C13.8593 26.3013 14.0523 26.3485 14.2475 26.3434C14.4426 26.3383 14.6329 26.281 14.7984 26.1775L23.5484 20.7088C23.7057 20.6104 23.8355 20.4737 23.9254 20.3115C24.0153 20.1492 24.0625 19.9668 24.0625 19.7813C24.0625 19.5957 24.0153 19.4133 23.9254 19.251C23.8355 19.0888 23.7057 18.9521 23.5484 18.8538L14.7984 13.385Z" fill="#00A7E1"/>
<path d="M3.28125 30.7188C2.41101 30.7188 1.57641 30.373 0.961056 29.7577C0.345702 29.1423 0 28.3077 0 27.4375L0 12.125C0 11.2548 0.345702 10.4202 0.961056 9.80481C1.57641 9.18945 2.41101 8.84375 3.28125 8.84375H31.7188C32.589 8.84375 33.4236 9.18945 34.0389 9.80481C34.6543 10.4202 35 11.2548 35 12.125V27.4375C35 28.3077 34.6543 29.1423 34.0389 29.7577C33.4236 30.373 32.589 30.7188 31.7188 30.7188H3.28125ZM31.7188 28.5312C32.0088 28.5312 32.287 28.416 32.4921 28.2109C32.6973 28.0058 32.8125 27.7276 32.8125 27.4375V12.125C32.8125 11.8349 32.6973 11.5567 32.4921 11.3516C32.287 11.1465 32.0088 11.0312 31.7188 11.0312H3.28125C2.99117 11.0312 2.71297 11.1465 2.50785 11.3516C2.30273 11.5567 2.1875 11.8349 2.1875 12.125V27.4375C2.1875 27.7276 2.30273 28.0058 2.50785 28.2109C2.71297 28.416 2.99117 28.5312 3.28125 28.5312H31.7188Z" fill="#00A7E1"/>
</svg>
