<svg width="17" height="13" viewBox="0 0 17 13" fill="none" xmlns="http://www.w3.org/2000/svg">
<path d="M16.0945 2.70206C16.0043 2.3675 15.8281 2.06239 15.5833 1.8171C15.3386 1.57182 15.0339 1.3949 14.6995 1.30397C13.4598 0.963555 8.5 0.958014 8.5 0.958014C8.5 0.958014 3.541 0.952472 2.30046 1.27785C1.96632 1.37296 1.66224 1.55238 1.41741 1.79887C1.17258 2.04536 0.995228 2.35065 0.902377 2.68543C0.575418 3.92518 0.572252 6.49651 0.572252 6.49651C0.572252 6.49651 0.569085 9.08051 0.893668 10.3076C1.07575 10.9861 1.61013 11.522 2.28938 11.7049C3.54179 12.0453 8.48813 12.0508 8.48813 12.0508C8.48813 12.0508 13.4479 12.0564 14.6877 11.7318C15.0221 11.641 15.3271 11.4645 15.5725 11.2197C15.8178 10.975 15.995 10.6704 16.0865 10.3361C16.4143 9.09714 16.4167 6.5266 16.4167 6.5266C16.4167 6.5266 16.4325 3.94181 16.0945 2.70206ZM6.9135 8.87864L6.91746 4.12864L11.0397 6.5076L6.9135 8.87864Z" fill="white"/>
</svg>
