<svg width="25" height="17" viewBox="0 0 25 17" fill="none" xmlns="http://www.w3.org/2000/svg">
<path d="M24.0915 2.70347C23.9539 2.19283 23.6849 1.72714 23.3114 1.35276C22.9379 0.978371 22.4728 0.708344 21.9625 0.569555C20.0702 0.0499712 12.5 0.0415131 12.5 0.0415131C12.5 0.0415131 4.931 0.0330545 3.03754 0.52968C2.52754 0.674857 2.06341 0.948702 1.68973 1.32493C1.31604 1.70115 1.04535 2.16712 0.903627 2.6781C0.404585 4.57035 0.399752 8.49501 0.399752 8.49501C0.399752 8.49501 0.394918 12.439 0.890335 14.3119C1.16825 15.3475 1.98388 16.1655 3.02063 16.4446C4.93221 16.9642 12.4819 16.9727 12.4819 16.9727C12.4819 16.9727 20.0521 16.9811 21.9443 16.4857C22.4548 16.3472 22.9204 16.0778 23.2948 15.7042C23.6693 15.3305 23.9398 14.8656 24.0795 14.3554C24.5797 12.4644 24.5833 8.54093 24.5833 8.54093C24.5833 8.54093 24.6075 4.59572 24.0915 2.70347ZM10.0785 12.1309L10.0845 4.88089L16.3763 8.51193L10.0785 12.1309Z" fill="#003DA6"/>
</svg>
